<svg width="32" height="90" viewBox="0 0 32 90" fill="none" xmlns="http://www.w3.org/2000/svg">
<g filter="url(#filter0_d_673_295)">
<path d="M17.5 2C17.5 1.17157 16.8284 0.5 16 0.5C15.1716 0.5 14.5 1.17157 14.5 2H17.5ZM14.9393 81.0607C15.5251 81.6464 16.4749 81.6464 17.0607 81.0607L26.6066 71.5147C27.1924 70.9289 27.1924 69.9792 26.6066 69.3934C26.0208 68.8076 25.0711 68.8076 24.4853 69.3934L16 77.8787L7.51472 69.3934C6.92893 68.8076 5.97919 68.8076 5.3934 69.3934C4.80761 69.9792 4.80761 70.9289 5.3934 71.5147L14.9393 81.0607ZM14.5 2L14.5 80H17.5L17.5 2H14.5Z" fill="white"/>
</g>
<defs>
<filter id="filter0_d_673_295" x="0.953125" y="0.5" width="30.0938" height="89" filterUnits="userSpaceOnUse" color-interpolation-filters="sRGB">
<feFlood flood-opacity="0" result="BackgroundImageFix"/>
<feColorMatrix in="SourceAlpha" type="matrix" values="0 0 0 0 0 0 0 0 0 0 0 0 0 0 0 0 0 0 127 0" result="hardAlpha"/>
<feOffset dy="4"/>
<feGaussianBlur stdDeviation="2"/>
<feComposite in2="hardAlpha" operator="out"/>
<feColorMatrix type="matrix" values="0 0 0 0 0 0 0 0 0 0 0 0 0 0 0 0 0 0 0.25 0"/>
<feBlend mode="normal" in2="BackgroundImageFix" result="effect1_dropShadow_673_295"/>
<feBlend mode="normal" in="SourceGraphic" in2="effect1_dropShadow_673_295" result="shape"/>
</filter>
</defs>
</svg>
