<svg width="187" height="150" viewBox="0 0 187 150" fill="none" xmlns="http://www.w3.org/2000/svg">
<g clip-path="url(#clip0_610_18259)">
<path d="M42.075 46.875C29.1603 46.875 18.7 36.3867 18.7 23.4375C18.7 10.4883 29.1603 0 42.075 0C54.9897 0 65.45 10.4883 65.45 23.4375C65.45 36.3867 54.9897 46.875 42.075 46.875ZM149.6 46.875C136.685 46.875 126.225 36.3867 126.225 23.4375C126.225 10.4883 136.685 0 149.6 0C162.515 0 172.975 10.4883 172.975 23.4375C172.975 36.3867 162.515 46.875 149.6 46.875ZM0 87.5098C0 70.2539 13.9666 56.25 31.1764 56.25H43.6528C48.2986 56.25 52.7106 57.2754 56.6844 59.0918C56.3045 61.2012 56.1292 63.3984 56.1292 65.625C56.1292 76.8164 61.038 86.8652 68.7809 93.75H6.22359C2.805 93.75 0 90.9375 0 87.5098ZM118.424 93.75H118.219C125.991 86.8652 130.871 76.8164 130.871 65.625C130.871 63.3984 130.666 61.2305 130.316 59.0918C134.289 57.2461 138.701 56.25 143.347 56.25H155.824C173.033 56.25 187 70.2539 187 87.5098C187 90.9668 184.195 93.75 180.776 93.75H118.424ZM121.55 65.625C121.55 81.1523 108.986 93.75 93.5 93.75C78.0141 93.75 65.45 81.1523 65.45 65.625C65.45 50.0977 78.0141 37.5 93.5 37.5C108.986 37.5 121.55 50.0977 121.55 65.625ZM37.4 142.178C37.4 120.615 54.8436 103.125 76.3486 103.125H110.651C132.156 103.125 149.6 120.615 149.6 142.178C149.6 146.484 146.123 150 141.799 150H45.2014C40.9062 150 37.4 146.514 37.4 142.178Z" fill="#ee40bd"/>
</g>
<defs>
<clipPath id="clip0_610_18259">
<rect width="187" height="150" fill="white"/>
</clipPath>
</defs>
</svg>