<svg width="31" height="10" viewBox="0 0 31 10" fill="none" xmlns="http://www.w3.org/2000/svg">
<path d="M5.96118 9.26693C5.87362 9.26675 5.7897 9.23187 5.72779 9.16994C5.66586 9.10801 5.631 9.02406 5.63081 8.93648V7.97384C5.63081 7.88621 5.596 7.80215 5.53405 7.74018C5.47211 7.67821 5.38806 7.64339 5.30044 7.64339C5.21283 7.64339 5.1288 7.67821 5.06685 7.74018C5.00488 7.80215 4.9701 7.88621 4.9701 7.97384V8.4308C4.9701 8.51845 4.93529 8.60251 4.87332 8.66448C4.81137 8.72645 4.72734 8.76127 4.63973 8.76127C4.55211 8.76127 4.46807 8.72645 4.40612 8.66448C4.34417 8.60251 4.30936 8.51845 4.30936 8.4308V7.97384C4.30936 7.88621 4.27455 7.80215 4.2126 7.74018C4.15063 7.67821 4.06661 7.64339 3.97899 7.64339C3.89137 7.64339 3.80735 7.67821 3.74538 7.74018C3.68343 7.80215 3.64862 7.88621 3.64862 7.97384V8.0982C3.64862 8.18591 3.6138 8.27002 3.55179 8.33205C3.48979 8.39407 3.40569 8.42891 3.31801 8.42891C3.23032 8.42891 3.14624 8.39407 3.08424 8.33205C3.02223 8.27002 2.98741 8.18591 2.98741 8.0982V7.97384C2.98741 7.88621 2.9526 7.80215 2.89063 7.74018C2.82868 7.67821 2.74466 7.64339 2.65704 7.64339C2.56942 7.64339 2.48539 7.67821 2.42343 7.74018C2.36148 7.80215 2.32667 7.88621 2.32667 7.97384V8.4308C2.32667 8.51845 2.29186 8.60251 2.22991 8.66448C2.16795 8.72645 2.08392 8.76127 1.9963 8.76127C1.90869 8.76127 1.82466 8.72645 1.7627 8.66448C1.70075 8.60251 1.66594 8.51845 1.66594 8.4308V7.97384C1.66594 7.88621 1.63113 7.80215 1.56918 7.74018C1.50722 7.67821 1.42319 7.64339 1.33558 7.64339C1.24796 7.64339 1.16393 7.67821 1.10197 7.74018C1.04002 7.80215 1.00521 7.88621 1.00521 7.97384V8.93648C1.00521 9.02411 0.970405 9.10817 0.908449 9.17014C0.846495 9.23211 0.762464 9.26693 0.674846 9.26693C0.587229 9.26693 0.503199 9.23211 0.441244 9.17014C0.379288 9.10817 0.344482 9.02411 0.344482 8.93648V3.48029C0.360426 2.80316 0.606489 2.15166 1.04213 1.63313C1.47777 1.11461 2.07701 0.759988 2.7411 0.627706C3.40519 0.495423 4.09451 0.593368 4.69551 0.905403C5.2965 1.21744 5.7733 1.72494 6.04736 2.34431C6.20611 2.70248 6.29227 3.0886 6.30087 3.48029C6.30143 3.48435 6.30082 3.48849 6.2991 3.49223C6.29739 3.49595 6.29464 3.49911 6.29117 3.50133V8.93626C6.2911 9.02384 6.25633 9.10782 6.19447 9.16979C6.13262 9.23178 6.04872 9.26671 5.96118 9.26693ZM2.98374 4.34738C2.89984 4.34738 2.86582 4.37984 2.86582 4.46009C2.86582 4.65513 3.08126 4.81375 3.34649 4.81375C3.61171 4.81375 3.82645 4.65513 3.82645 4.46009C3.82645 4.37999 3.7924 4.34751 3.70875 4.34751C3.66398 4.34911 3.61938 4.35364 3.57523 4.3611L3.57106 4.36182C3.49682 4.37399 3.42179 4.38084 3.34657 4.38228C3.27114 4.38084 3.19592 4.37401 3.12148 4.36182C3.07595 4.35384 3.02992 4.34903 2.98374 4.34738ZM4.42183 2.74171C4.12938 2.74171 3.89165 3.01406 3.89165 3.34898C3.89165 3.68387 4.12938 3.95572 4.42183 3.95572C4.71426 3.95572 4.95113 3.68352 4.95113 3.34898C4.95113 3.01441 4.71376 2.74171 4.42183 2.74171ZM2.22383 2.74171C1.9321 2.74171 1.69452 3.01406 1.69452 3.34898C1.69452 3.68387 1.9321 3.95572 2.22383 3.95572C2.51555 3.95572 2.75327 3.68352 2.75327 3.34898C2.75327 3.01441 2.51577 2.74171 2.22383 2.74171Z" fill="black" fill-opacity="0.7"/>
<path d="M22.7376 7.8157L20.7696 3.04194C20.7541 2.99841 20.7459 2.95263 20.7454 2.90644C20.7417 2.80877 20.7764 2.71355 20.8421 2.64114C20.8758 2.60658 20.9166 2.57964 20.9616 2.56213C21.0066 2.54461 21.0549 2.53692 21.1031 2.53958C21.1762 2.54053 21.2472 2.56417 21.3062 2.60722C21.3682 2.65324 21.4166 2.71505 21.4464 2.78619L23.3177 7.45838L25.189 2.78619C25.2189 2.71505 25.2673 2.65324 25.3292 2.60722C25.3883 2.56417 25.4593 2.54053 25.5323 2.53958C25.5806 2.53692 25.6288 2.54461 25.6739 2.56213C25.7189 2.57964 25.7596 2.60658 25.7934 2.64114C25.8592 2.7137 25.8939 2.80917 25.8901 2.90705C25.8895 2.95324 25.8814 2.99902 25.8659 3.04255L23.8979 7.81631C23.8642 7.92129 23.7986 8.01315 23.7101 8.07903C23.6217 8.14491 23.5149 8.18153 23.4047 8.18379H23.2306C23.1203 8.18145 23.0135 8.1447 22.9251 8.07873C22.8367 8.01273 22.7711 7.92076 22.7376 7.8157Z" fill="black" fill-opacity="0.7"/>
<path d="M26.7348 8.03807C26.7013 8.00443 26.6751 7.96438 26.6577 7.92031C26.6402 7.87623 26.6319 7.82908 26.6332 7.78171V2.94578C26.6314 2.84874 26.6679 2.75489 26.7348 2.68455C26.7675 2.6496 26.8072 2.62205 26.8515 2.60372C26.8957 2.5854 26.9433 2.57673 26.9911 2.57831H30.1881C30.2333 2.57704 30.2783 2.58545 30.32 2.60297C30.3616 2.62049 30.3991 2.64671 30.4299 2.67988C30.4626 2.71091 30.4886 2.74842 30.5061 2.79005C30.5236 2.83167 30.5322 2.87647 30.5314 2.92161C30.5326 2.96612 30.5243 3.01038 30.5067 3.05131C30.4892 3.09224 30.4629 3.12888 30.4299 3.15867C30.3979 3.18989 30.3601 3.21449 30.3186 3.23109C30.2771 3.24768 30.2328 3.25593 30.1881 3.25537H27.3586V5.01598H29.9021C29.9473 5.01472 29.9922 5.02313 30.0339 5.04066C30.0756 5.05817 30.1131 5.08438 30.1438 5.11755C30.1762 5.14885 30.202 5.18643 30.2194 5.228C30.2369 5.26954 30.2457 5.31421 30.2454 5.35928C30.2467 5.40379 30.2382 5.44804 30.2207 5.48897C30.2032 5.5299 30.1769 5.56655 30.1438 5.59635C30.1119 5.62755 30.0741 5.65217 30.0326 5.66875C29.9911 5.68534 29.9468 5.69359 29.9021 5.69304H27.3586V7.46299H30.1881C30.2333 7.46173 30.2783 7.47012 30.32 7.48765C30.3616 7.50516 30.3991 7.53139 30.4299 7.56456C30.4626 7.59558 30.4886 7.6331 30.5061 7.67472C30.5236 7.71634 30.5322 7.76116 30.5314 7.80629C30.5326 7.8508 30.5243 7.89504 30.5067 7.93598C30.4892 7.97691 30.4629 8.01356 30.4299 8.04336C30.3979 8.07456 30.3601 8.09918 30.3186 8.11575C30.2771 8.13235 30.2328 8.1406 30.1881 8.14005H26.9911C26.9435 8.14354 26.8956 8.13619 26.8512 8.11852C26.8068 8.10086 26.767 8.07334 26.7348 8.03807Z" fill="black" fill-opacity="0.7"/>
<path d="M21.2216 7.67969L19.2536 2.90593C19.2198 2.80105 19.1541 2.70934 19.0657 2.64358C18.9773 2.57781 18.8705 2.54127 18.7604 2.53906H18.5863C18.476 2.54132 18.3692 2.57794 18.2808 2.64382C18.1924 2.7097 18.1267 2.80155 18.093 2.90654L17.2372 4.98607H16.5892C16.4957 4.9866 16.4062 5.02398 16.3402 5.09006C16.2741 5.15616 16.2367 5.24566 16.2362 5.33913V5.344C16.2367 5.43747 16.2741 5.52697 16.3402 5.59307C16.4062 5.65915 16.4957 5.69653 16.5892 5.69706H16.9374L16.1202 7.67989C16.1047 7.72343 16.0965 7.76919 16.096 7.81539C16.0922 7.91326 16.1269 8.00873 16.1927 8.0813C16.2264 8.11585 16.2672 8.14281 16.3122 8.16032C16.3572 8.17783 16.4055 8.18553 16.4537 8.18287C16.5268 8.18191 16.5978 8.15829 16.6569 8.11522C16.7188 8.06921 16.7672 8.00739 16.797 7.93625L17.6965 5.69726H18.3155C18.4089 5.69673 18.4985 5.65935 18.5646 5.59327C18.6306 5.52717 18.668 5.43767 18.6685 5.3442V5.33425C18.668 5.24079 18.6306 5.15128 18.5646 5.08518C18.4985 5.0191 18.4089 4.98172 18.3155 4.9812H17.9819L18.6726 3.26447L20.5439 7.93666C20.5738 8.0078 20.6222 8.06962 20.6841 8.11563C20.7432 8.15869 20.8141 8.18232 20.8872 8.18327C20.9355 8.18593 20.9837 8.17823 21.0287 8.16072C21.0737 8.14321 21.1145 8.11626 21.1483 8.0817C21.2141 8.00914 21.2488 7.91367 21.2449 7.81579C21.2471 7.76927 21.2392 7.72282 21.2216 7.67969Z" fill="black" fill-opacity="0.7"/>
<path d="M15.3415 7.67969L13.3735 2.90593C13.3396 2.80105 13.274 2.70934 13.1855 2.64358C13.0971 2.57781 12.9904 2.54127 12.8802 2.53906H12.7061C12.5959 2.54132 12.4891 2.57794 12.4007 2.64382C12.3123 2.7097 12.2466 2.80155 12.2129 2.90654L11.3571 4.98607H10.7091C10.6156 4.9866 10.5261 5.02398 10.46 5.09006C10.3939 5.15616 10.3566 5.24566 10.356 5.33913V5.344C10.3566 5.43747 10.3939 5.52697 10.46 5.59307C10.5261 5.65915 10.6156 5.69653 10.7091 5.69706H11.0573L10.24 7.67969C10.2246 7.72322 10.2164 7.76899 10.2159 7.81518C10.212 7.91306 10.2467 8.00853 10.3126 8.08109C10.3463 8.11565 10.3871 8.1426 10.4321 8.16011C10.4771 8.17762 10.5254 8.18532 10.5736 8.18266C10.6467 8.18171 10.7177 8.15808 10.7767 8.11502C10.8386 8.06901 10.8871 8.00719 10.9169 7.93605L11.8164 5.69706H12.4402C12.5337 5.69653 12.6232 5.65915 12.6893 5.59307C12.7554 5.52697 12.7928 5.43747 12.7933 5.344V5.33425C12.7928 5.24079 12.7554 5.15128 12.6893 5.08518C12.6232 5.0191 12.5337 4.98172 12.4402 4.9812H12.1065L12.7931 3.26447L14.6644 7.93666C14.6942 8.0078 14.7426 8.06962 14.8046 8.11563C14.8636 8.15869 14.9346 8.18232 15.0077 8.18327C15.0559 8.18593 15.1042 8.17823 15.1492 8.16072C15.1942 8.14321 15.235 8.11626 15.2687 8.0817C15.3346 8.00914 15.3693 7.91367 15.3654 7.81579C15.3674 7.76921 15.3593 7.72278 15.3415 7.67969Z" fill="black" fill-opacity="0.7"/>
</svg>
