<svg width="40" height="11" viewBox="0 0 40 11" fill="none" xmlns="http://www.w3.org/2000/svg">
<path d="M5.25409 5.8609L4.76069 7.21203C4.74611 7.24951 4.74611 7.29114 4.76069 7.32862L5.60801 9.65407L6.58857 9.0878L5.41231 5.8609C5.38525 5.78595 5.28115 5.78595 5.25409 5.8609Z" fill="black" fill-opacity="0.7"/>
<path d="M6.24654 3.58746C6.21948 3.51251 6.11538 3.51251 6.08832 3.58746L5.59491 4.9386C5.58034 4.97607 5.58034 5.01771 5.59491 5.05518L6.98352 8.86292L7.96408 8.29665L6.24654 3.58746Z" fill="black" fill-opacity="0.7"/>
<path d="M4.50933 0.630807C4.53432 0.630807 4.55722 0.637053 4.58012 0.649544L8.31916 2.80844C8.36288 2.83343 8.38994 2.87923 8.38994 2.92919V7.247C8.38994 7.29696 8.36288 7.34276 8.31916 7.36774L4.58012 9.52873C4.5593 9.54122 4.53432 9.54746 4.50933 9.54746C4.48435 9.54746 4.46145 9.54122 4.43855 9.52873L0.701591 7.36983C0.657871 7.34484 0.630807 7.29904 0.630807 7.24908V2.92919C0.630807 2.87923 0.657871 2.83343 0.701591 2.80844L4.44063 0.649544C4.46145 0.637053 4.48643 0.630807 4.50933 0.630807ZM4.50933 0C4.37609 0 4.24285 0.0353918 4.12419 0.104094L0.385146 2.26299C0.147813 2.4004 0 2.65439 0 2.92919V7.247C0 7.5218 0.147813 7.77787 0.385146 7.91528L4.12419 10.0742C4.24285 10.1429 4.37609 10.1783 4.50933 10.1783C4.64257 10.1783 4.77581 10.1429 4.89448 10.0742L8.63352 7.91528C8.87294 7.77787 9.01867 7.52388 9.01867 7.247V2.92919C9.01867 2.65439 8.87086 2.39832 8.63352 2.26091L4.89656 0.104094C4.77581 0.0353918 4.64257 0 4.50933 0Z" fill="black" fill-opacity="0.7"/>
<path d="M4.18743 2.625H3.24018C3.16939 2.625 3.10486 2.66872 3.08196 2.73534L1.05005 8.30643L2.03061 8.8727L4.26862 2.73742C4.28736 2.68329 4.2478 2.625 4.18743 2.625Z" fill="black" fill-opacity="0.7"/>
<path d="M5.84888 2.625H4.90163C4.83084 2.625 4.76631 2.66872 4.74341 2.73534L2.42212 9.09754L3.40268 9.66381L5.92799 2.7395C5.94881 2.68329 5.90717 2.625 5.84888 2.625Z" fill="black" fill-opacity="0.7"/>
<path d="M13.0408 3.78125C13.1345 3.78125 13.2157 3.79999 13.2802 3.83954C13.3448 3.8791 13.4093 3.95405 13.4718 4.06647L14.7084 6.31072C14.7209 6.33571 14.723 6.35653 14.7167 6.37318C14.7105 6.38984 14.6917 6.39816 14.6626 6.39816H14.1879C14.1463 6.39816 14.1171 6.38151 14.1026 6.35028L13.8382 5.86937H12.0832L11.825 6.35028C11.8084 6.38359 11.7792 6.39816 11.7396 6.39816H11.2546C11.2213 6.39816 11.2025 6.38984 11.1963 6.37318C11.19 6.35653 11.1921 6.33571 11.2046 6.31072L12.4308 4.06647C12.4933 3.95405 12.5537 3.8791 12.614 3.83954C12.6744 3.79999 12.7431 3.78125 12.8222 3.78125H13.0408ZM12.3142 5.43217H13.6008L13.0075 4.33711C12.9971 4.32045 12.9846 4.31005 12.9659 4.31005H12.943C12.9263 4.31005 12.9117 4.31837 12.9013 4.33711L12.3142 5.43217Z" fill="black" fill-opacity="0.7"/>
<path d="M17.4284 3.78125C17.7157 3.78125 17.9197 3.84579 18.0447 3.97486C18.1696 4.10394 18.232 4.29547 18.232 4.54946V4.76181C18.232 4.97624 18.1883 5.14488 18.1009 5.26979C18.0134 5.3947 17.8719 5.47381 17.6741 5.5092L18.3132 6.30031C18.3257 6.31281 18.3299 6.33154 18.3236 6.35653C18.3195 6.38151 18.2986 6.394 18.2633 6.394H17.7823C17.749 6.394 17.7282 6.38984 17.7157 6.38359C17.7032 6.37526 17.6907 6.36277 17.6783 6.34612L17.087 5.56958H15.8795V6.31281C15.8795 6.36693 15.8525 6.394 15.7983 6.394H15.3944C15.3361 6.394 15.3091 6.36693 15.3091 6.31281V3.89367C15.3091 3.81872 15.3466 3.78125 15.4215 3.78125H17.4284ZM15.8816 5.11573H17.3118C17.4388 5.11573 17.5284 5.08867 17.5804 5.03454C17.6325 4.98041 17.6595 4.89713 17.6595 4.78471V4.62857C17.6595 4.51615 17.6325 4.43288 17.5804 4.37875C17.5284 4.32462 17.4388 4.29755 17.3118 4.29755H15.9295C15.8962 4.29755 15.8816 4.31213 15.8816 4.34336V5.11573Z" fill="black" fill-opacity="0.7"/>
<path d="M21.361 3.78125C21.6171 3.78125 21.8003 3.8333 21.9086 3.93531C22.0168 4.03732 22.0709 4.19138 22.0709 4.39748V4.57652C22.0709 4.78471 21.9918 4.94293 21.8315 5.05119C22.0022 5.15112 22.0897 5.31143 22.0897 5.5321V5.74862C22.0897 5.84855 22.0793 5.93807 22.0564 6.01718C22.0335 6.09629 21.9981 6.16499 21.946 6.2212C21.894 6.27741 21.8274 6.32113 21.742 6.35028C21.6566 6.37943 21.5526 6.39608 21.4276 6.39608H19.2084C19.1334 6.39608 19.0959 6.35861 19.0959 6.28366V3.89367C19.0959 3.81872 19.1334 3.78125 19.2084 3.78125H21.361ZM19.6685 4.86799H21.2007C21.3256 4.86799 21.4089 4.84925 21.4547 4.81178C21.5005 4.7743 21.5213 4.72017 21.5213 4.64731V4.52031C21.5213 4.44329 21.5005 4.38707 21.4568 4.3496C21.4131 4.31421 21.3423 4.29547 21.2465 4.29547H19.7184C19.6851 4.29547 19.6705 4.31213 19.6705 4.34336V4.86799H19.6685ZM19.6685 5.27603V5.83189C19.6685 5.8652 19.6851 5.87978 19.7163 5.87978H21.2486C21.3485 5.87978 21.4193 5.86104 21.461 5.82565C21.5026 5.79026 21.5255 5.73196 21.5255 5.65285V5.51129C21.5255 5.43426 21.5026 5.37596 21.4568 5.33641C21.411 5.29685 21.3256 5.27603 21.2007 5.27603H19.6685Z" fill="black" fill-opacity="0.7"/>
<path d="M23.4817 3.78125C23.5358 3.78125 23.5629 3.80831 23.5629 3.86244V6.31281C23.5629 6.36693 23.5358 6.394 23.4817 6.394H23.0778C23.0195 6.394 22.9924 6.36693 22.9924 6.31281V3.86452C22.9924 3.8104 23.0216 3.78333 23.0778 3.78333L23.4817 3.78125Z" fill="black" fill-opacity="0.7"/>
<path d="M27.396 3.78125C27.4543 3.78125 27.4813 3.80831 27.4813 3.86244V4.22885C27.4813 4.28714 27.4522 4.31421 27.396 4.31421H26.2239V6.31281C26.2239 6.36693 26.1968 6.394 26.1427 6.394H25.7346C25.6805 6.394 25.6534 6.36693 25.6534 6.31281V4.31421H24.4814C24.4231 4.31421 24.396 4.28506 24.396 4.22885V3.86244C24.396 3.80831 24.4251 3.78125 24.4814 3.78125H27.396Z" fill="black" fill-opacity="0.7"/>
<path d="M30.3413 3.78125C30.6286 3.78125 30.8326 3.84579 30.9575 3.97486C31.0824 4.10394 31.1449 4.29547 31.1449 4.54946V4.76181C31.1449 4.97624 31.1012 5.14488 31.0137 5.26979C30.9263 5.3947 30.7847 5.47381 30.5869 5.5092L31.2261 6.30031C31.2386 6.31281 31.2427 6.33154 31.2365 6.35653C31.2323 6.38151 31.2115 6.394 31.1761 6.394H30.6952C30.6619 6.394 30.6411 6.38984 30.6286 6.38359C30.6161 6.37526 30.6036 6.36277 30.5911 6.34612L29.9998 5.56958H28.7924V6.31281C28.7924 6.36693 28.7653 6.394 28.7112 6.394H28.3073C28.249 6.394 28.2219 6.36693 28.2219 6.31281V3.89367C28.2219 3.81872 28.2594 3.78125 28.3343 3.78125H30.3413ZM28.7965 5.11573H30.2268C30.3538 5.11573 30.4433 5.08867 30.4953 5.03454C30.5474 4.98041 30.5744 4.89713 30.5744 4.78471V4.62857C30.5744 4.51615 30.5474 4.43288 30.4953 4.37875C30.4433 4.32462 30.3538 4.29755 30.2268 4.29755H28.8444C28.8111 4.29755 28.7965 4.31213 28.7965 4.34336V5.11573Z" fill="black" fill-opacity="0.7"/>
<path d="M32.4392 3.78125C32.4933 3.78125 32.5204 3.80831 32.5204 3.86244V5.35306C32.5204 5.45299 32.5287 5.53627 32.5454 5.60081C32.562 5.66743 32.5891 5.71947 32.6265 5.75695C32.664 5.7965 32.714 5.82357 32.7785 5.83814C32.8431 5.85479 32.9222 5.86312 33.02 5.86312H34.0547C34.1526 5.86312 34.2317 5.85479 34.2962 5.83814C34.3607 5.82148 34.4107 5.79442 34.4482 5.75695C34.4857 5.71739 34.5127 5.66534 34.5273 5.60081C34.5419 5.53419 34.5502 5.45299 34.5502 5.35306V3.86244C34.5502 3.80831 34.5773 3.78125 34.6314 3.78125H35.0394C35.0936 3.78125 35.1206 3.80831 35.1206 3.86244V5.40927C35.1206 5.58831 35.1019 5.74029 35.0644 5.86728C35.0269 5.9922 34.9666 6.09421 34.8833 6.17332C34.8 6.25243 34.6918 6.30864 34.5585 6.34403C34.4253 6.37943 34.265 6.39608 34.0755 6.39608H32.9992C32.8097 6.39608 32.6494 6.37943 32.5183 6.34403C32.3871 6.30864 32.2789 6.25243 32.1956 6.17332C32.1123 6.09421 32.0519 5.9922 32.0124 5.86728C31.9728 5.74237 31.9541 5.58831 31.9541 5.40927V3.86244C31.9541 3.80831 31.9832 3.78125 32.0395 3.78125H32.4392Z" fill="black" fill-opacity="0.7"/>
<path d="M36.736 3.78125C36.7901 3.78125 36.838 3.78541 36.8775 3.79166C36.9171 3.79999 36.9525 3.81248 36.9816 3.83538C37.0108 3.8562 37.0378 3.88534 37.0628 3.92074C37.0857 3.95613 37.1107 4.00401 37.1357 4.06438L37.9122 5.85688C37.9226 5.87978 37.9393 5.89019 37.9643 5.89019H38.0101C38.0351 5.89019 38.0517 5.87978 38.0621 5.85688L38.8387 4.06438C38.8637 4.00401 38.8886 3.95613 38.9115 3.92074C38.9344 3.88534 38.9615 3.8562 38.9927 3.83538C39.0219 3.81456 39.0573 3.79999 39.0947 3.79166C39.1343 3.78333 39.1801 3.78125 39.2342 3.78125H39.6339C39.763 3.78125 39.8505 3.8104 39.8963 3.86869C39.9421 3.92698 39.9629 4.02691 39.9629 4.16848V6.31281C39.9629 6.36693 39.9337 6.394 39.8775 6.394H39.4965C39.4424 6.394 39.4153 6.36693 39.4153 6.31281V4.36209C39.4153 4.33711 39.4049 4.32462 39.3862 4.32462H39.3529C39.3279 4.32462 39.3113 4.33503 39.305 4.35376L38.5514 6.02759C38.5222 6.09421 38.491 6.1525 38.4598 6.1983C38.4285 6.2441 38.3952 6.28158 38.3598 6.31281C38.3244 6.34195 38.2828 6.36485 38.237 6.37734C38.1912 6.38983 38.1371 6.39608 38.0746 6.39608H37.8956C37.8331 6.39608 37.779 6.38983 37.7332 6.37734C37.6874 6.36485 37.6458 6.34403 37.6104 6.31281C37.575 6.28366 37.5396 6.2441 37.5104 6.1983C37.4792 6.1525 37.448 6.09629 37.4188 6.02759L36.6652 4.35376C36.6569 4.33295 36.6423 4.32462 36.6173 4.32462H36.584C36.5632 4.32462 36.5549 4.33711 36.5549 4.36209V6.31281C36.5549 6.36693 36.5278 6.394 36.4737 6.394H36.0927C36.0344 6.394 36.0073 6.36693 36.0073 6.31281V4.16848C36.0073 4.02691 36.0302 3.92698 36.0739 3.86869C36.1197 3.8104 36.2072 3.78125 36.3383 3.78125H36.736Z" fill="black" fill-opacity="0.7"/>
</svg>
