<svg width="50" height="20" viewBox="0 0 50 20" fill="none" xmlns="http://www.w3.org/2000/svg">
<path d="M3.23388 15.2969C2.91105 15.2969 2.61269 15.2186 2.33878 15.0621C2.07465 14.8958 1.85943 14.6806 1.69313 14.4164C1.53661 14.1425 1.45835 13.8442 1.45835 13.5213V10.4399H8.91263V8.56161C8.91263 8.40509 8.85394 8.27302 8.73655 8.16541C8.62894 8.04802 8.49688 7.98933 8.34036 7.98933H1.45835V6.78608H8.34036C8.67296 6.78608 8.97133 6.86923 9.23546 7.03553C9.50937 7.19205 9.72458 7.40727 9.8811 7.68118C10.0474 7.94531 10.1306 8.23878 10.1306 8.56161V15.2969H3.23388ZM3.23388 14.0936H8.91263V11.6431H2.6616V13.5213C2.6616 13.6779 2.7154 13.8148 2.82301 13.9322C2.9404 14.0398 3.07736 14.0936 3.23388 14.0936ZM11.5752 15.2969V8.56161C11.5752 8.23878 11.6535 7.94531 11.81 7.68118C11.9763 7.40727 12.1915 7.19205 12.4557 7.03553C12.7296 6.86923 13.0279 6.78608 13.3508 6.78608H18.1344V7.98933H13.3508C13.1942 7.98933 13.0573 8.04802 12.9399 8.16541C12.8323 8.27302 12.7785 8.40509 12.7785 8.56161V15.2969H11.5752ZM20.8449 15.2969C20.5221 15.2969 20.2238 15.2186 19.9498 15.0621C19.6857 14.8958 19.4705 14.6806 19.3042 14.4164C19.1477 14.1425 19.0694 13.8442 19.0694 13.5213V8.56161C19.0694 8.23878 19.1477 7.94531 19.3042 7.68118C19.4705 7.40727 19.6857 7.19205 19.9498 7.03553C20.2238 6.86923 20.5221 6.78608 20.8449 6.78608H25.9514C26.284 6.78608 26.5824 6.86923 26.8465 7.03553C27.1204 7.19205 27.3356 7.40727 27.4922 7.68118C27.6585 7.94531 27.7416 8.23878 27.7416 8.56161V11.6431H20.2727V13.5213C20.2727 13.6779 20.3265 13.8148 20.4341 13.9322C20.5515 14.0398 20.6884 14.0936 20.8449 14.0936H27.7416V15.2969H20.8449ZM20.2727 10.4399H26.5237V8.56161C26.5237 8.40509 26.465 8.27302 26.3476 8.16541C26.24 8.04802 26.1079 7.98933 25.9514 7.98933H20.8449C20.6884 7.98933 20.5515 8.04802 20.4341 8.16541C20.3265 8.27302 20.2727 8.40509 20.2727 8.56161V10.4399ZM29.2733 15.2969V6.78608H36.17C36.4928 6.78608 36.7863 6.86923 37.0504 7.03553C37.3243 7.19205 37.5395 7.40727 37.6961 7.68118C37.8624 7.94531 37.9455 8.23878 37.9455 8.56161V15.2969H36.7423V8.56161C36.7423 8.40509 36.6836 8.27302 36.5662 8.16541C36.4586 8.04802 36.3265 7.98933 36.17 7.98933H31.0635C30.907 7.98933 30.77 8.04802 30.6527 8.16541C30.5353 8.27302 30.4766 8.40509 30.4766 8.56161V15.2969H29.2733ZM41.2367 15.2969C40.9139 15.2969 40.6155 15.2186 40.3416 15.0621C40.0775 14.8958 39.8622 14.6806 39.6959 14.4164C39.5394 14.1425 39.4612 13.8442 39.4612 13.5213V10.4399H46.9154V8.56161C46.9154 8.40509 46.8568 8.27302 46.7394 8.16541C46.6318 8.04802 46.4997 7.98933 46.3432 7.98933H39.4612V6.78608H46.3432C46.6758 6.78608 46.9741 6.86923 47.2383 7.03553C47.5122 7.19205 47.7274 7.40727 47.8839 7.68118C48.0502 7.94531 48.1334 8.23878 48.1334 8.56161V15.2969H41.2367ZM41.2367 14.0936H46.9154V11.6431H40.6644V13.5213C40.6644 13.6779 40.7182 13.8148 40.8258 13.9322C40.9432 14.0398 41.0802 14.0936 41.2367 14.0936Z" fill="black"/>
<path d="M19.1062 11.0312C19.1062 11.1615 19.1786 11.3192 19.2981 11.4387C19.379 11.5196 19.4773 11.5765 19.5728 11.6064L19.8604 11.0312L19.5728 10.4561C19.4773 10.486 19.379 10.5429 19.2981 10.6238C19.1786 10.7433 19.1062 10.9009 19.1062 11.0312ZM20.169 11.4626L21.7034 11.4243C21.675 11.2875 21.66 11.1612 21.66 11.0312C21.66 10.9013 21.675 10.775 21.7034 10.6382L20.169 10.5998L20.3847 11.0312L20.169 11.4626ZM22.1291 11.0312C22.1291 11.1443 22.1465 11.2631 22.1831 11.4123L24.9676 11.3426C24.9554 11.2329 24.9492 11.132 24.9492 11.0312C24.9492 10.9305 24.9554 10.8295 24.9676 10.7198L22.1831 10.6502C22.1465 10.7994 22.1291 10.9182 22.1291 11.0312ZM25.4068 11.0312C25.4068 11.3671 25.5057 11.7596 25.6819 12.6208L26.0906 12.6208C25.7689 11.0402 25.7689 11.0223 26.0906 9.44163L25.6819 9.44163C25.5057 10.3029 25.4068 10.6953 25.4068 11.0312ZM26.2928 11.0312C26.2928 11.1786 26.3106 11.2849 26.3445 11.4766L35.1975 11.4226L36.3714 11.0312L35.1975 10.6399L26.3445 10.5426C26.3106 10.7342 26.2928 10.8839 26.2928 11.0312Z" fill="black"/>
</svg>
