<svg width="40" height="9" viewBox="0 0 40 9" fill="none" xmlns="http://www.w3.org/2000/svg">
<mask id="mask0_207_668" style="mask-type:luminance" maskUnits="userSpaceOnUse" x="0" y="0" width="40" height="9">
<path d="M39.0998 0H0V8.72476H39.0998V0Z" fill="white"/>
</mask>
<g mask="url(#mask0_207_668)">
<path fill-rule="evenodd" clip-rule="evenodd" d="M38.3766 4.96524C38.3766 4.45504 38.0761 4.07092 37.6017 4.07092C37.1273 4.07092 36.8265 4.45504 36.8265 4.96524C36.8265 5.47542 37.1273 5.85953 37.6017 5.85953C38.077 5.8605 38.3766 5.47639 38.3766 4.96524ZM38.3533 3.72856V2.39197C38.3533 2.3037 38.4125 2.22707 38.4978 2.20476L39.2067 2.01562V6.53848H38.4202V6.1544C38.2225 6.44244 37.8673 6.61122 37.423 6.61122C36.5105 6.61122 35.976 5.87892 35.976 4.96621C35.976 4.05347 36.5105 3.32118 37.423 3.32118C37.8664 3.32021 38.1914 3.51225 38.3533 3.72856ZM33.5143 3.39198V3.77609C33.6588 3.50546 33.9829 3.31924 34.4511 3.31924C35.2079 3.31924 35.6102 3.82359 35.6102 4.57434V6.53848H34.7578V4.67135C34.7578 4.30468 34.6017 4.0525 34.2233 4.0525C33.809 4.0525 33.5812 4.31635 33.5812 4.7373V6.53848H32.7288V3.39198H33.5143ZM30.7354 6.61122C29.8169 6.61122 29.3057 6.21453 29.3057 5.19412V3.39198H30.1583V5.20579C30.1583 5.64419 30.3562 5.84787 30.7344 5.84787C31.1127 5.84787 31.3106 5.64322 31.3106 5.20579V3.39198H32.1631V5.19315C32.1651 6.21453 31.6539 6.61122 30.7354 6.61122ZM26.4909 4.96524C26.4909 5.52974 26.8391 5.85953 27.2892 5.85953C27.7392 5.85953 28.0875 5.52877 28.0875 4.96524C28.0875 4.40169 27.7392 4.07092 27.2892 4.07092C26.8401 4.07092 26.4909 4.40072 26.4909 4.96524ZM27.2901 6.61122C26.2814 6.61122 25.6383 5.8605 25.6383 4.96621C25.6383 4.07193 26.2804 3.32118 27.2901 3.32118C28.2989 3.32118 28.942 4.07193 28.942 4.96621C28.941 5.8605 28.2989 6.61122 27.2901 6.61122ZM23.0399 4.96524C23.0399 5.47542 23.3405 5.85953 23.8148 5.85953C24.2891 5.85953 24.5898 5.47542 24.5898 4.96524C24.5898 4.45504 24.2891 4.07092 23.8148 4.07092C23.3405 4.07092 23.0399 4.45504 23.0399 4.96524ZM23.0641 6.20287V7.51132C23.0641 7.59961 23.0049 7.67622 22.9196 7.69852L22.2115 7.88478V3.39198H22.9981V3.77609C23.196 3.48801 23.551 3.31924 23.9953 3.31924C24.908 3.31924 25.4424 4.05154 25.4424 4.96427C25.4424 5.87698 24.908 6.60928 23.9953 6.60928C23.55 6.61122 23.2261 6.41918 23.0641 6.20287ZM19.679 4.74893V6.53848H18.8264V4.67135C18.8264 4.32313 18.7003 4.0525 18.322 4.0525C17.9253 4.0525 17.709 4.31053 17.709 4.73149V6.53945H16.8565V3.39198H17.6431V3.77609C17.7876 3.50546 18.0999 3.31924 18.55 3.31924C18.9767 3.31924 19.2823 3.48704 19.4627 3.76346C19.7391 3.45696 20.0573 3.31924 20.5073 3.31924C21.2639 3.31924 21.648 3.84204 21.648 4.57434V6.53848H20.7954V4.67135C20.7954 4.32313 20.6693 4.0525 20.291 4.0525C19.8885 4.0525 19.679 4.31053 19.679 4.74893ZM14.0116 4.96524C14.0116 5.52974 14.3598 5.85953 14.8099 5.85953C15.2599 5.85953 15.6081 5.52877 15.6081 4.96524C15.6081 4.40169 15.2599 4.07092 14.8099 4.07092C14.3598 4.07092 14.0116 4.40072 14.0116 4.96524ZM14.8099 6.61122C13.8011 6.61122 13.1581 5.8605 13.1581 4.96621C13.1581 4.07193 13.8001 3.32118 14.8099 3.32118C15.8196 3.32118 16.4617 4.07193 16.4617 4.96621C16.4617 5.8605 15.8186 6.61122 14.8099 6.61122ZM8.73413 4.40072C8.73413 3.06802 9.65269 2.1844 10.8777 2.1844C11.9408 2.1844 12.7817 2.81486 12.9437 3.85368H12.0067C11.8806 3.31924 11.448 3.01855 10.8777 3.01855C10.0969 3.01855 9.6585 3.55881 9.6585 4.39975C9.6585 5.24069 10.0969 5.78094 10.8777 5.78094C11.448 5.78094 11.8806 5.48026 12.0067 4.94582H12.9437C12.7817 5.98465 11.9408 6.6151 10.8777 6.6151C9.65269 6.61704 8.73413 5.73438 8.73413 4.40072Z" fill="black" fill-opacity="0.7"/>
<path fill-rule="evenodd" clip-rule="evenodd" d="M0.350151 6.79976C0.132882 6.66685 0 6.43021 0 6.17606V4.75703C0 4.70271 0.0145492 4.65036 0.0417076 4.6038C0.126093 4.45829 0.313292 4.40885 0.458783 4.49419L3.66156 6.36132C3.84875 6.47093 3.96418 6.67076 3.96418 6.888V8.35845C3.96418 8.42537 3.94572 8.49229 3.91083 8.54952C3.80509 8.72218 3.58006 8.77649 3.40741 8.67076L0.350151 6.79976ZM5.12421 4.10523C5.31141 4.21483 5.42683 4.41466 5.42683 4.63191V7.61546C5.42683 7.70374 5.3793 7.7852 5.30268 7.82789L4.60141 8.22267C4.59268 8.22751 4.58299 8.23139 4.57329 8.2343V6.57763C4.57329 6.36326 4.46078 6.16443 4.27649 6.05385L1.46365 4.37101V2.50095C1.46365 2.44663 1.4782 2.39426 1.50535 2.3477C1.58974 2.20221 1.77694 2.15274 1.92243 2.23809L5.12421 4.10523ZM6.5258 1.90153C6.71396 2.01016 6.82939 2.21191 6.82939 2.42918V6.78715C6.82939 6.87637 6.77991 6.9588 6.70136 7.00149L6.03692 7.36037V4.32638C6.03692 4.11204 5.92444 3.91415 5.74112 3.80358L2.86619 2.07903V0.304996C2.86619 0.250679 2.88073 0.198302 2.90693 0.151745C2.99131 0.00625327 3.17851 -0.0432138 3.324 0.0411714L6.5258 1.90153Z" fill="black" fill-opacity="0.7"/>
</g>
</svg>
