<svg width="31" height="8" viewBox="0 0 31 8" fill="none" xmlns="http://www.w3.org/2000/svg">
<path d="M7.58936 6.92489V6.44029L8.38606 6.24991V1.54225L7.5898 1.35179V0.867188H12.1851V2.64128H11.674L11.3278 1.52493H9.79606V3.54127L11.4057 3.39412V4.25089L9.79606 4.12106V6.26724H11.3451L11.9336 5.0557H12.4442L12.1845 6.92489H7.58936Z" fill="black" fill-opacity="0.7"/>
<path d="M12.8345 3.05236V2.59375H14.9027V5.57938C14.9027 5.87351 14.9387 6.07679 15.0109 6.18921C15.083 6.30164 15.2287 6.35788 15.448 6.35794C15.6152 6.35794 15.7883 6.31466 15.9672 6.2281C16.1461 6.14155 16.2904 6.02618 16.4003 5.882V3.2255L15.8377 3.05236V2.59375H17.7416V6.27167H18.4167V6.64394C18.2898 6.73044 18.1873 6.7923 18.1095 6.82954C18.0316 6.86678 17.945 6.90428 17.8499 6.94205C17.7549 6.97945 17.6563 7.00699 17.5556 7.02425C17.4628 7.04083 17.3686 7.04952 17.2743 7.05023C16.8589 7.05023 16.5676 6.86274 16.4003 6.48777C15.9903 6.86292 15.4883 7.0505 14.8942 7.0505C14.0114 7.0505 13.57 6.59763 13.5701 5.69189V3.2255L12.8345 3.05236Z" fill="black" fill-opacity="0.7"/>
<path d="M18.6597 6.92304V6.46443L19.3952 6.29138V0.787483H18.6597V0.328869L20.0443 0H20.728V6.29138L21.4636 6.46443V6.92304H18.6597Z" fill="black" fill-opacity="0.7"/>
<path d="M21.8508 4.70976C21.8508 4.02916 22.0427 3.48544 22.4263 3.07859C22.81 2.67173 23.3307 2.46846 23.9884 2.46875C24.6576 2.46875 25.1639 2.69666 25.5072 3.15247C25.8506 3.60829 26.0222 4.17078 26.0221 4.83995H23.1835C23.2239 5.26453 23.3769 5.63029 23.6423 5.93721C23.9077 6.24413 24.2481 6.39762 24.6634 6.39768C24.975 6.39768 25.3097 6.33422 25.6674 6.2073L25.849 6.70048C25.3125 6.93681 24.7875 7.05498 24.274 7.05498C23.5298 7.05498 22.9399 6.83717 22.5043 6.40157C22.0686 5.96596 21.8508 5.40203 21.8508 4.70976ZM23.1835 4.3032L24.6462 4.20802C24.6468 4.0792 24.6382 3.9505 24.6202 3.82294C24.6025 3.70474 24.5535 3.56195 24.473 3.39455C24.3288 3.15233 24.1586 3.03118 23.9624 3.03112C23.7317 3.03112 23.5413 3.14938 23.3913 3.38589C23.304 3.53219 23.2453 3.69372 23.2182 3.86191C23.1892 4.03485 23.1777 4.18189 23.1835 4.30303V4.3032Z" fill="black" fill-opacity="0.7"/>
<path d="M26.5315 6.92505V6.46644L27.2671 6.29339V3.38562H26.5315V2.92745L27.9162 2.59858H28.5999V3.11783C29.0325 2.68511 29.546 2.46875 30.1403 2.46875C30.1761 2.58656 30.1936 2.70915 30.1922 2.83226C30.1922 3.09741 30.1634 3.3455 30.1057 3.57653L29.0152 3.39473C28.8768 3.4583 28.7383 3.5506 28.5998 3.67163V6.29339L29.5083 6.46644V6.92505H26.5315Z" fill="black" fill-opacity="0.7"/>
<path d="M3.90403 0.918012L0.557532 2.40792C0.249481 2.54507 0.110941 2.90597 0.248094 3.21401C0.385247 3.52205 0.746156 3.66058 1.05421 3.52344L4.4007 2.03353C4.70875 1.89638 4.84729 1.53548 4.71014 1.22744C4.57299 0.919399 4.21208 0.780864 3.90403 0.918012Z" fill="black" fill-opacity="0.7"/>
<path d="M2.97679 3.33651L0.745764 4.3298C0.437713 4.46694 0.299173 4.82784 0.436326 5.13588C0.573479 5.44392 0.934389 5.58246 1.24244 5.44531L3.47346 4.45203C3.78151 4.31488 3.92005 3.95398 3.7829 3.64594C3.64575 3.3379 3.28484 3.19936 2.97679 3.33651Z" fill="black" fill-opacity="0.7"/>
<path d="M5.39377 4.26176L2.04728 5.75167C1.73923 5.88882 1.60069 6.24972 1.73784 6.55776C1.87499 6.8658 2.2359 7.00434 2.54395 6.86719L5.89045 5.37728C6.1985 5.24013 6.33704 4.87923 6.19989 4.57119C6.06273 4.26315 5.70182 4.12461 5.39377 4.26176Z" fill="black" fill-opacity="0.7"/>
</svg>
