<svg width="50" height="20" viewBox="0 0 50 20" fill="none" xmlns="http://www.w3.org/2000/svg">
<path d="M17.5421 15H15.5387V4.2945H22.9561V5.99209H17.5421V8.8061H22.6655V10.5037H17.5421V15ZM24.36 4.2945H26.2258V15H24.36V4.2945ZM30.3106 15.2753C29.8722 15.2753 29.4542 15.1835 29.0565 15C28.6589 14.8063 28.3377 14.5361 28.093 14.1894C27.8585 13.8326 27.7413 13.4197 27.7413 12.9507C27.7413 12.1656 27.9962 11.5895 28.506 11.2225C29.0259 10.8452 29.7396 10.5955 30.6471 10.4731L31.7176 10.3355C32.0133 10.2947 32.2223 10.2233 32.3447 10.1214C32.4772 10.0092 32.5435 9.85626 32.5435 9.66254C32.5435 9.38726 32.4313 9.15786 32.207 8.97433C31.9929 8.78061 31.6972 8.68375 31.32 8.68375C30.8918 8.68375 30.5451 8.79591 30.28 9.02021C30.0149 9.24452 29.862 9.55549 29.8212 9.95312H27.8942C27.9554 9.15786 28.2868 8.51553 28.8883 8.02613C29.4899 7.53674 30.2647 7.29204 31.2129 7.29204C32.3243 7.29204 33.1348 7.57752 33.6446 8.14848C34.1544 8.70924 34.4093 9.53 34.4093 10.6107V15H32.6811V14.6941C32.6811 14.4902 32.7066 14.2506 32.7576 13.9753C32.5435 14.373 32.2325 14.689 31.8247 14.9235C31.427 15.158 30.9223 15.2753 30.3106 15.2753ZM30.8153 13.8989C31.3149 13.8989 31.738 13.7306 32.0847 13.3942C32.4313 13.0577 32.6046 12.6295 32.6046 12.1095V11.299C32.4517 11.4417 32.156 11.5488 31.7176 11.6201L31.1059 11.7425C30.6369 11.824 30.2749 11.9566 30.02 12.1401C29.7651 12.3134 29.6377 12.5581 29.6377 12.8742C29.6377 13.1903 29.7498 13.4401 29.9741 13.6236C30.1985 13.8071 30.4788 13.8989 30.8153 13.8989ZM36.2185 15V7.53674H38.0843V8.1026C38.0843 8.37788 38.0639 8.63787 38.0231 8.88257C38.5227 7.82222 39.2517 7.29204 40.2101 7.29204C40.3528 7.29204 40.4854 7.30733 40.6077 7.33792V9.14256C40.4446 9.10178 40.2662 9.08139 40.0724 9.08139C39.4607 9.08139 38.9764 9.25981 38.6196 9.61666C38.2627 9.96332 38.0843 10.5241 38.0843 11.299V15H36.2185ZM45.0049 15.2753C44.2606 15.2753 43.5979 15.1173 43.0167 14.8012C42.4457 14.4851 41.9971 14.0263 41.6709 13.4248C41.3548 12.8232 41.1968 12.0993 41.1968 11.2531C41.1968 10.4782 41.3548 9.78999 41.6709 9.18844C41.9971 8.5869 42.4457 8.12299 43.0167 7.79673C43.5877 7.46027 44.23 7.29204 44.9437 7.29204C46.0754 7.29204 46.9573 7.65399 47.5895 8.37788C48.2216 9.10178 48.5377 10.0806 48.5377 11.3142V11.7272H43.1085C43.1187 12.3287 43.2971 12.8283 43.6437 13.2259C43.9904 13.6134 44.4441 13.8071 45.0049 13.8071C45.4229 13.8071 45.7746 13.7 46.0601 13.4859C46.3558 13.2616 46.5342 12.9558 46.5954 12.5683H48.4918C48.4408 13.0781 48.2624 13.542 47.9565 13.96C47.6608 14.3679 47.2581 14.689 46.7483 14.9235C46.2385 15.158 45.6574 15.2753 45.0049 15.2753ZM46.626 10.3813C46.6056 9.87156 46.4425 9.46373 46.1366 9.15786C45.8307 8.84179 45.428 8.68375 44.9284 8.68375C44.4288 8.68375 44.0108 8.84179 43.6743 9.15786C43.3379 9.47392 43.1441 9.88175 43.0932 10.3813H46.626Z" fill="black"/>
<circle cx="5.40183" cy="9.52549" r="1.80674" fill="url(#paint0_radial_207_520)"/>
<circle cx="8.9993" cy="5.99424" r="1.80674" fill="url(#paint1_radial_207_520)"/>
<circle cx="1.80436" cy="13.1271" r="1.80674" fill="url(#paint2_radial_207_520)"/>
<circle cx="1.80434" cy="13.1777" r="1.80672" transform="rotate(-90 1.80434 13.1777)" fill="url(#paint3_linear_207_520)"/>
<circle cx="9.0588" cy="5.99015" r="1.80672" transform="rotate(-90 9.0588 5.99015)" fill="url(#paint4_linear_207_520)"/>
<circle cx="5.4349" cy="9.54891" r="1.80672" fill="url(#paint5_linear_207_520)"/>
<defs>
<radialGradient id="paint0_radial_207_520" cx="0" cy="0" r="1" gradientUnits="userSpaceOnUse" gradientTransform="translate(5.40996 9.53362) rotate(-10.5175) scale(3.08072)">
<stop offset="0.125" stop-color="#1AFB9B"/>
<stop offset="0.395" stop-color="#6E76E4"/>
</radialGradient>
<radialGradient id="paint1_radial_207_520" cx="0" cy="0" r="1" gradientUnits="userSpaceOnUse" gradientTransform="translate(9.00743 6.00237) rotate(-10.5175) scale(3.08072)">
<stop offset="0.125" stop-color="#1AFB9B"/>
<stop offset="0.395" stop-color="#6E76E4"/>
</radialGradient>
<radialGradient id="paint2_radial_207_520" cx="0" cy="0" r="1" gradientUnits="userSpaceOnUse" gradientTransform="translate(1.81249 13.1352) rotate(-10.5175) scale(3.08072)">
<stop offset="0.125" stop-color="#1AFB9B"/>
<stop offset="0.395" stop-color="#6E76E4"/>
</radialGradient>
<linearGradient id="paint3_linear_207_520" x1="-0.00238038" y1="14.066" x2="4.6951" y2="13.1777" gradientUnits="userSpaceOnUse">
<stop offset="0.0001" stop-color="#44B5CA"/>
<stop offset="0.173152" stop-color="#46B0CC"/>
<stop offset="0.72359" stop-color="#22ECAC"/>
<stop offset="1" stop-color="#1AFB9B"/>
</linearGradient>
<linearGradient id="paint4_linear_207_520" x1="7.25208" y1="6.87846" x2="11.9496" y2="5.99015" gradientUnits="userSpaceOnUse">
<stop offset="0.0001" stop-color="#44B5CA"/>
<stop offset="0.173152" stop-color="#46B0CC"/>
<stop offset="0.72359" stop-color="#22ECAC"/>
<stop offset="1" stop-color="#1AFB9B"/>
</linearGradient>
<linearGradient id="paint5_linear_207_520" x1="3.49267" y1="9.66936" x2="10.7497" y2="9.18757" gradientUnits="userSpaceOnUse">
<stop offset="0.249499" stop-color="#9946FF"/>
<stop offset="0.567047" stop-color="#726FE7"/>
</linearGradient>
</defs>
</svg>
