<svg width="13" height="9" viewBox="0 0 13 9" fill="none" xmlns="http://www.w3.org/2000/svg">
<path d="M12 1.5024V7.42548C12 7.64989 11.9109 7.86512 11.7522 8.0238C11.5935 8.18249 11.3783 8.27163 11.1538 8.27163H1.84615C1.62174 8.27163 1.40652 8.18249 1.24783 8.0238C1.08915 7.86512 1 7.64989 1 7.42548V1.5024M12 1.5024C12 1.27799 11.9109 1.06277 11.7522 0.904083C11.5935 0.745398 11.3783 0.65625 11.1538 0.65625H1.84615C1.62174 0.65625 1.40652 0.745398 1.24783 0.904083C1.08915 1.06277 1 1.27799 1 1.5024M12 1.5024L6.98146 4.97671C6.83999 5.0746 6.67204 5.12704 6.5 5.12704C6.32796 5.12704 6.16001 5.0746 6.01854 4.97671L1 1.5024" stroke="#564F53" stroke-width="0.846154" stroke-linecap="round" stroke-linejoin="round"/>
</svg>
