<svg width="33" height="4" viewBox="0 0 33 4" fill="none" xmlns="http://www.w3.org/2000/svg">
<g clip-path="url(#clip0_208_833)">
<g clip-path="url(#clip1_208_833)">
<path d="M6.59455 3.70749C6.18657 3.70749 5.8523 3.61137 5.59175 3.41913C5.33462 3.22346 5.20605 2.94539 5.20605 2.58494C5.20605 2.50942 5.21463 2.41673 5.23177 2.30688C5.27634 2.05972 5.33976 1.76277 5.42204 1.41605C5.65517 0.472018 6.25685 0 7.22708 0C7.49107 0 7.72762 0.0446272 7.93675 0.133882C8.14588 0.219703 8.31045 0.350152 8.43044 0.525228C8.55043 0.696871 8.61043 0.902842 8.61043 1.14314C8.61043 1.21523 8.60186 1.3062 8.58472 1.41605C8.53329 1.72158 8.47158 2.01852 8.39958 2.30688C8.27959 2.77718 8.07217 3.12905 7.77733 3.36249C7.48249 3.59249 7.08823 3.70749 6.59455 3.70749ZM6.66654 2.96599C6.85853 2.96599 7.02138 2.90935 7.15509 2.79606C7.29222 2.68278 7.38993 2.50942 7.44821 2.27599C7.52706 1.9533 7.58706 1.6718 7.6282 1.4315C7.64191 1.35941 7.64877 1.28561 7.64877 1.21008C7.64877 0.897693 7.48592 0.741498 7.16023 0.741498C6.96824 0.741498 6.80368 0.79814 6.66654 0.911424C6.53284 1.02471 6.43684 1.19807 6.37856 1.4315C6.31685 1.6615 6.25514 1.943 6.19343 2.27599C6.17971 2.34464 6.17286 2.41673 6.17286 2.49226C6.17286 2.80808 6.33742 2.96599 6.66654 2.96599Z" fill="black" fill-opacity="0.7"/>
<path d="M9.13224 3.656C9.09453 3.656 9.06539 3.64398 9.04482 3.61995C9.02768 3.59249 9.02254 3.56159 9.02939 3.52726L9.73907 0.180225C9.74592 0.142464 9.76478 0.111568 9.79563 0.0875381C9.82649 0.063508 9.85906 0.0514929 9.89334 0.0514929H11.2613C11.6418 0.0514929 11.9469 0.130449 12.1766 0.28836C12.4098 0.446272 12.5263 0.674557 12.5263 0.973216C12.5263 1.05904 12.516 1.14829 12.4955 1.24098C12.4098 1.63576 12.2366 1.92755 11.9761 2.11636C11.719 2.30517 11.3658 2.39957 10.9167 2.39957H10.2225L9.98591 3.52726C9.97905 3.56503 9.9602 3.59592 9.92934 3.61995C9.89848 3.64398 9.86592 3.656 9.83163 3.656H9.13224ZM10.9527 1.68897C11.0967 1.68897 11.2218 1.64949 11.3281 1.57053C11.4378 1.49158 11.5098 1.37829 11.5441 1.23068C11.5544 1.17232 11.5595 1.12083 11.5595 1.0762C11.5595 0.976649 11.5304 0.901126 11.4721 0.849633C11.4138 0.794707 11.3144 0.767244 11.1738 0.767244H10.5567L10.3613 1.68897H10.9527Z" fill="black" fill-opacity="0.7"/>
<path d="M13.685 3.656C13.6473 3.656 13.6182 3.64398 13.5976 3.61995C13.577 3.59249 13.5702 3.56159 13.577 3.52726L14.1479 0.859931H13.2325C13.1948 0.859931 13.1656 0.847917 13.1451 0.823887C13.1279 0.796424 13.1228 0.765528 13.1296 0.731199L13.2479 0.180225C13.2548 0.142464 13.2736 0.111568 13.3045 0.0875381C13.3353 0.063508 13.3679 0.0514929 13.4022 0.0514929H16.1689C16.2066 0.0514929 16.2357 0.063508 16.2563 0.0875381C16.27 0.108135 16.2769 0.128732 16.2769 0.149329C16.2769 0.159628 16.2752 0.169927 16.2717 0.180225L16.1534 0.731199C16.1466 0.768961 16.1277 0.799857 16.0969 0.823887C16.0695 0.847917 16.0369 0.859931 15.9992 0.859931H15.0889L14.5181 3.52726C14.5113 3.56503 14.4924 3.59592 14.4615 3.61995C14.4307 3.64398 14.3981 3.656 14.3638 3.656H13.685Z" fill="black" fill-opacity="0.7"/>
<path d="M16.4081 3.656C16.3703 3.656 16.3412 3.64398 16.3206 3.61995C16.3001 3.59249 16.2932 3.56159 16.3001 3.52726L17.0149 0.180225C17.0217 0.142464 17.0406 0.111568 17.0714 0.0875381C17.1023 0.063508 17.1349 0.0514929 17.1691 0.0514929H17.8634C17.9011 0.0514929 17.9302 0.063508 17.9508 0.0875381C17.9645 0.108135 17.9714 0.128732 17.9714 0.149329C17.9714 0.159628 17.9697 0.169927 17.9662 0.180225L17.2566 3.52726C17.2497 3.56503 17.2309 3.59592 17.2 3.61995C17.1691 3.64398 17.1366 3.656 17.1023 3.656H16.4081Z" fill="black" fill-opacity="0.7"/>
<path d="M18.3662 3.656C18.3285 3.656 18.2994 3.64398 18.2788 3.61995C18.2582 3.59592 18.2514 3.56503 18.2582 3.52726L18.9679 0.180225C18.9747 0.142464 18.9936 0.111568 19.0245 0.0875381C19.0553 0.063508 19.0896 0.0514929 19.1273 0.0514929H19.6827C19.765 0.0514929 19.8181 0.0892544 19.8421 0.164777L20.4027 1.7868L21.6523 0.164777C21.6694 0.137314 21.6934 0.111568 21.7243 0.0875381C21.7586 0.063508 21.7997 0.0514929 21.8477 0.0514929H22.4083C22.446 0.0514929 22.4751 0.063508 22.4957 0.0875381C22.5094 0.108135 22.5163 0.128732 22.5163 0.149329C22.5163 0.159628 22.5145 0.169927 22.5111 0.180225L21.8014 3.52726C21.7946 3.56503 21.7757 3.59592 21.7449 3.61995C21.714 3.64398 21.6814 3.656 21.6472 3.656H21.0249C20.9872 3.656 20.9581 3.64398 20.9375 3.61995C20.9203 3.59249 20.9152 3.56159 20.9221 3.52726L21.3232 1.62718L20.5364 2.67248C20.5021 2.71024 20.4695 2.73942 20.4387 2.76002C20.4078 2.78062 20.3718 2.79092 20.3307 2.79092H20.0633C19.9913 2.79092 19.9415 2.75144 19.9141 2.67248L19.549 1.58083L19.1376 3.52726C19.1307 3.56503 19.1119 3.59592 19.081 3.61995C19.0502 3.64398 19.0176 3.656 18.9833 3.656H18.3662Z" fill="black" fill-opacity="0.7"/>
<path d="M22.9054 3.656C22.8677 3.656 22.8386 3.64398 22.818 3.61995C22.7974 3.59249 22.7906 3.56159 22.7974 3.52726L23.5123 0.180225C23.5191 0.142464 23.538 0.111568 23.5688 0.0875381C23.5997 0.063508 23.6323 0.0514929 23.6665 0.0514929H24.3608C24.3985 0.0514929 24.4276 0.063508 24.4482 0.0875381C24.4619 0.108135 24.4688 0.128732 24.4688 0.149329C24.4688 0.159628 24.4671 0.169927 24.4636 0.180225L23.754 3.52726C23.7471 3.56503 23.7283 3.59592 23.6974 3.61995C23.6665 3.64398 23.634 3.656 23.5997 3.656H22.9054Z" fill="black" fill-opacity="0.7"/>
<path d="M26.1338 3.70749C25.8321 3.70749 25.5733 3.66629 25.3573 3.58391C25.1447 3.50152 24.9836 3.39167 24.8739 3.25435C24.7676 3.11704 24.7145 2.96427 24.7145 2.79606C24.7145 2.7686 24.7179 2.72741 24.7248 2.67248C24.7316 2.64159 24.7453 2.61584 24.7659 2.59524C24.7899 2.57465 24.8173 2.56435 24.8482 2.56435H25.5064C25.5476 2.56435 25.5784 2.57121 25.599 2.58494C25.623 2.59868 25.647 2.62271 25.671 2.65703C25.695 2.74629 25.7498 2.82009 25.8355 2.87845C25.9247 2.93681 26.0464 2.96599 26.2007 2.96599C26.3961 2.96599 26.5538 2.9351 26.6738 2.8733C26.7938 2.81151 26.8658 2.72741 26.8898 2.62099C26.8932 2.60726 26.8949 2.58666 26.8949 2.5592C26.8949 2.47338 26.8418 2.40643 26.7355 2.35837C26.6292 2.30688 26.4338 2.24681 26.1492 2.17815C25.8167 2.10606 25.5647 1.99792 25.3933 1.85374C25.2219 1.70613 25.1362 1.51389 25.1362 1.27702C25.1362 1.19464 25.1464 1.11053 25.167 1.02471C25.2356 0.705453 25.4053 0.454854 25.6761 0.272913C25.9504 0.0909708 26.3035 0 26.7355 0C26.996 0 27.2275 0.0463436 27.4297 0.139031C27.632 0.231718 27.788 0.350152 27.8977 0.494332C28.0108 0.635079 28.0674 0.775826 28.0674 0.916574C28.0674 0.957768 28.0657 0.986947 28.0623 1.00411C28.0554 1.03501 28.04 1.06075 28.016 1.08135C27.9954 1.10195 27.9697 1.11225 27.9389 1.11225H27.2497C27.1743 1.11225 27.1229 1.08307 27.0955 1.02471C27.092 0.945753 27.0509 0.878812 26.972 0.823887C26.8932 0.768961 26.7903 0.741498 26.6635 0.741498C26.5126 0.741498 26.3875 0.768961 26.2881 0.823887C26.1921 0.878812 26.1321 0.959484 26.1081 1.0659C26.1047 1.08307 26.103 1.10538 26.103 1.13284C26.103 1.21523 26.151 1.28389 26.2469 1.33882C26.3464 1.39031 26.5195 1.44352 26.7663 1.49844C27.1503 1.57397 27.4297 1.6821 27.6046 1.82285C27.7829 1.9636 27.872 2.15069 27.872 2.38412C27.872 2.46308 27.8617 2.5489 27.8411 2.64159C27.7657 2.99174 27.5823 3.25778 27.2909 3.43973C27.0029 3.61823 26.6172 3.70749 26.1338 3.70749Z" fill="black" fill-opacity="0.7"/>
<path d="M28.5542 3.656C28.5165 3.656 28.4874 3.64398 28.4668 3.61995C28.4462 3.59592 28.4394 3.56503 28.4462 3.52726L29.1559 0.180225C29.1628 0.142464 29.1816 0.111568 29.2125 0.0875381C29.2433 0.063508 29.2776 0.0514929 29.3153 0.0514929H29.8707C29.953 0.0514929 30.0061 0.0892544 30.0301 0.164777L30.5907 1.7868L31.8403 0.164777C31.8575 0.137314 31.8815 0.111568 31.9123 0.0875381C31.9466 0.063508 31.9877 0.0514929 32.0357 0.0514929H32.5963C32.634 0.0514929 32.6631 0.063508 32.6837 0.0875381C32.6974 0.108135 32.7043 0.128732 32.7043 0.149329C32.7043 0.159628 32.7026 0.169927 32.6991 0.180225L31.9895 3.52726C31.9826 3.56503 31.9638 3.59592 31.9329 3.61995C31.902 3.64398 31.8695 3.656 31.8352 3.656H31.2129C31.1752 3.656 31.1461 3.64398 31.1255 3.61995C31.1084 3.59249 31.1032 3.56159 31.1101 3.52726L31.5112 1.62718L30.7244 2.67248C30.6901 2.71024 30.6575 2.73942 30.6267 2.76002C30.5958 2.78062 30.5598 2.79092 30.5187 2.79092H30.2513C30.1793 2.79092 30.1296 2.75144 30.1021 2.67248L29.737 1.58083L29.3256 3.52726C29.3188 3.56503 29.2999 3.59592 29.269 3.61995C29.2382 3.64398 29.2056 3.656 29.1713 3.656H28.5542Z" fill="black" fill-opacity="0.7"/>
</g>
</g>
<g clip-path="url(#clip2_208_833)">
<circle cx="1.85374" cy="1.85374" r="1.85374" fill="black" fill-opacity="0.7"/>
<path d="M1.3134 2.34551C1.20302 2.34551 1.11259 2.31954 1.04209 2.26759C0.972527 2.21472 0.937744 2.13959 0.937744 2.0422C0.937744 2.02179 0.940063 1.99675 0.944701 1.96707C0.956759 1.90028 0.973919 1.82005 0.99618 1.72637C1.05925 1.47129 1.22204 1.34375 1.48454 1.34375C1.55596 1.34375 1.61996 1.35581 1.67654 1.37992C1.73312 1.40311 1.77764 1.43836 1.81011 1.48567C1.84257 1.53204 1.85881 1.5877 1.85881 1.65263C1.85881 1.6721 1.85649 1.69668 1.85185 1.72637C1.83794 1.80892 1.82124 1.88915 1.80176 1.96707C1.7693 2.09414 1.71318 2.18922 1.63341 2.25229C1.55364 2.31444 1.44697 2.34551 1.3134 2.34551ZM1.33288 2.14516C1.38483 2.14516 1.42888 2.12985 1.46506 2.09924C1.50216 2.06863 1.5286 2.02179 1.54436 1.95872C1.5657 1.87153 1.58193 1.79547 1.59306 1.73054C1.59677 1.71106 1.59863 1.69112 1.59863 1.67071C1.59863 1.58631 1.55457 1.5441 1.46645 1.5441C1.41451 1.5441 1.36998 1.55941 1.33288 1.59002C1.29671 1.62062 1.27074 1.66747 1.25497 1.73054C1.23827 1.79269 1.22158 1.86875 1.20488 1.95872C1.20117 1.97727 1.19931 1.99675 1.19931 2.01715C1.19931 2.10249 1.24384 2.14516 1.33288 2.14516Z" fill="white"/>
<path d="M1.92269 2.3316C1.91248 2.3316 1.9046 2.32835 1.89903 2.32186C1.8944 2.31444 1.89301 2.30609 1.89486 2.29681L2.08686 1.39245C2.08872 1.38224 2.09382 1.3739 2.10217 1.3674C2.11052 1.36091 2.11933 1.35766 2.1286 1.35766H2.4987C2.60166 1.35766 2.68421 1.379 2.74636 1.42166C2.80943 1.46433 2.84097 1.52601 2.84097 1.60671C2.84097 1.6299 2.83818 1.65402 2.83262 1.67906C2.80943 1.78573 2.76259 1.86457 2.69209 1.91559C2.62253 1.9666 2.52699 1.99211 2.40548 1.99211H2.21765L2.15365 2.29681C2.15179 2.30702 2.14669 2.31536 2.13834 2.32186C2.13 2.32835 2.12118 2.3316 2.11191 2.3316H1.92269ZM2.41522 1.80011C2.45418 1.80011 2.48803 1.78944 2.51679 1.76811C2.54647 1.74677 2.56595 1.71616 2.57522 1.67628C2.578 1.66051 2.5794 1.6466 2.5794 1.63454C2.5794 1.60764 2.57151 1.58723 2.55574 1.57332C2.53997 1.55848 2.51308 1.55106 2.47505 1.55106H2.30809L2.25522 1.80011H2.41522Z" fill="white"/>
</g>
<defs>
<clipPath id="clip0_208_833">
<rect width="27.5106" height="3.70749" fill="white" transform="translate(5.20605)"/>
</clipPath>
<clipPath id="clip1_208_833">
<rect width="27.5106" height="3.70749" fill="white" transform="translate(5.20605)"/>
</clipPath>
<clipPath id="clip2_208_833">
<rect width="3.70749" height="3.70749" fill="white"/>
</clipPath>
</defs>
</svg>
