<svg width="41" height="7" viewBox="0 0 41 7" fill="none" xmlns="http://www.w3.org/2000/svg">
<path d="M13.0775 0.590109H10.8108V1.15678H12.475C12.8102 1.15678 13.0775 1.42815 13.0775 1.75937V2.25422C13.0775 2.58943 12.8102 2.85679 12.475 2.85679H10.2441V2.29013H12.5109V1.72346H10.8467C10.5115 1.72346 10.2441 1.45209 10.2441 1.12087V0.626026C10.2441 0.290811 10.5115 0.0234375 10.8467 0.0234375H13.0775V0.590109Z" fill="black" fill-opacity="0.7"/>
<path d="M15.8052 0.0234375C16.1404 0.0234375 16.4118 0.290811 16.4118 0.626026V2.25422C16.4118 2.58943 16.1404 2.85679 15.8052 2.85679H14.0614C13.7262 2.85679 13.4587 2.58943 13.4587 2.25422V0.626026C13.4587 0.290811 13.7262 0.0234375 14.0614 0.0234375H15.8052ZM15.8412 0.590109H14.0254V2.29013H15.8412V0.590109Z" fill="black" fill-opacity="0.7"/>
<path d="M17.425 2.27067H19.6358V2.88125H17.2056C16.99 2.88125 16.8145 2.70566 16.8145 2.49016V0H17.425V2.27067Z" fill="black" fill-opacity="0.7"/>
<path d="M22.4988 0.0234375C22.7702 0.0234375 22.9897 0.238932 22.9897 0.510297V2.85679H22.4191V1.92698H20.6033V2.85679H20.0366V0.510297C20.0366 0.238932 20.2521 0.0234375 20.5234 0.0234375H22.4988ZM22.4191 0.590109H20.6033V1.36031H22.4191V0.590109Z" fill="black" fill-opacity="0.7"/>
<path d="M25.7748 0.0234375H26.3454V2.48966C26.3454 2.69318 26.1777 2.85679 25.9743 2.85679H25.5353C25.3956 2.86079 25.2719 2.78496 25.2081 2.66126L24.1067 0.590109H23.959V2.85679H23.3923V0.394568C23.3923 0.187054 23.5559 0.0234375 23.7594 0.0234375H24.2224C24.3581 0.0234375 24.4857 0.095269 24.5495 0.21898L25.6511 2.29013H25.7748V0.0234375Z" fill="black" fill-opacity="0.7"/>
<path d="M29.1946 0.0234375C29.466 0.0234375 29.6855 0.238932 29.6855 0.510297V2.85679H29.1147V1.92698H27.299V2.85679H26.7324V0.510297C26.7324 0.238932 26.9479 0.0234375 27.2192 0.0234375H29.1946ZM29.1147 0.590109H27.299V1.36031H29.1147V0.590109Z" fill="black" fill-opacity="0.7"/>
<path d="M13.0216 4.32448H10.8108V4.89115H13.0216V5.45783H10.8108V6.59116H10.2441V3.75781H13.0216V4.32448Z" fill="black" fill-opacity="0.7"/>
<path d="M15.7581 3.75781C16.0933 3.75781 16.3647 4.02518 16.3647 4.36039V5.98859C16.3647 6.3238 16.0933 6.59116 15.7581 6.59116H14.0141C13.6789 6.59116 13.4116 6.3238 13.4116 5.98859V4.36039C13.4116 4.02518 13.6789 3.75781 14.0141 3.75781H15.7581ZM15.7939 4.32448H13.9782V6.0245H15.7939V4.32448Z" fill="black" fill-opacity="0.7"/>
<path d="M19.1498 3.75781H19.7205V5.64139C19.7165 6.16816 19.2935 6.59116 18.7667 6.59116H17.7171C17.1904 6.59116 16.7673 6.16816 16.7673 5.64139V3.75781H17.334V5.52567C17.334 5.80102 17.5575 6.0245 17.8329 6.0245H18.651C18.9263 6.0245 19.1498 5.80102 19.1498 5.52567V3.75781Z" fill="black" fill-opacity="0.7"/>
<path d="M22.4977 3.75781H23.0683V6.22403C23.0683 6.42755 22.9008 6.59116 22.6972 6.59116H22.2583C22.1185 6.59516 21.9948 6.51933 21.931 6.39563L20.8296 4.32448H20.6819V6.59116H20.1152V4.12894C20.1152 3.92142 20.2789 3.75781 20.4824 3.75781H20.9454C21.0809 3.75781 21.2087 3.82964 21.2726 3.95335L22.374 6.0245H22.4977V3.75781Z" fill="black" fill-opacity="0.7"/>
<path d="M25.47 3.75781C25.9968 3.75781 26.4198 4.1848 26.4238 4.70758V5.64139C26.4198 6.16816 25.9968 6.59116 25.47 6.59116H23.4707V3.75781H25.47ZM25.8531 4.8273C25.8531 4.54795 25.6297 4.32448 25.3543 4.32448H24.0374V6.0245H25.3543C25.6297 6.0245 25.8531 5.80102 25.8531 5.52567V4.8273Z" fill="black" fill-opacity="0.7"/>
<path d="M29.2808 3.75781C29.5522 3.75781 29.7717 3.9733 29.7717 4.24467V6.59116H29.201V5.66135H27.3853V6.59116H26.8186V4.24467C26.8186 3.9733 27.034 3.75781 27.3054 3.75781H29.2808ZM29.201 4.32448H27.3853V5.09468H29.201V4.32448Z" fill="black" fill-opacity="0.7"/>
<path d="M30.1743 3.75781H33.0076V4.32448H31.8744V6.59116H31.3077V4.32448H30.1743V3.75781Z" fill="black" fill-opacity="0.7"/>
<path d="M33.979 6.59116H33.4124V3.75781H33.979V6.59116Z" fill="black" fill-opacity="0.7"/>
<path d="M36.7154 3.75781C37.0506 3.75781 37.322 4.02518 37.322 4.36039V5.98859C37.322 6.3238 37.0506 6.59116 36.7154 6.59116H34.9714C34.6362 6.59116 34.3689 6.3238 34.3689 5.98859V4.36039C34.3689 4.02518 34.6362 3.75781 34.9714 3.75781H36.7154ZM36.7513 4.32448H34.9356V6.0245H36.7513V4.32448Z" fill="black" fill-opacity="0.7"/>
<path d="M40.0989 3.75781H40.6696V6.22403C40.6696 6.42755 40.502 6.59116 40.2985 6.59116H39.8595C39.7198 6.59516 39.5961 6.51933 39.5323 6.39563L38.4308 4.32448H38.2831V6.59116H37.7166V4.12894C37.7166 3.92142 37.8801 3.75781 38.0836 3.75781H38.5466C38.6823 3.75781 38.8099 3.82964 38.8738 3.95335L39.9752 6.0245H40.0989V3.75781Z" fill="black" fill-opacity="0.7"/>
<mask id="mask0_208_832" style="mask-type:luminance" maskUnits="userSpaceOnUse" x="0" y="0" width="8" height="7">
<path d="M7.3264 0.101562H0V6.66581H7.3264V0.101562Z" fill="white"/>
</mask>
<g mask="url(#mask0_208_832)">
<path d="M7.28864 5.277L6.07922 6.57642C6.05293 6.60464 6.02112 6.62714 5.98577 6.64253C5.95042 6.65791 5.91229 6.66584 5.87375 6.66581H0.140407C0.11305 6.66581 0.0862899 6.6578 0.0634133 6.64278C0.0405366 6.62775 0.0225406 6.60635 0.0116364 6.58122C0.00073208 6.55608 -0.00260545 6.52831 0.00203385 6.5013C0.00667314 6.47429 0.0190871 6.44923 0.0377506 6.42919L1.2481 5.12978C1.27432 5.10163 1.30603 5.07917 1.34127 5.0638C1.37651 5.04842 1.41451 5.04044 1.45295 5.04038H7.18598C7.21334 5.04039 7.2401 5.04839 7.26298 5.06342C7.28586 5.07845 7.30385 5.09985 7.31476 5.12497C7.32566 5.15011 7.32899 5.17789 7.32436 5.2049C7.31972 5.2319 7.3073 5.25697 7.28864 5.277ZM6.07922 2.66037C6.05293 2.63214 6.02112 2.60963 5.98577 2.59426C5.95042 2.57888 5.91229 2.57095 5.87375 2.57097H0.140407C0.11305 2.57097 0.0862899 2.57898 0.0634133 2.59401C0.0405366 2.60904 0.0225406 2.63043 0.0116364 2.65557C0.00073208 2.6807 -0.00260545 2.70848 0.00203385 2.73549C0.00667314 2.7625 0.0190871 2.78756 0.0377506 2.8076L1.2481 4.107C1.27432 4.13516 1.30603 4.15762 1.34127 4.17299C1.37651 4.18837 1.41451 4.19635 1.45295 4.1964H7.18598C7.21334 4.1964 7.2401 4.1884 7.26298 4.17337C7.28586 4.15834 7.30385 4.13694 7.31476 4.11181C7.32566 4.08668 7.32899 4.0589 7.32436 4.03189C7.31972 4.00488 7.3073 3.97982 7.28864 3.95978L6.07922 2.66037ZM0.140407 1.727H5.87375C5.91229 1.72701 5.95042 1.71909 5.98577 1.7037C6.02112 1.68833 6.05293 1.66582 6.07922 1.6376L7.28864 0.338188C7.3073 0.318151 7.31972 0.293088 7.32436 0.266079C7.32899 0.23907 7.32566 0.211292 7.31476 0.186158C7.30385 0.161023 7.28586 0.139627 7.26298 0.124598C7.2401 0.10957 7.21334 0.101564 7.18598 0.101562H1.45295C1.41451 0.101628 1.37651 0.109596 1.34127 0.124973C1.30603 0.14035 1.27432 0.16281 1.2481 0.190961L0.0380626 1.49037C0.0194171 1.51039 0.00700866 1.53543 0.00235884 1.56241C-0.00229098 1.58938 0.00102007 1.61713 0.0118859 1.64226C0.0227517 1.66738 0.0406999 1.68878 0.0635295 1.70383C0.086359 1.71889 0.113077 1.72693 0.140407 1.727Z" fill="black" fill-opacity="0.7"/>
</g>
</svg>
