<svg width="207" height="207" viewBox="0 0 207 207" fill="none" xmlns="http://www.w3.org/2000/svg">
<path fill-rule="evenodd" clip-rule="evenodd" d="M57.275 2.52589C55.0446 4.98771 55.0483 5.16514 57.3835 9.49859C60.0947 14.5307 74.8872 30.7629 80.2207 34.5579L83.7419 37.0629L88.8363 33.6942L93.9307 30.3243L90.4256 27.8378C88.4973 26.4701 83.5915 22.1527 79.5229 18.2431L72.1254 11.1361L103.565 11.1657L135.004 11.1953L126.462 19.2251C118.444 26.7621 109.764 32.9376 92.8692 43.125C84.4546 48.8489 57.0161 74.9439 49.0909 85.7904L43.5749 93.3398L39.3571 87.1076C33.3466 78.2287 17.6639 62.5608 10.8533 58.6315C6.14237 55.9122 4.59137 55.5413 2.53117 56.6428C0.0493165 57.9711 0 58.8705 0 102.84C0 141.961 0.246583 147.929 1.93691 149.618C3.00338 150.682 4.60616 151.554 5.50003 151.554C8.29751 151.554 21.2357 141.244 29.3248 132.571L37.0749 124.263L34.3675 119.733C30.3001 112.928 30.2335 112.912 26.7505 117.935C24.9702 120.504 20.7191 125.355 17.3039 128.716L11.0962 134.827V104.275C11.0962 80.3862 11.4328 73.8337 12.6374 74.228C15.6309 75.2075 30.9412 94.1148 37.2266 104.592C40.7293 110.43 46.0012 118.365 48.943 122.225C55.8349 131.269 72.1316 147.284 83.5533 156.234L92.5154 163.259L88.5466 166.339C76.5171 175.675 68.5894 183.222 63.0006 190.657C56.3182 199.549 55.5797 201.994 58.6509 205.064C60.3388 206.75 66.1544 207 103.734 207C131.117 207 147.75 206.534 149.264 205.725C154.652 202.843 150.745 194.878 137.003 180.729C126.162 169.569 125.566 169.293 119.561 172.666C116.865 174.179 114.665 175.732 114.67 176.115C114.674 176.498 116.477 178.038 118.677 179.537C120.876 181.035 125.708 185.332 129.414 189.086L136.153 195.911H105.036H73.9181L75.8759 192.924C78.9755 188.198 94.07 176.166 105.641 169.199C111.471 165.689 120.484 159.477 125.67 155.394C134.729 148.264 153.63 128.127 159.85 118.977C161.491 116.563 163.015 114.589 163.236 114.589C163.457 114.589 166.485 118.415 169.964 123.092C177.177 132.784 191.136 146.16 197.758 149.725C201.204 151.579 202.728 151.823 204.374 150.786C206.329 149.553 206.541 145.597 206.85 104.598C207.185 60.1064 207.166 59.7417 204.554 57.6014C202.03 55.5327 201.718 55.5573 197.021 58.1966C191.098 61.5234 179.121 72.1949 173.861 78.8325L170.029 83.6674L173.361 88.7007L176.695 93.734L180.502 89.0679C187.083 81.0048 193.839 73.9286 194.957 73.9286C195.549 73.9286 196.01 87.6509 195.98 104.424L195.927 134.92L187.892 126.383C180.5 118.528 176.639 113.14 163.608 92.4883C157.238 82.3959 134.047 57.4487 124.048 49.9338C119.563 46.5627 115.894 43.4491 115.894 43.0129C115.894 42.5767 118.032 40.8061 120.645 39.0774C131.918 31.6229 151.648 10.2514 151.648 5.49659C151.648 4.60329 150.777 3.0015 149.711 1.9357C148.022 0.247661 142.12 0 103.668 0C60.7678 0 59.4992 0.0689998 57.275 2.52589ZM119.038 65.8839C129.398 70.932 139.44 81.3042 142.94 90.5711C149.76 108.629 140.154 130.319 120.521 141.19C114.883 144.312 112.321 145.928 103.734 145.928C94.8382 145.928 93.5535 144.363 86.5185 140.551C72.4164 132.91 62.8773 118.004 62.8798 103.611C62.881 88.2325 72.5939 73.5799 87.8857 65.8839C95.7678 61.9176 97.6356 61.458 104.243 61.8573C109.248 62.1604 114.114 63.4837 119.038 65.8839Z" fill="#1FCFCF"/>
</svg>