<svg width="26" height="39" viewBox="0 0 26 39" fill="none" xmlns="http://www.w3.org/2000/svg">
<g clip-path="url(#clip0_1266_14017)">
<path d="M23.904 38.0259C23.5314 38.0251 23.1742 37.8726 22.9108 37.6018C22.6472 37.331 22.4988 36.9639 22.498 36.581V32.3718C22.498 31.9887 22.3499 31.6211 22.0862 31.3502C21.8226 31.0792 21.4649 30.9269 21.092 30.9269C20.7191 30.9269 20.3615 31.0792 20.0979 31.3502C19.8341 31.6211 19.6861 31.9887 19.6861 32.3718V34.3699C19.6861 34.7532 19.5379 35.1207 19.2742 35.3917C19.0106 35.6626 18.653 35.8149 18.2801 35.8149C17.9072 35.8149 17.5495 35.6626 17.2859 35.3917C17.0222 35.1207 16.8741 34.7532 16.8741 34.3699V32.3718C16.8741 31.9887 16.7259 31.6211 16.4623 31.3502C16.1986 31.0792 15.841 30.9269 15.4681 30.9269C15.0952 30.9269 14.7376 31.0792 14.4738 31.3502C14.2102 31.6211 14.0621 31.9887 14.0621 32.3718V32.9156C14.0621 33.2991 13.9138 33.6669 13.65 33.9381C13.3861 34.2093 13.0281 34.3617 12.655 34.3617C12.2818 34.3617 11.924 34.2093 11.6601 33.9381C11.3962 33.6669 11.248 33.2991 11.248 32.9156V32.3718C11.248 31.9887 11.0998 31.6211 10.8361 31.3502C10.5725 31.0792 10.2149 30.9269 9.84197 30.9269C9.46908 30.9269 9.11148 31.0792 8.84775 31.3502C8.58411 31.6211 8.43596 31.9887 8.43596 32.3718V34.3699C8.43596 34.7532 8.28782 35.1207 8.02418 35.3917C7.76047 35.6626 7.40286 35.8149 7.02997 35.8149C6.65707 35.8149 6.29946 35.6626 6.03578 35.3917C5.7721 35.1207 5.62397 34.7532 5.62397 34.3699V32.3718C5.62397 31.9887 5.47584 31.6211 5.21217 31.3502C4.94849 31.0792 4.59087 30.9269 4.21798 30.9269C3.84508 30.9269 3.48747 31.0792 3.2238 31.3502C2.96012 31.6211 2.81198 31.9887 2.81198 32.3718V36.581C2.81198 36.9642 2.66386 37.3317 2.40018 37.6027C2.13651 37.8736 1.77888 38.0259 1.40599 38.0259C1.0331 38.0259 0.675481 37.8736 0.411806 37.6027C0.148131 37.3317 0 36.9642 0 36.581V12.7239C0.0678528 9.76311 1.11507 6.91442 2.96912 4.64717C4.82316 2.37992 7.37343 0.829353 10.1997 0.250951C13.026 -0.327453 15.9597 0.100808 18.5175 1.46518C21.0752 2.82954 23.1045 5.04862 24.2708 7.75678C24.9464 9.3229 25.3131 11.0112 25.3497 12.7239C25.3521 12.7416 25.3495 12.7597 25.3422 12.7761C25.3349 12.7923 25.3232 12.8062 25.3085 12.8159V36.58C25.3081 36.9629 25.1601 37.3302 24.8969 37.6011C24.6336 37.8722 24.2766 38.0249 23.904 38.0259ZM11.2324 16.5152C10.8753 16.5152 10.7305 16.6571 10.7305 17.008C10.7305 17.8608 11.6474 18.5544 12.7762 18.5544C13.905 18.5544 14.8188 17.8608 14.8188 17.008C14.8188 16.6578 14.674 16.5158 14.3179 16.5158C14.1274 16.5227 13.9376 16.5426 13.7497 16.5752L13.7319 16.5783C13.416 16.6316 13.0967 16.6615 12.7765 16.6678C12.4555 16.6615 12.1354 16.6316 11.8186 16.5783C11.6248 16.5434 11.4289 16.5224 11.2324 16.5152ZM17.3527 9.49442C16.1081 9.49442 15.0964 10.6853 15.0964 12.1497C15.0964 13.614 16.1081 14.8027 17.3527 14.8027C18.5973 14.8027 19.6054 13.6125 19.6054 12.1497C19.6054 10.6868 18.5951 9.49442 17.3527 9.49442ZM7.99827 9.49442C6.75672 9.49442 5.74563 10.6853 5.74563 12.1497C5.74563 13.614 6.75672 14.8027 7.99827 14.8027C9.23982 14.8027 10.2515 13.6125 10.2515 12.1497C10.2515 10.6868 9.24077 9.49442 7.99827 9.49442Z" fill="white"/>
</g>
<defs>
<clipPath id="clip0_1266_14017">
<rect width="25.3506" height="38.0259" fill="white"/>
</clipPath>
</defs>
</svg>
