<svg width="200" height="45" viewBox="0 0 200 45" fill="none" xmlns="http://www.w3.org/2000/svg">
<mask id="mask0_1604_13231" style="mask-type:luminance" maskUnits="userSpaceOnUse" x="0" y="0" width="200" height="45">
<path d="M199.386 0H0V44.4911H199.386V0Z" fill="white"/>
</mask>
<g mask="url(#mask0_1604_13231)">
<path fill-rule="evenodd" clip-rule="evenodd" d="M195.727 25.3069C195.727 22.7052 194.195 20.7464 191.776 20.7464C189.357 20.7464 187.823 22.7052 187.823 25.3069C187.823 27.9085 189.357 29.8673 191.776 29.8673C194.2 29.8722 195.727 27.9134 195.727 25.3069ZM195.609 19.0006V12.1847C195.609 11.7346 195.91 11.3439 196.345 11.2301L199.96 10.2656V33.3295H195.95V31.3709C194.941 32.8398 193.13 33.7004 190.865 33.7004C186.211 33.7004 183.486 29.9661 183.486 25.3119C183.486 20.6574 186.211 16.9232 190.865 16.9232C193.125 16.9182 194.783 17.8975 195.609 19.0006ZM170.933 17.2842V19.243C171.669 17.8629 173.322 16.9133 175.71 16.9133C179.569 16.9133 181.62 19.4852 181.62 23.3136V33.3295H177.273V23.8082C177.273 21.9385 176.477 20.6525 174.548 20.6525C172.435 20.6525 171.274 21.9979 171.274 24.1445V33.3295H166.927V17.2842H170.933ZM156.762 33.7004C152.078 33.7004 149.471 31.6775 149.471 26.4741V17.2842H153.819V26.5336C153.819 28.7691 154.828 29.8078 156.757 29.8078C158.686 29.8078 159.695 28.7642 159.695 26.5336V17.2842H164.042V26.4691C164.052 31.6776 161.446 33.7004 156.762 33.7004ZM135.117 25.3069C135.117 28.1855 136.893 29.8673 139.188 29.8673C141.483 29.8673 143.259 28.1805 143.259 25.3069C143.259 22.4331 141.483 20.7464 139.188 20.7464C136.898 20.7464 135.117 22.4282 135.117 25.3069ZM139.193 33.7004C134.049 33.7004 130.77 29.8722 130.77 25.3119C130.77 20.7515 134.044 16.9232 139.193 16.9232C144.337 16.9232 147.616 20.7515 147.616 25.3119C147.611 29.8722 144.337 33.7004 139.193 33.7004ZM117.519 25.3069C117.519 27.9085 119.052 29.8673 121.471 29.8673C123.89 29.8673 125.423 27.9085 125.423 25.3069C125.423 22.7052 123.89 20.7464 121.471 20.7464C119.052 20.7464 117.519 22.7052 117.519 25.3069ZM117.643 31.6181V38.2904C117.643 38.7406 117.341 39.1313 116.906 39.245L113.295 40.1948V17.2842H117.306V19.243C118.315 17.7739 120.126 16.9133 122.391 16.9133C127.045 16.9133 129.771 20.6476 129.771 25.302C129.771 29.9562 127.045 33.6905 122.391 33.6905C120.121 33.7004 118.469 32.7211 117.643 31.6181ZM100.381 24.2039V33.3295H96.033V23.8082C96.033 22.0325 95.39 20.6525 93.4609 20.6525C91.4381 20.6525 90.335 21.9683 90.335 24.1149V33.3344H85.9874V17.2842H89.9987V19.243C90.7356 17.8629 92.3284 16.9133 94.6233 16.9133C96.7996 16.9133 98.3577 17.769 99.2777 19.1785C100.687 17.6156 102.31 16.9133 104.605 16.9133C108.463 16.9133 110.421 19.5793 110.421 23.3136V33.3295H106.074V23.8082C106.074 22.0325 105.431 20.6525 103.502 20.6525C101.449 20.6525 100.381 21.9683 100.381 24.2039ZM71.4803 25.3069C71.4803 28.1855 73.256 29.8673 75.5509 29.8673C77.846 29.8673 79.6217 28.1805 79.6217 25.3069C79.6217 22.4331 77.846 20.7464 75.5509 20.7464C73.256 20.7464 71.4803 22.4282 71.4803 25.3069ZM75.5509 33.7004C70.407 33.7004 67.1278 29.8722 67.1278 25.3119C67.1278 20.7515 70.402 16.9232 75.5509 16.9232C80.6999 16.9232 83.9743 20.7515 83.9743 25.3119C83.9743 29.8722 80.6949 33.7004 75.5509 33.7004ZM44.5684 22.4282C44.5684 15.6322 49.2524 11.1263 55.4993 11.1263C60.9203 11.1263 65.2086 14.3413 66.0346 19.6386H61.2566C60.6137 16.9133 58.4077 15.3799 55.4993 15.3799C51.5177 15.3799 49.2821 18.135 49.2821 22.4232C49.2821 26.7115 51.5177 29.4665 55.4993 29.4665C58.4077 29.4665 60.6137 27.9332 61.2566 25.2079H66.0346C65.2086 30.5053 60.9203 33.7202 55.4993 33.7202C49.2524 33.7301 44.5684 29.2291 44.5684 22.4282Z" fill="white"/>
<path fill-rule="evenodd" clip-rule="evenodd" d="M1.78556 34.6747C0.677621 33.9969 0 32.7902 0 31.4942V24.258C0 23.981 0.0741922 23.7141 0.212684 23.4766C0.642998 22.7346 1.5976 22.4825 2.33952 22.9177L18.6718 32.4389C19.6263 32.9979 20.2149 34.0169 20.2149 35.1247V42.6231C20.2149 42.9644 20.1208 43.3056 19.9429 43.5975C19.4037 44.4779 18.2562 44.7549 17.3757 44.2157L1.78556 34.6747ZM26.1304 20.9342C27.085 21.4931 27.6736 22.5122 27.6736 23.62V38.8343C27.6736 39.2845 27.4312 39.6999 27.0405 39.9176L23.4644 41.9307C23.4199 41.9554 23.3705 41.9752 23.3211 41.99V33.542C23.3211 32.4488 22.7473 31.4349 21.8075 30.871L7.46372 22.2895V12.7534C7.46372 12.4764 7.53793 12.2093 7.67641 11.9719C8.10672 11.2299 9.06133 10.9777 9.80325 11.4129L26.1304 20.9342ZM33.2777 9.69665C34.2372 10.2506 34.8258 11.2794 34.8258 12.3874V34.6104C34.8258 35.0654 34.5735 35.4858 34.1729 35.7034L30.7847 37.5335V22.062C30.7847 20.969 30.2111 19.9598 29.2763 19.396L14.6158 10.6018V1.5553C14.6158 1.27832 14.69 1.01122 14.8236 0.773808C15.2539 0.031888 16.2085 -0.220365 16.9504 0.20995L33.2777 9.69665Z" fill="#00D395"/>
</g>
</svg>
