<svg width="177" height="49" viewBox="0 0 177 49" fill="none" xmlns="http://www.w3.org/2000/svg">
<path d="M2.28906 12.3281H30.6897" stroke="#FFFEFB" stroke-width="3.47763" stroke-linecap="square"/>
<path d="M7.2168 24.5H25.909" stroke="#FFFEFB" stroke-width="3.47763" stroke-linecap="square"/>
<path d="M2.28906 36.6719H30.6897" stroke="#FFFEFB" stroke-width="3.47763" stroke-linecap="square"/>
<path d="M37.3018 10.6978H41.5811L48.9169 20.9626L56.2523 10.6978H60.5316L51.0561 23.8662L61.7287 38.4103H57.3985L48.9169 26.7701L40.5622 38.4103H36.3086L46.8028 23.8662L37.3018 10.6978ZM91.0477 10.6978V38.4103H87.5328V33.6469C86.0384 35.464 84.3573 36.8311 82.4895 37.7481C80.6386 38.6649 78.6094 39.1234 76.4019 39.1234C72.4792 39.1234 69.1257 37.7054 66.3409 34.8696C63.573 32.0168 62.1891 28.5528 62.1891 24.4776C62.1891 20.4872 63.5901 17.0741 66.392 14.2383C69.1937 11.4025 72.564 9.98463 76.5037 9.98463C78.7793 9.98463 80.8339 10.4686 82.6679 11.4365C84.5185 12.4044 86.1402 13.8562 87.5328 15.792V10.6978H91.0477ZM76.784 13.4232C74.7974 13.4232 72.9632 13.9156 71.2822 14.9005C69.6013 15.8684 68.2598 17.2354 67.2579 19.0013C66.2728 20.7674 65.7805 22.6351 65.7805 24.6049C65.7805 26.5579 66.2816 28.4257 67.2833 30.2084C68.2851 31.9917 69.6266 33.3839 71.3078 34.3857C73.0058 35.3707 74.8225 35.8632 76.7585 35.8632C78.7111 35.8632 80.5622 35.3707 82.3111 34.3857C84.0601 33.401 85.4016 32.0679 86.3356 30.3868C87.2864 28.7058 87.762 26.8123 87.762 24.7068C87.762 21.4975 86.7006 18.8145 84.5783 16.658C82.4724 14.5015 79.8744 13.4232 76.784 13.4232ZM123.907 16.4542L121.08 18.2117C118.635 14.9684 115.298 13.3468 111.07 13.3468C107.691 13.3468 104.88 14.4335 102.639 16.607C100.414 18.7806 99.3022 21.4211 99.3022 24.5284C99.3022 26.5491 99.8116 28.4512 100.831 30.2339C101.866 32.0168 103.276 33.401 105.059 34.3857C106.859 35.3707 108.871 35.8632 111.095 35.8632C115.171 35.8632 118.499 34.2414 121.08 30.9983L123.907 32.8576C122.583 34.8442 120.8 36.3895 118.558 37.4933C116.334 38.58 113.795 39.1234 110.942 39.1234C106.562 39.1234 102.928 37.731 100.041 34.9462C97.1541 32.1614 95.711 28.7736 95.711 24.7832C95.711 22.1002 96.3815 19.6127 97.723 17.3203C99.0816 15.0109 100.941 13.2109 103.301 11.9204C105.662 10.6299 108.302 9.98463 111.223 9.98463C113.057 9.98463 114.823 10.2648 116.521 10.8252C118.236 11.3855 119.687 12.1157 120.876 13.0156C122.065 13.9156 123.075 15.0618 123.907 16.4542ZM131.805 0.40755H135.397V10.6978H141.051V13.7543H135.397V38.4103H131.805V13.7543H126.94V10.6978H131.805V0.40755ZM143.753 0H147.319V38.4103H143.753V0ZM149.664 10.6978H153.434L162.96 32.0424L172.206 10.6978H176.001L159.471 48.5475H155.701L161.05 36.3215L149.664 10.6978Z" fill="#FFFEFB"/>
<path d="M26.3457 22.0312V26.958" stroke="#FFFEFB" stroke-width="2.89804"/>
<path d="M30.9805 33.7734V37.2511" stroke="#FFFEFB" stroke-width="2.89804"/>
<path d="M30.9805 11.7422V15.2198" stroke="#FFFEFB" stroke-width="2.89804"/>
</svg>
