<svg width="155" height="45" viewBox="0 0 155 45" fill="none" xmlns="http://www.w3.org/2000/svg">
<path d="M28.8435 44.6599C28.3938 44.6589 27.9629 44.4798 27.645 44.1618C27.327 43.8437 27.1479 43.4126 27.147 42.9629V38.0194C27.147 37.5694 26.9682 37.1377 26.6501 36.8195C26.332 36.5013 25.9004 36.3225 25.4504 36.3225C25.0005 36.3225 24.569 36.5013 24.2508 36.8195C23.9326 37.1377 23.754 37.5694 23.754 38.0194V40.3661C23.754 40.8162 23.5752 41.2479 23.257 41.5661C22.9389 41.8843 22.5074 42.0632 22.0574 42.0632C21.6075 42.0632 21.1759 41.8843 20.8578 41.5661C20.5396 41.2479 20.3609 40.8162 20.3609 40.3661V38.0194C20.3609 37.5694 20.1821 37.1377 19.864 36.8195C19.5458 36.5013 19.1143 36.3225 18.6643 36.3225C18.2144 36.3225 17.7829 36.5013 17.4647 36.8195C17.1466 37.1377 16.9678 37.5694 16.9678 38.0194V38.6581C16.9678 39.1085 16.789 39.5404 16.4705 39.8589C16.1521 40.1775 15.7203 40.3564 15.27 40.3564C14.8197 40.3564 14.3879 40.1775 14.0695 39.8589C13.7511 39.5404 13.5722 39.1085 13.5722 38.6581V38.0194C13.5722 37.5694 13.3935 37.1377 13.0753 36.8195C12.7571 36.5013 12.3256 36.3225 11.8757 36.3225C11.4258 36.3225 10.9943 36.5013 10.676 36.8195C10.3579 37.1377 10.1792 37.5694 10.1792 38.0194V40.3661C10.1792 40.8162 10.0004 41.2479 9.68227 41.5661C9.36408 41.8843 8.93257 42.0632 8.48262 42.0632C8.03268 42.0632 7.60116 41.8843 7.283 41.5661C6.96483 41.2479 6.7861 40.8162 6.7861 40.3661V38.0194C6.7861 37.5694 6.60735 37.1377 6.2892 36.8195C5.97104 36.5013 5.53952 36.3225 5.08958 36.3225C4.63962 36.3225 4.20811 36.5013 3.88995 36.8195C3.57179 37.1377 3.39304 37.5694 3.39304 38.0194V42.9629C3.39304 43.4129 3.21431 43.8446 2.89615 44.1628C2.57799 44.4811 2.14647 44.6599 1.69652 44.6599C1.24658 44.6599 0.815061 44.4811 0.496901 44.1628C0.17874 43.8446 0 43.4129 0 42.9629V14.9437C0.0818737 11.4664 1.34549 8.12071 3.58265 5.45791C5.81981 2.79512 8.89705 0.974041 12.3074 0.294732C15.7177 -0.384581 19.2576 0.118395 22.3439 1.72079C25.4302 3.32318 27.8787 5.9294 29.2861 9.11003C30.1013 10.9494 30.5438 12.9322 30.5879 14.9437C30.5908 14.9645 30.5876 14.9858 30.5789 15.005C30.5701 15.0241 30.5559 15.0403 30.5381 15.0517V42.9618C30.5377 43.4115 30.3592 43.8428 30.0415 44.161C29.7239 44.4793 29.2931 44.6587 28.8435 44.6599ZM13.5534 19.3965C13.1226 19.3965 12.9478 19.5631 12.9478 19.9752C12.9478 20.9768 14.0542 21.7914 15.4163 21.7914C16.7782 21.7914 17.881 20.9768 17.881 19.9752C17.881 19.5639 17.7061 19.3971 17.2766 19.3971C17.0467 19.4053 16.8176 19.4286 16.5909 19.4669L16.5695 19.4706C16.1883 19.5331 15.8029 19.5683 15.4167 19.5757C15.0293 19.5683 14.643 19.5332 14.2608 19.4706C14.027 19.4296 13.7906 19.4049 13.5534 19.3965ZM20.9384 11.1508C19.4366 11.1508 18.2158 12.5494 18.2158 14.2693C18.2158 15.9891 19.4366 17.3851 20.9384 17.3851C22.4402 17.3851 23.6566 15.9873 23.6566 14.2693C23.6566 12.5512 22.4376 11.1508 20.9384 11.1508ZM9.65102 11.1508C8.15291 11.1508 6.93289 12.5494 6.93289 14.2693C6.93289 15.9891 8.15291 17.3851 9.65102 17.3851C11.1491 17.3851 12.3699 15.9873 12.3699 14.2693C12.3699 12.5512 11.1503 11.1508 9.65102 11.1508Z" fill="black"/>
<path d="M115.013 37.2124L104.907 12.6977C104.827 12.4741 104.785 12.239 104.783 12.0019C104.764 11.5003 104.942 11.0113 105.279 10.6395C105.453 10.462 105.662 10.3236 105.893 10.2337C106.124 10.1437 106.372 10.1042 106.62 10.1179C106.995 10.1228 107.359 10.2441 107.663 10.4652C107.981 10.7016 108.229 11.019 108.383 11.3843L117.992 35.3775L127.602 11.3843C127.755 11.019 128.004 10.7016 128.322 10.4652C128.625 10.2441 128.99 10.1228 129.365 10.1179C129.613 10.1042 129.861 10.1437 130.092 10.2337C130.323 10.3236 130.532 10.462 130.706 10.6395C131.044 11.012 131.222 11.5023 131.202 12.005C131.199 12.2422 131.157 12.4773 131.078 12.7008L120.972 37.2156C120.799 37.7547 120.462 38.2264 120.008 38.5647C119.553 38.903 119.005 39.0911 118.439 39.1027H117.545C116.979 39.0907 116.43 38.902 115.976 38.5631C115.522 38.2242 115.186 37.752 115.013 37.2124Z" fill="black"/>
<path d="M135.499 38.355C135.327 38.1822 135.193 37.9765 135.103 37.7502C135.013 37.5239 134.97 37.2817 134.977 37.0385V12.2045C134.968 11.7061 135.155 11.2242 135.499 10.8629C135.667 10.6835 135.871 10.542 136.098 10.4479C136.325 10.3538 136.57 10.3093 136.815 10.3173H153.233C153.465 10.3109 153.696 10.354 153.91 10.444C154.124 10.534 154.316 10.6686 154.474 10.8389C154.643 10.9983 154.776 11.1909 154.866 11.4047C154.956 11.6184 155 11.8485 154.996 12.0803C155.002 12.3089 154.959 12.5362 154.869 12.7464C154.779 12.9566 154.644 13.1447 154.474 13.2977C154.31 13.458 154.116 13.5844 153.903 13.6696C153.69 13.7548 153.462 13.7971 153.233 13.7943H138.702V22.8356H151.764C151.996 22.8291 152.227 22.8723 152.441 22.9623C152.655 23.0522 152.848 23.1868 153.006 23.3571C153.172 23.5179 153.304 23.7109 153.394 23.9243C153.483 24.1377 153.529 24.367 153.527 24.5985C153.534 24.8271 153.49 25.0543 153.4 25.2645C153.31 25.4747 153.175 25.6629 153.006 25.8159C152.841 25.9762 152.647 26.1026 152.434 26.1877C152.221 26.2729 151.994 26.3153 151.764 26.3125H138.702V35.4017H153.233C153.465 35.3952 153.696 35.4383 153.91 35.5284C154.124 35.6183 154.316 35.753 154.474 35.9233C154.643 36.0826 154.776 36.2753 154.866 36.489C154.956 36.7028 155 36.9329 154.996 37.1647C155.002 37.3933 154.959 37.6205 154.869 37.8307C154.779 38.0409 154.644 38.229 154.474 38.3821C154.31 38.5423 154.116 38.6688 153.903 38.7539C153.69 38.8391 153.462 38.8815 153.233 38.8786H136.815C136.571 38.8966 136.325 38.8588 136.097 38.7681C135.869 38.6774 135.664 38.5361 135.499 38.355Z" fill="black"/>
<path d="M107.19 36.5198L97.0839 12.0051C96.9103 11.4665 96.5729 10.9955 96.1189 10.6578C95.6648 10.3201 95.1167 10.1325 94.551 10.1211H93.657C93.0909 10.1327 92.5425 10.3208 92.0884 10.6591C91.6344 10.9974 91.2972 11.4691 91.1242 12.0082L86.7293 22.6873H83.4015C82.9215 22.69 82.4619 22.8819 82.1226 23.2213C81.7831 23.5607 81.5912 24.0203 81.5885 24.5003V24.5253C81.5912 25.0053 81.7831 25.4649 82.1226 25.8044C82.4619 26.1437 82.9215 26.3357 83.4015 26.3384H85.1895L80.9928 36.5209C80.9134 36.7444 80.8715 36.9795 80.8687 37.2167C80.8489 37.7193 81.0272 38.2096 81.3652 38.5822C81.5386 38.7596 81.7479 38.8981 81.979 38.988C82.2103 39.0779 82.4581 39.1175 82.7057 39.1038C83.081 39.0989 83.4455 38.9776 83.7489 38.7564C84.0669 38.5201 84.3154 38.2027 84.4687 37.8374L89.0879 26.3394H92.2665C92.7464 26.3367 93.2061 26.1448 93.5455 25.8054C93.8849 25.466 94.0768 25.0063 94.0795 24.5264V24.4753C94.0768 23.9953 93.8849 23.5357 93.5455 23.1962C93.2061 22.8569 92.7464 22.6649 92.2665 22.6622H90.5536L94.1004 13.8463L103.71 37.8395C103.863 38.2048 104.112 38.5222 104.43 38.7585C104.733 38.9797 105.098 39.101 105.473 39.1059C105.721 39.1195 105.969 39.08 106.2 38.9901C106.431 38.9002 106.64 38.7617 106.814 38.5843C107.152 38.2117 107.33 37.7214 107.31 37.2188C107.321 36.9799 107.281 36.7413 107.19 36.5198Z" fill="black"/>
<path d="M76.9949 36.5198L66.8886 12.0051C66.715 11.4665 66.3776 10.9955 65.9236 10.6578C65.4695 10.3201 64.9214 10.1325 64.3557 10.1211H63.4617C62.8956 10.1327 62.3472 10.3208 61.8931 10.6591C61.439 10.9974 61.1019 11.4691 60.9289 12.0082L56.5339 22.6873H53.2062C52.7262 22.69 52.2666 22.8819 51.9272 23.2213C51.5878 23.5607 51.3959 24.0203 51.3931 24.5003V24.5253C51.3959 25.0053 51.5878 25.4649 51.9272 25.8044C52.2666 26.1437 52.7262 26.3357 53.2062 26.3384H54.9942L50.7975 36.5198C50.7181 36.7434 50.6762 36.9784 50.6734 37.2156C50.6536 37.7182 50.8319 38.2085 51.1699 38.5812C51.3432 38.7586 51.5525 38.897 51.7837 38.987C52.0149 39.0769 52.2627 39.1164 52.5104 39.1027C52.8857 39.0978 53.2502 38.9765 53.5536 38.7554C53.8715 38.5191 54.1201 38.2017 54.2734 37.8363L58.8926 26.3384H62.0962C62.5761 26.3357 63.0358 26.1437 63.3752 25.8044C63.7146 25.4649 63.9065 25.0053 63.9092 24.5253V24.4753C63.9065 23.9953 63.7146 23.5357 63.3752 23.1962C63.0358 22.8569 62.5761 22.6649 62.0962 22.6622H60.3822L63.9082 13.8463L73.518 37.8395C73.6712 38.2048 73.9198 38.5222 74.2378 38.7585C74.5411 38.9797 74.9056 39.101 75.2809 39.1059C75.5287 39.1195 75.7765 39.08 76.0076 38.9901C76.2388 38.9002 76.4481 38.7617 76.6214 38.5843C76.9594 38.2117 77.1377 37.7214 77.118 37.2188C77.1282 36.9796 77.0863 36.7411 76.9949 36.5198Z" fill="black"/>
</svg>
