<svg width="134" height="39" viewBox="0 0 134 39" fill="none" xmlns="http://www.w3.org/2000/svg">
<g clip-path="url(#clip0_1266_14019)">
<path d="M82.0067 36.2711L69.2406 5.45694C69.1403 5.17599 69.0873 4.88048 69.0837 4.58234C69.0599 3.95189 69.2851 3.3372 69.711 2.86987C69.93 2.64678 70.1943 2.47287 70.4863 2.35981C70.7785 2.24673 71.0914 2.1971 71.4043 2.21425C71.8784 2.2204 72.3388 2.37297 72.722 2.65089C73.1236 2.94794 73.4377 3.34691 73.6312 3.80609L85.7701 33.9646L97.9091 3.80609C98.1027 3.34691 98.4167 2.94794 98.8183 2.65089C99.2015 2.37297 99.6619 2.2204 100.136 2.21425C100.449 2.1971 100.762 2.24673 101.054 2.35981C101.346 2.47287 101.61 2.64678 101.829 2.86987C102.256 3.33819 102.481 3.95448 102.457 4.58628C102.453 4.88441 102.4 5.17991 102.3 5.46087L89.5336 36.275C89.315 36.9526 88.8892 37.5456 88.3156 37.9708C87.742 38.396 87.0493 38.6325 86.3341 38.647H85.2048C84.4894 38.6319 83.7967 38.3947 83.2232 37.9688C82.6499 37.5428 82.2245 36.9492 82.0067 36.2711Z" fill="white"/>
<path d="M107.882 37.7043C107.666 37.4872 107.496 37.2286 107.382 36.9442C107.269 36.6596 107.215 36.3553 107.224 36.0495V4.83414C107.212 4.20773 107.449 3.60197 107.882 3.14789C108.095 2.92231 108.353 2.74444 108.639 2.62617C108.926 2.5079 109.235 2.45196 109.545 2.46211H130.284C130.577 2.45397 130.869 2.50825 131.139 2.62132C131.409 2.73439 131.653 2.90363 131.852 3.11773C132.065 3.31802 132.233 3.5602 132.346 3.82886C132.46 4.09751 132.516 4.38673 132.511 4.6781C132.519 4.96542 132.464 5.25108 132.35 5.5153C132.237 5.77951 132.067 6.01597 131.852 6.20831C131.645 6.4098 131.399 6.56863 131.13 6.67573C130.861 6.78283 130.574 6.83608 130.284 6.83246H111.929V18.197H128.428C128.722 18.1889 129.013 18.2432 129.284 18.3563C129.554 18.4694 129.797 18.6385 129.997 18.8526C130.207 19.0547 130.374 19.2973 130.487 19.5656C130.6 19.8337 130.657 20.122 130.655 20.413C130.664 20.7003 130.609 20.9859 130.495 21.2501C130.381 21.5143 130.211 21.7509 129.997 21.9432C129.789 22.1446 129.544 22.3035 129.275 22.4105C129.006 22.5177 128.718 22.5709 128.428 22.5674H111.929V33.9922H130.284C130.577 33.9841 130.869 34.0382 131.139 34.1514C131.409 34.2644 131.653 34.4337 131.852 34.6478C132.065 34.848 132.233 35.0902 132.346 35.3589C132.46 35.6276 132.516 35.9168 132.511 36.2082C132.519 36.4955 132.464 36.7811 132.35 37.0453C132.237 37.3095 132.067 37.546 131.852 37.7384C131.645 37.9398 131.399 38.0987 131.13 38.2057C130.861 38.3128 130.574 38.3661 130.284 38.3625H109.545C109.236 38.3851 108.926 38.3376 108.638 38.2235C108.35 38.1096 108.092 37.9319 107.882 37.7043Z" fill="white"/>
<path d="M72.1239 35.3931L59.3577 4.57903C59.1384 3.90207 58.7123 3.31006 58.1388 2.88556C57.5652 2.46106 56.8729 2.22522 56.1582 2.21094H55.029C54.3138 2.22549 53.6211 2.46191 53.0475 2.88716C52.474 3.3124 52.0481 3.90527 51.8295 4.58297L46.2779 18.0061H42.0744C41.4681 18.0095 40.8875 18.2508 40.4588 18.6773C40.03 19.104 39.7876 19.6817 39.7841 20.285V20.3165C39.7876 20.9198 40.03 21.4975 40.4588 21.9242C40.8875 22.3508 41.4681 22.592 42.0744 22.5954H44.3329L39.0317 35.3944C38.9314 35.6754 38.8785 35.9709 38.8749 36.269C38.85 36.9008 39.0752 37.5171 39.5022 37.9854C39.7212 38.2085 39.9855 38.3825 40.2775 38.4955C40.5696 38.6085 40.8826 38.6582 41.1954 38.6411C41.6696 38.6349 42.13 38.4824 42.5132 38.2044C42.9148 37.9074 43.2288 37.5084 43.4224 37.0492L49.2573 22.5968H53.2724C53.8787 22.5933 54.4593 22.3521 54.8881 21.9255C55.3167 21.4989 55.5592 20.9211 55.5626 20.3178V20.2536C55.5592 19.6503 55.3167 19.0725 54.8881 18.6459C54.4593 18.2193 53.8787 17.978 53.2724 17.9746H51.1087L55.589 6.89337L67.7279 37.0518C67.9215 37.511 68.2355 37.91 68.6371 38.207C69.0203 38.485 69.4808 38.6375 69.9549 38.6437C70.2678 38.6609 70.5808 38.6112 70.8728 38.4981C71.1648 38.3851 71.4291 38.2111 71.6482 37.9881C72.0751 37.5197 72.3003 36.9034 72.2754 36.2716C72.2896 35.9714 72.238 35.6715 72.1239 35.3931Z" fill="white"/>
<path d="M33.9813 35.3931L21.2151 4.57903C20.9958 3.90207 20.5697 3.31006 19.9962 2.88556C19.4226 2.46106 18.7303 2.22522 18.0157 2.21094H16.8864C16.1712 2.22549 15.4785 2.46191 14.9049 2.88716C14.3313 3.3124 13.9055 3.90527 13.6869 4.58297L8.13533 18.0061H3.93178C3.32545 18.0095 2.74492 18.2508 2.31617 18.6773C1.88742 19.104 1.64502 19.6817 1.64157 20.285V20.3165C1.64502 20.9198 1.88742 21.4975 2.31617 21.9242C2.74492 22.3508 3.32545 22.592 3.93178 22.5954H6.19036L0.889142 35.3931C0.788861 35.6741 0.735879 35.9695 0.732332 36.2677C0.707445 36.8995 0.932662 37.5158 1.35957 37.9841C1.57853 38.2072 1.8429 38.3812 2.13495 38.4942C2.42698 38.6072 2.73996 38.6569 3.05285 38.6397C3.52696 38.6336 3.98742 38.4811 4.37058 38.2031C4.77221 37.9061 5.08624 37.5071 5.27981 37.0479L11.1147 22.5954H15.1615C15.7677 22.592 16.3483 22.3508 16.7771 21.9242C17.2058 21.4975 17.4482 20.9198 17.4517 20.3165V20.2536C17.4482 19.6503 17.2058 19.0725 16.7771 18.6459C16.3483 18.2193 15.7677 17.978 15.1615 17.9746H12.9964L17.4504 6.89337L29.5893 37.0518C29.7829 37.511 30.0969 37.91 30.4985 38.207C30.8817 38.485 31.3421 38.6375 31.8162 38.6437C32.1292 38.6609 32.4422 38.6112 32.7342 38.4981C33.0262 38.3851 33.2905 38.2111 33.5095 37.9881C33.9365 37.5197 34.1617 36.9034 34.1368 36.2716C34.1497 35.971 34.0967 35.6712 33.9813 35.3931Z" fill="white"/>
</g>
<defs>
<clipPath id="clip0_1266_14019">
<rect width="133.091" height="38.0259" fill="white" transform="translate(0.730469 0.90625)"/>
</clipPath>
</defs>
</svg>
