<svg width="155" height="35" viewBox="0 0 155 35" fill="none" xmlns="http://www.w3.org/2000/svg">
<mask id="mask0_2370_448" style="mask-type:luminance" maskUnits="userSpaceOnUse" x="0" y="0" width="155" height="35">
<path d="M155 0H0V34.5868H155V0Z" fill="white"/>
</mask>
<g mask="url(#mask0_2370_448)">
<path fill-rule="evenodd" clip-rule="evenodd" d="M152.157 19.6734C152.157 17.6508 150.966 16.1281 149.086 16.1281C147.205 16.1281 146.012 17.6508 146.012 19.6734C146.012 21.6958 147.205 23.2185 149.086 23.2185C150.97 23.2224 152.157 21.6996 152.157 19.6734ZM152.065 14.7709V9.47236C152.065 9.12246 152.3 8.8187 152.638 8.73026L155.448 7.98047V25.91H152.33V24.3874C151.546 25.5293 150.139 26.1984 148.377 26.1984C144.76 26.1984 142.641 23.2954 142.641 19.6772C142.641 16.0589 144.76 13.1559 148.377 13.1559C150.135 13.1521 151.423 13.9134 152.065 14.7709ZM132.882 13.4366V14.9593C133.455 13.8865 134.74 13.1483 136.596 13.1483C139.596 13.1483 141.191 15.1476 141.191 18.1238V25.91H137.812V18.5083C137.812 17.0548 137.193 16.0551 135.693 16.0551C134.051 16.0551 133.147 17.101 133.147 18.7698V25.91H129.768V13.4366H132.882ZM121.866 26.1984C118.225 26.1984 116.198 24.6258 116.198 20.5807V13.4366H119.578V20.6269C119.578 22.3649 120.363 23.1723 121.862 23.1723C123.362 23.1723 124.146 22.361 124.146 20.6269V13.4366H127.526V20.5769C127.534 24.6258 125.507 26.1984 121.866 26.1984ZM105.04 19.6734C105.04 21.9111 106.42 23.2185 108.205 23.2185C109.989 23.2185 111.369 21.9073 111.369 19.6734C111.369 17.4393 109.989 16.1281 108.205 16.1281C106.424 16.1281 105.04 17.4355 105.04 19.6734ZM108.208 26.1984C104.209 26.1984 101.66 23.2224 101.66 19.6772C101.66 16.1321 104.206 13.1559 108.208 13.1559C112.207 13.1559 114.757 16.1321 114.757 19.6772C114.753 23.2224 112.207 26.1984 108.208 26.1984ZM91.3593 19.6734C91.3593 21.6958 92.5513 23.2185 94.4315 23.2185C96.3118 23.2185 97.5037 21.6958 97.5037 19.6734C97.5037 17.6508 96.3118 16.1281 94.4315 16.1281C92.5513 16.1281 91.3593 17.6508 91.3593 19.6734ZM91.4554 24.5796V29.7666C91.4554 30.1165 91.2209 30.4203 90.8826 30.5086L88.0756 31.247V13.4366H91.194V14.9593C91.9783 13.8173 93.3856 13.1483 95.1467 13.1483C98.7649 13.1483 100.884 16.0512 100.884 19.6695C100.884 23.2877 98.7649 26.1907 95.1467 26.1907C93.3818 26.1984 92.0976 25.4371 91.4554 24.5796ZM78.0361 18.8159V25.91H74.6564V18.5083C74.6564 17.1279 74.1565 16.0551 72.6569 16.0551C71.0843 16.0551 70.2268 17.078 70.2268 18.7467V25.9139H66.8471V13.4366H69.9654V14.9593C70.5382 13.8865 71.7764 13.1483 73.5605 13.1483C75.2523 13.1483 76.4636 13.8135 77.1788 14.9092C78.2745 13.6942 79.5358 13.1483 81.3198 13.1483C84.319 13.1483 85.8416 15.2208 85.8416 18.1238V25.91H82.4618V18.5083C82.4618 17.1279 81.962 16.0551 80.4623 16.0551C78.8667 16.0551 78.0361 17.078 78.0361 18.8159ZM55.5695 19.6734C55.5695 21.9111 56.9499 23.2185 58.7339 23.2185C60.5181 23.2185 61.8985 21.9073 61.8985 19.6734C61.8985 17.4393 60.5181 16.1281 58.7339 16.1281C56.9499 16.1281 55.5695 17.4355 55.5695 19.6734ZM58.7339 26.1984C54.735 26.1984 52.1859 23.2224 52.1859 19.6772C52.1859 16.1321 54.7312 13.1559 58.7339 13.1559C62.7366 13.1559 65.2821 16.1321 65.2821 19.6772C65.2821 23.2224 62.7328 26.1984 58.7339 26.1984ZM34.6484 17.4355C34.6484 12.1524 38.2898 8.64952 43.146 8.64952C47.3602 8.64952 50.6939 11.1488 51.336 15.2669H47.6217C47.1218 13.1483 45.407 11.9563 43.146 11.9563C40.0508 11.9563 38.3128 14.098 38.3128 17.4316C38.3128 20.7653 40.0508 22.907 43.146 22.907C45.407 22.907 47.1218 21.715 47.6217 19.5964H51.336C50.6939 23.7145 47.3602 26.2137 43.146 26.2137C38.2898 26.2214 34.6484 22.7224 34.6484 17.4355Z" fill="black"/>
<path fill-rule="evenodd" clip-rule="evenodd" d="M1.38807 26.9557C0.526773 26.4288 0 25.4907 0 24.4832V18.8579C0 18.6425 0.057676 18.435 0.165338 18.2504C0.499858 17.6736 1.24196 17.4776 1.81871 17.8159L14.5152 25.2176C15.2573 25.6521 15.7148 26.4443 15.7148 27.3055V33.1346C15.7148 33.3999 15.6417 33.6652 15.5033 33.8921C15.0842 34.5765 14.1921 34.7919 13.5077 34.3727L1.38807 26.9557ZM20.3135 16.274C21.0555 16.7085 21.5131 17.5007 21.5131 18.3619V30.1893C21.5131 30.5392 21.3247 30.8622 21.021 31.0314L18.2409 32.5964C18.2064 32.6156 18.1679 32.631 18.1295 32.6425V26.0751C18.1295 25.2253 17.6835 24.4371 16.9529 23.9987L5.8022 17.3276V9.9143C5.8022 9.69897 5.85989 9.49134 5.96754 9.30678C6.30206 8.73001 7.04416 8.53392 7.62092 8.87228L20.3135 16.274ZM25.8696 7.53805C26.6156 7.96869 27.0731 8.76847 27.0731 9.62977V26.9057C27.0731 27.2594 26.877 27.5862 26.5656 27.7554L23.9316 29.178V17.1507C23.9316 16.301 23.4857 15.5165 22.759 15.0782L11.3622 8.2417V1.20907C11.3622 0.993746 11.4198 0.786112 11.5237 0.601548C11.8582 0.0247893 12.6003 -0.171309 13.1771 0.163212L25.8696 7.53805Z" fill="black"/>
</g>
</svg>
