<svg width="374" height="105" viewBox="0 0 374 105" fill="none" xmlns="http://www.w3.org/2000/svg">
<path d="M46.089 53.99L88.4526 30.3782V77.2887L46.089 100.901V53.99ZM3.9999 30.5468L46.089 53.99V100.901L3.9999 77.4573V30.5468Z" fill="url(#paint0_linear_156_417)" stroke="black" stroke-width="0.870647" stroke-linecap="round" stroke-linejoin="round"/>
<path d="M3.9999 30.4655L46.3636 6L88.4526 30.2907L46.089 54.7562L3.9999 30.4655Z" stroke="black" stroke-width="0.870647" stroke-linecap="round" stroke-linejoin="round"/>
<path d="M46.089 53.99L88.4526 30.3782V77.2887L46.089 100.901V53.99ZM3.9999 30.5468L46.089 53.99V100.901L3.9999 77.4573V30.5468Z" stroke="black" stroke-width="0.870647" stroke-linecap="round" stroke-linejoin="round"/>
<path d="M88.4529 23.8843L106.359 13.8359L124.149 23.8125L106.243 33.8608L88.4529 23.8843Z" stroke="black" stroke-width="0.870647" stroke-linecap="round" stroke-linejoin="round"/>
<path d="M106.243 34.4864L124.149 24.2837V44.5537L106.243 54.7563V34.4864ZM88.4529 24.3566L106.243 34.4864V54.7563L88.4529 44.6265V24.3566Z" stroke="black" stroke-width="0.870647" stroke-linecap="round" stroke-linejoin="round"/>
<path d="M88.4529 65.2416L106.359 54.7563L124.149 65.1667L106.243 75.6519L88.4529 65.2416Z" stroke="black" stroke-width="0.870647" stroke-linecap="round" stroke-linejoin="round"/>
<path d="M106.243 75.6983L124.149 65.2041V86.0532L106.243 96.5474V75.6983ZM88.4529 65.2791L106.243 75.6983V96.5474L88.4529 86.1282V65.2791Z" stroke="black" stroke-width="0.870647" stroke-linecap="round" stroke-linejoin="round"/>
<path d="M3.9999 30.4655L46.3636 6L88.4526 30.2907L46.089 54.7562L3.9999 30.4655Z" stroke="black" stroke-width="0.870647" stroke-linecap="round" stroke-linejoin="round"/>
<path d="M46.089 53.99L88.4526 30.3782V77.2887L46.089 100.901V53.99ZM3.9999 30.5468L46.089 53.99V100.901L3.9999 77.4573V30.5468Z" stroke="black" stroke-width="0.870647" stroke-linecap="round" stroke-linejoin="round"/>
<path d="M88.4529 23.8843L106.359 13.8359L124.149 23.8125L106.243 33.8608L88.4529 23.8843Z" stroke="black" stroke-width="0.870647" stroke-linecap="round" stroke-linejoin="round"/>
<path d="M106.243 34.4864L124.149 24.2837V44.5537L106.243 54.7563V34.4864ZM88.4529 24.3566L106.243 34.4864V54.7563L88.4529 44.6265V24.3566Z" stroke="black" stroke-width="0.870647" stroke-linecap="round" stroke-linejoin="round"/>
<path d="M88.4529 65.2416L106.359 54.7563L124.149 65.1667L106.243 75.6519L88.4529 65.2416Z" stroke="black" stroke-width="0.870647" stroke-linecap="round" stroke-linejoin="round"/>
<path d="M106.243 75.6983L124.149 65.2041V86.0532L106.243 96.5474V75.6983ZM88.4529 65.2791L106.243 75.6983V96.5474L88.4529 86.1282V65.2791Z" stroke="black" stroke-width="0.870647" stroke-linecap="round" stroke-linejoin="round"/>
<rect x="13.7266" y="48" width="4.35323" height="9.57711" rx="1.74129" fill="black"/>
<rect x="28.7266" y="55" width="4.35323" height="9.57711" rx="1.74129" fill="black"/>
<path d="M3.9999 30.4655L46.3636 6L88.4526 30.2907L46.089 54.7562L3.9999 30.4655Z" stroke="black" stroke-width="0.870647" stroke-linecap="round" stroke-linejoin="round"/>
<path d="M46.089 53.99L88.4526 30.3782V77.2887L46.089 100.901V53.99ZM3.9999 30.5468L46.089 53.99V100.901L3.9999 77.4573V30.5468Z" stroke="black" stroke-width="0.870647" stroke-linecap="round" stroke-linejoin="round"/>
<path d="M88.4529 23.8843L106.359 13.8359L124.149 23.8125L106.243 33.8608L88.4529 23.8843Z" stroke="black" stroke-width="0.870647" stroke-linecap="round" stroke-linejoin="round"/>
<path d="M106.243 34.4864L124.149 24.2837V44.5537L106.243 54.7563V34.4864ZM88.4529 24.3566L106.243 34.4864V54.7563L88.4529 44.6265V24.3566Z" stroke="black" stroke-width="0.870647" stroke-linecap="round" stroke-linejoin="round"/>
<path d="M88.4529 65.2416L106.359 54.7563L124.149 65.1667L106.243 75.6519L88.4529 65.2416Z" stroke="black" stroke-width="0.870647" stroke-linecap="round" stroke-linejoin="round"/>
<path d="M106.243 75.6983L124.149 65.2041V86.0532L106.243 96.5474V75.6983ZM88.4529 65.2791L106.243 75.6983V96.5474L88.4529 86.1282V65.2791Z" stroke="black" stroke-width="0.870647" stroke-linecap="round" stroke-linejoin="round"/>
<path d="M3.9999 30.4655L46.3636 6L88.4526 30.2907L46.089 54.7562L3.9999 30.4655Z" stroke="black" stroke-width="0.870647" stroke-linecap="round" stroke-linejoin="round"/>
<path d="M46.089 53.99L88.4526 30.3782V77.2887L46.089 100.901V53.99ZM3.9999 30.5468L46.089 53.99V100.901L3.9999 77.4573V30.5468Z" stroke="black" stroke-width="0.870647" stroke-linecap="round" stroke-linejoin="round"/>
<path d="M88.4529 23.8843L106.359 13.8359L124.149 23.8125L106.243 33.8608L88.4529 23.8843Z" stroke="black" stroke-width="0.870647" stroke-linecap="round" stroke-linejoin="round"/>
<path d="M106.243 34.4864L124.149 24.2837V44.5537L106.243 54.7563V34.4864ZM88.4529 24.3566L106.243 34.4864V54.7563L88.4529 44.6265V24.3566Z" stroke="black" stroke-width="0.870647" stroke-linecap="round" stroke-linejoin="round"/>
<path d="M88.4529 65.2416L106.359 54.7563L124.149 65.1667L106.243 75.6519L88.4529 65.2416Z" stroke="black" stroke-width="0.870647" stroke-linecap="round" stroke-linejoin="round"/>
<path d="M106.243 75.6983L124.149 65.2041V86.0532L106.243 96.5474V75.6983ZM88.4529 65.2791L106.243 75.6983V96.5474L88.4529 86.1282V65.2791Z" stroke="black" stroke-width="0.870647" stroke-linecap="round" stroke-linejoin="round"/>
<path d="M3.9999 30.4655L46.3636 6L88.4526 30.2907L46.089 54.7562L3.9999 30.4655Z" stroke="black" stroke-width="0.870647" stroke-linecap="round" stroke-linejoin="round"/>
<path d="M46.089 53.99L88.4526 30.3782V77.2887L46.089 100.901V53.99ZM3.9999 30.5468L46.089 53.99V100.901L3.9999 77.4573V30.5468Z" stroke="black" stroke-width="0.870647" stroke-linecap="round" stroke-linejoin="round"/>
<path d="M88.4529 23.8843L106.359 13.8359L124.149 23.8125L106.243 33.8608L88.4529 23.8843Z" stroke="black" stroke-width="0.870647" stroke-linecap="round" stroke-linejoin="round"/>
<path d="M106.243 34.4864L124.149 24.2837V44.5537L106.243 54.7563V34.4864ZM88.4529 24.3566L106.243 34.4864V54.7563L88.4529 44.6265V24.3566Z" stroke="black" stroke-width="0.870647" stroke-linecap="round" stroke-linejoin="round"/>
<path d="M88.4529 65.2416L106.359 54.7563L124.149 65.1667L106.243 75.6519L88.4529 65.2416Z" stroke="black" stroke-width="0.870647" stroke-linecap="round" stroke-linejoin="round"/>
<path d="M106.243 75.6983L124.149 65.2041V86.0532L106.243 96.5474V75.6983ZM88.4529 65.2791L106.243 75.6983V96.5474L88.4529 86.1282V65.2791Z" stroke="black" stroke-width="0.870647" stroke-linecap="round" stroke-linejoin="round"/>
<path d="M3.9999 30.4655L46.3636 6L88.4526 30.2907L46.089 54.7562L3.9999 30.4655Z" stroke="black" stroke-width="0.870647" stroke-linecap="round" stroke-linejoin="round"/>
<path d="M46.089 53.99L88.4526 30.3782V77.2887L46.089 100.901V53.99ZM3.9999 30.5468L46.089 53.99V100.901L3.9999 77.4573V30.5468Z" stroke="black" stroke-width="0.870647" stroke-linecap="round" stroke-linejoin="round"/>
<path d="M88.4529 23.8843L106.359 13.8359L124.149 23.8125L106.243 33.8608L88.4529 23.8843Z" stroke="black" stroke-width="0.870647" stroke-linecap="round" stroke-linejoin="round"/>
<path d="M106.243 34.4864L124.149 24.2837V44.5537L106.243 54.7563V34.4864ZM88.4529 24.3566L106.243 34.4864V54.7563L88.4529 44.6265V24.3566Z" stroke="black" stroke-width="0.870647" stroke-linecap="round" stroke-linejoin="round"/>
<path d="M88.4529 65.2416L106.359 54.7563L124.149 65.1667L106.243 75.6519L88.4529 65.2416Z" stroke="black" stroke-width="0.870647" stroke-linecap="round" stroke-linejoin="round"/>
<path d="M106.243 75.6983L124.149 65.2041V86.0532L106.243 96.5474V75.6983ZM88.4529 65.2791L106.243 75.6983V96.5474L88.4529 86.1282V65.2791Z" stroke="black" stroke-width="0.870647" stroke-linecap="round" stroke-linejoin="round"/>
<path d="M3.9999 30.4655L46.3636 6L88.4526 30.2907L46.089 54.7562L3.9999 30.4655Z" stroke="black" stroke-width="0.870647" stroke-linecap="round" stroke-linejoin="round"/>
<path d="M46.089 53.99L88.4526 30.3782V77.2887L46.089 100.901V53.99ZM3.9999 30.5468L46.089 53.99V100.901L3.9999 77.4573V30.5468Z" stroke="black" stroke-width="0.870647" stroke-linecap="round" stroke-linejoin="round"/>
<path d="M88.4529 23.8843L106.359 13.8359L124.149 23.8125L106.243 33.8608L88.4529 23.8843Z" stroke="black" stroke-width="0.870647" stroke-linecap="round" stroke-linejoin="round"/>
<path d="M106.243 34.4864L124.149 24.2837V44.5537L106.243 54.7563V34.4864ZM88.4529 24.3566L106.243 34.4864V54.7563L88.4529 44.6265V24.3566Z" stroke="black" stroke-width="0.870647" stroke-linecap="round" stroke-linejoin="round"/>
<path d="M88.4529 65.2416L106.359 54.7563L124.149 65.1667L106.243 75.6519L88.4529 65.2416Z" stroke="black" stroke-width="0.870647" stroke-linecap="round" stroke-linejoin="round"/>
<path d="M106.243 75.6983L124.149 65.2041V86.0532L106.243 96.5474V75.6983ZM88.4529 65.2791L106.243 75.6983V96.5474L88.4529 86.1282V65.2791Z" stroke="black" stroke-width="0.870647" stroke-linecap="round" stroke-linejoin="round"/>
<path d="M3.9999 30.4655L46.3636 6L88.4526 30.2907L46.089 54.7562L3.9999 30.4655Z" stroke="black" stroke-width="0.870647" stroke-linecap="round" stroke-linejoin="round"/>
<path d="M46.089 53.99L88.4526 30.3782V77.2887L46.089 100.901V53.99ZM3.9999 30.5468L46.089 53.99V100.901L3.9999 77.4573V30.5468Z" stroke="black" stroke-width="0.870647" stroke-linecap="round" stroke-linejoin="round"/>
<path d="M88.4529 23.8843L106.359 13.8359L124.149 23.8125L106.243 33.8608L88.4529 23.8843Z" stroke="black" stroke-width="0.870647" stroke-linecap="round" stroke-linejoin="round"/>
<path d="M106.243 34.4864L124.149 24.2837V44.5537L106.243 54.7563V34.4864ZM88.4529 24.3566L106.243 34.4864V54.7563L88.4529 44.6265V24.3566Z" stroke="black" stroke-width="0.870647" stroke-linecap="round" stroke-linejoin="round"/>
<path d="M88.4529 65.2416L106.359 54.7563L124.149 65.1667L106.243 75.6519L88.4529 65.2416Z" stroke="black" stroke-width="0.870647" stroke-linecap="round" stroke-linejoin="round"/>
<path d="M106.243 75.6983L124.149 65.2041V86.0532L106.243 96.5474V75.6983ZM88.4529 65.2791L106.243 75.6983V96.5474L88.4529 86.1282V65.2791Z" stroke="black" stroke-width="0.870647" stroke-linecap="round" stroke-linejoin="round"/>
<path d="M3.9999 30.4655L46.3636 6L88.4526 30.2907L46.089 54.7562L3.9999 30.4655Z" stroke="black" stroke-width="0.870647" stroke-linecap="round" stroke-linejoin="round"/>
<path d="M46.089 53.99L88.4526 30.3782V77.2887L46.089 100.901V53.99ZM3.9999 30.5468L46.089 53.99V100.901L3.9999 77.4573V30.5468Z" stroke="black" stroke-width="0.870647" stroke-linecap="round" stroke-linejoin="round"/>
<path d="M88.4529 23.8843L106.359 13.8359L124.149 23.8125L106.243 33.8608L88.4529 23.8843Z" stroke="black" stroke-width="0.870647" stroke-linecap="round" stroke-linejoin="round"/>
<path d="M106.243 34.4864L124.149 24.2837V44.5537L106.243 54.7563V34.4864ZM88.4529 24.3566L106.243 34.4864V54.7563L88.4529 44.6265V24.3566Z" stroke="black" stroke-width="0.870647" stroke-linecap="round" stroke-linejoin="round"/>
<path d="M88.4529 65.2416L106.359 54.7563L124.149 65.1667L106.243 75.6519L88.4529 65.2416Z" stroke="black" stroke-width="0.870647" stroke-linecap="round" stroke-linejoin="round"/>
<path d="M106.243 75.6983L124.149 65.2041V86.0532L106.243 96.5474V75.6983ZM88.4529 65.2791L106.243 75.6983V96.5474L88.4529 86.1282V65.2791Z" stroke="black" stroke-width="0.870647" stroke-linecap="round" stroke-linejoin="round"/>
<path d="M3.9999 30.4655L46.3636 6L88.4526 30.2907L46.089 54.7562L3.9999 30.4655Z" stroke="black" stroke-width="0.870647" stroke-linecap="round" stroke-linejoin="round"/>
<path d="M46.089 53.99L88.4526 30.3782V77.2887L46.089 100.901V53.99ZM3.9999 30.5468L46.089 53.99V100.901L3.9999 77.4573V30.5468Z" stroke="black" stroke-width="0.870647" stroke-linecap="round" stroke-linejoin="round"/>
<path d="M88.4529 23.8843L106.359 13.8359L124.149 23.8125L106.243 33.8608L88.4529 23.8843Z" stroke="black" stroke-width="0.870647" stroke-linecap="round" stroke-linejoin="round"/>
<path d="M106.243 34.4864L124.149 24.2837V44.5537L106.243 54.7563V34.4864ZM88.4529 24.3566L106.243 34.4864V54.7563L88.4529 44.6265V24.3566Z" stroke="black" stroke-width="0.870647" stroke-linecap="round" stroke-linejoin="round"/>
<path d="M88.4529 65.2416L106.359 54.7563L124.149 65.1667L106.243 75.6519L88.4529 65.2416Z" stroke="black" stroke-width="0.870647" stroke-linecap="round" stroke-linejoin="round"/>
<path d="M106.243 75.6983L124.149 65.2041V86.0532L106.243 96.5474V75.6983ZM88.4529 65.2791L106.243 75.6983V96.5474L88.4529 86.1282V65.2791Z" stroke="black" stroke-width="0.870647" stroke-linecap="round" stroke-linejoin="round"/>
<path d="M3.9999 30.4655L46.3636 6L88.4526 30.2907L46.089 54.7562L3.9999 30.4655Z" stroke="black" stroke-width="0.870647" stroke-linecap="round" stroke-linejoin="round"/>
<path d="M46.089 53.99L88.4526 30.3782V77.2887L46.089 100.901V53.99ZM3.9999 30.5468L46.089 53.99V100.901L3.9999 77.4573V30.5468Z" stroke="black" stroke-width="0.870647" stroke-linecap="round" stroke-linejoin="round"/>
<path d="M88.4529 23.8843L106.359 13.8359L124.149 23.8125L106.243 33.8608L88.4529 23.8843Z" stroke="black" stroke-width="0.870647" stroke-linecap="round" stroke-linejoin="round"/>
<path d="M106.243 34.4864L124.149 24.2837V44.5537L106.243 54.7563V34.4864ZM88.4529 24.3566L106.243 34.4864V54.7563L88.4529 44.6265V24.3566Z" stroke="black" stroke-width="0.870647" stroke-linecap="round" stroke-linejoin="round"/>
<path d="M88.4529 65.2416L106.359 54.7563L124.149 65.1667L106.243 75.6519L88.4529 65.2416Z" stroke="black" stroke-width="0.870647" stroke-linecap="round" stroke-linejoin="round"/>
<path d="M106.243 75.6983L124.149 65.2041V86.0532L106.243 96.5474V75.6983ZM88.4529 65.2791L106.243 75.6983V96.5474L88.4529 86.1282V65.2791Z" stroke="black" stroke-width="0.870647" stroke-linecap="round" stroke-linejoin="round"/>
<path d="M3.9999 30.4655L46.3636 6L88.4526 30.2907L46.089 54.7562L3.9999 30.4655Z" stroke="black" stroke-width="0.870647" stroke-linecap="round" stroke-linejoin="round"/>
<path d="M46.089 53.99L88.4526 30.3782V77.2887L46.089 100.901V53.99ZM3.9999 30.5468L46.089 53.99V100.901L3.9999 77.4573V30.5468Z" stroke="black" stroke-width="0.870647" stroke-linecap="round" stroke-linejoin="round"/>
<path d="M88.4529 23.8843L106.359 13.8359L124.149 23.8125L106.243 33.8608L88.4529 23.8843Z" stroke="black" stroke-width="0.870647" stroke-linecap="round" stroke-linejoin="round"/>
<path d="M106.243 34.4864L124.149 24.2837V44.5537L106.243 54.7563V34.4864ZM88.4529 24.3566L106.243 34.4864V54.7563L88.4529 44.6265V24.3566Z" stroke="black" stroke-width="0.870647" stroke-linecap="round" stroke-linejoin="round"/>
<path d="M88.4529 65.2416L106.359 54.7563L124.149 65.1667L106.243 75.6519L88.4529 65.2416Z" stroke="black" stroke-width="0.870647" stroke-linecap="round" stroke-linejoin="round"/>
<path d="M106.243 75.6983L124.149 65.2041V86.0532L106.243 96.5474V75.6983ZM88.4529 65.2791L106.243 75.6983V96.5474L88.4529 86.1282V65.2791Z" stroke="black" stroke-width="0.870647" stroke-linecap="round" stroke-linejoin="round"/>
<path d="M3.9999 30.4655L46.3636 6L88.4526 30.2907L46.089 54.7562L3.9999 30.4655Z" stroke="black" stroke-width="0.870647" stroke-linecap="round" stroke-linejoin="round"/>
<path d="M46.089 53.99L88.4526 30.3782V77.2887L46.089 100.901V53.99ZM3.9999 30.5468L46.089 53.99V100.901L3.9999 77.4573V30.5468Z" stroke="black" stroke-width="0.870647" stroke-linecap="round" stroke-linejoin="round"/>
<path d="M88.4529 23.8843L106.359 13.8359L124.149 23.8125L106.243 33.8608L88.4529 23.8843Z" stroke="black" stroke-width="0.870647" stroke-linecap="round" stroke-linejoin="round"/>
<path d="M106.243 34.4864L124.149 24.2837V44.5537L106.243 54.7563V34.4864ZM88.4529 24.3566L106.243 34.4864V54.7563L88.4529 44.6265V24.3566Z" stroke="black" stroke-width="0.870647" stroke-linecap="round" stroke-linejoin="round"/>
<path d="M88.4529 65.2416L106.359 54.7563L124.149 65.1667L106.243 75.6519L88.4529 65.2416Z" stroke="black" stroke-width="0.870647" stroke-linecap="round" stroke-linejoin="round"/>
<path d="M106.243 75.6983L124.149 65.2041V86.0532L106.243 96.5474V75.6983ZM88.4529 65.2791L106.243 75.6983V96.5474L88.4529 86.1282V65.2791Z" stroke="black" stroke-width="0.870647" stroke-linecap="round" stroke-linejoin="round"/>
<path d="M3.9999 30.4655L46.3636 6L88.4526 30.2907L46.089 54.7562L3.9999 30.4655Z" stroke="black" stroke-width="0.870647" stroke-linecap="round" stroke-linejoin="round"/>
<path d="M46.089 53.99L88.4526 30.3782V77.2887L46.089 100.901V53.99ZM3.9999 30.5468L46.089 53.99V100.901L3.9999 77.4573V30.5468Z" stroke="black" stroke-width="0.870647" stroke-linecap="round" stroke-linejoin="round"/>
<path d="M88.4529 23.8843L106.359 13.8359L124.149 23.8125L106.243 33.8608L88.4529 23.8843Z" stroke="black" stroke-width="0.870647" stroke-linecap="round" stroke-linejoin="round"/>
<path d="M106.243 34.4864L124.149 24.2837V44.5537L106.243 54.7563V34.4864ZM88.4529 24.3566L106.243 34.4864V54.7563L88.4529 44.6265V24.3566Z" stroke="black" stroke-width="0.870647" stroke-linecap="round" stroke-linejoin="round"/>
<path d="M88.4529 65.2416L106.359 54.7563L124.149 65.1667L106.243 75.6519L88.4529 65.2416Z" stroke="black" stroke-width="0.870647" stroke-linecap="round" stroke-linejoin="round"/>
<path d="M106.243 75.6983L124.149 65.2041V86.0532L106.243 96.5474V75.6983ZM88.4529 65.2791L106.243 75.6983V96.5474L88.4529 86.1282V65.2791Z" stroke="black" stroke-width="0.870647" stroke-linecap="round" stroke-linejoin="round"/>
<path d="M3.9999 30.4655L46.3636 6L88.4526 30.2907L46.089 54.7562L3.9999 30.4655Z" stroke="black" stroke-width="0.870647" stroke-linecap="round" stroke-linejoin="round"/>
<path d="M46.089 53.99L88.4526 30.3782V77.2887L46.089 100.901V53.99ZM3.9999 30.5468L46.089 53.99V100.901L3.9999 77.4573V30.5468Z" stroke="black" stroke-width="3.48259" stroke-linecap="round" stroke-linejoin="round"/>
<path d="M88.4529 23.8843L106.359 13.8359L124.149 23.8125L106.243 33.8608L88.4529 23.8843Z" stroke="black" stroke-width="0.870647" stroke-linecap="round" stroke-linejoin="round"/>
<path d="M106.243 34.4864L124.149 24.2837V44.5537L106.243 54.7563V34.4864ZM88.4529 24.3566L106.243 34.4864V54.7563L88.4529 44.6265V24.3566Z" stroke="black" stroke-width="0.870647" stroke-linecap="round" stroke-linejoin="round"/>
<path d="M88.4529 65.2416L106.359 54.7563L124.149 65.1667L106.243 75.6519L88.4529 65.2416Z" stroke="black" stroke-width="0.870647" stroke-linecap="round" stroke-linejoin="round"/>
<path d="M106.243 75.6983L124.149 65.2041V86.0532L106.243 96.5474V75.6983ZM88.4529 65.2791L106.243 75.6983V96.5474L88.4529 86.1282V65.2791Z" stroke="black" stroke-width="0.870647" stroke-linecap="round" stroke-linejoin="round"/>
<path d="M3.9999 30.4655L46.3636 6L88.4526 30.2907L46.089 54.7562L3.9999 30.4655Z" fill="url(#paint1_linear_156_417)" stroke="black" stroke-width="3.48259" stroke-linecap="round" stroke-linejoin="round"/>
<path d="M88.4529 23.8843L106.359 13.8359L124.149 23.8125L106.243 33.8608L88.4529 23.8843Z" fill="url(#paint2_linear_156_417)" stroke="black" stroke-width="3.48259" stroke-linecap="round" stroke-linejoin="round"/>
<path d="M106.243 34.4864L124.149 24.2837V44.5537L106.243 54.7563V34.4864ZM88.4529 24.3566L106.243 34.4864V54.7563L88.4529 44.6265V24.3566Z" fill="url(#paint3_linear_156_417)" stroke="black" stroke-width="3.48259" stroke-linecap="round" stroke-linejoin="round"/>
<path d="M88.4529 65.2416L106.359 54.7563L124.149 65.1667L106.243 75.6519L88.4529 65.2416Z" fill="url(#paint4_linear_156_417)" stroke="black" stroke-width="3.48259" stroke-linecap="round" stroke-linejoin="round"/>
<path d="M106.243 75.6983L124.149 65.2041V86.0532L106.243 96.5474V75.6983ZM88.4529 65.2791L106.243 75.6983V96.5474L88.4529 86.1282V65.2791Z" fill="url(#paint5_linear_156_417)" stroke="black" stroke-width="3.48259" stroke-linecap="round" stroke-linejoin="round"/>
<path d="M23.1841 69.1086L22.9601 69.2069C21.3604 69.9082 19.4905 69.4879 18.3449 68.1695V68.1695" stroke="black" stroke-width="2.61194" stroke-linecap="round"/>
<path d="M17.5229 66.2144L17.5609 66.44C17.8336 68.0591 19.1424 69.3037 20.7731 69.4947V69.4947" stroke="black" stroke-width="2.61194" stroke-linecap="round"/>
<path d="M175.095 72V67.9661H174.971C173.978 69.5383 172.55 70.7588 170.689 71.6276C168.868 72.4551 166.924 72.8688 164.855 72.8688C162.538 72.8688 160.469 72.4137 158.649 71.5035C156.829 70.5933 155.277 69.3935 153.995 67.9041C152.753 66.3733 151.802 64.6149 151.14 62.629C150.478 60.6431 150.147 58.5744 150.147 56.423C150.147 54.2716 150.478 52.2236 151.14 50.2791C151.843 48.2932 152.815 46.5555 154.057 45.0661C155.339 43.5767 156.87 42.3975 158.649 41.5287C160.469 40.6598 162.497 40.2254 164.731 40.2254C167.006 40.2254 168.93 40.6598 170.502 41.5287C172.075 42.3975 173.295 43.3491 174.164 44.3834H174.288V25.0829H184.466V72H175.095ZM174.723 56.4851C174.723 55.4921 174.536 54.5198 174.164 53.5683C173.833 52.6167 173.337 51.7685 172.675 51.0238C172.054 50.2791 171.289 49.6792 170.378 49.2241C169.468 48.769 168.434 48.5414 167.275 48.5414C166.076 48.5414 165.021 48.769 164.11 49.2241C163.2 49.6792 162.435 50.2791 161.814 51.0238C161.194 51.7272 160.718 52.5546 160.387 53.5062C160.097 54.4578 159.952 55.4301 159.952 56.423C159.952 57.416 160.097 58.4089 160.387 59.4019C160.718 60.3535 161.194 61.2016 161.814 61.9463C162.435 62.691 163.2 63.291 164.11 63.7461C165.021 64.2012 166.076 64.4287 167.275 64.4287C168.434 64.4287 169.468 64.2012 170.378 63.7461C171.289 63.291 172.054 62.691 172.675 61.9463C173.337 61.2016 173.833 60.3535 174.164 59.4019C174.536 58.4503 174.723 57.478 174.723 56.4851ZM213.833 53.0097C213.833 51.3962 213.316 50.0102 212.281 48.8517C211.288 47.6933 209.778 47.1141 207.751 47.1141C206.758 47.1141 205.848 47.2796 205.02 47.6105C204.193 47.9001 203.469 48.3139 202.848 48.8517C202.228 49.3896 201.731 50.0309 201.359 50.7756C200.986 51.4789 200.78 52.2236 200.738 53.0097H213.833ZM223.204 56.9195C223.204 57.3332 223.204 57.747 223.204 58.1607C223.204 58.5744 223.183 58.9675 223.142 59.3398H200.738C200.821 60.2087 201.069 60.9947 201.483 61.6981C201.938 62.4014 202.497 63.022 203.158 63.5599C203.862 64.0564 204.627 64.4494 205.455 64.739C206.324 65.0286 207.213 65.1734 208.123 65.1734C209.737 65.1734 211.102 64.8838 212.219 64.3046C213.336 63.684 214.246 62.8979 214.95 61.9463L222.025 66.4146C220.577 68.5247 218.653 70.1589 216.253 71.3173C213.895 72.4344 211.143 72.993 207.999 72.993C205.682 72.993 203.489 72.6413 201.421 71.9379C199.352 71.1932 197.532 70.1382 195.96 68.7729C194.429 67.3662 193.208 65.6492 192.298 63.6219C191.429 61.5947 190.995 59.2778 190.995 56.6713C190.995 54.1475 191.429 51.872 192.298 49.8447C193.167 47.776 194.346 46.0384 195.835 44.6317C197.325 43.1836 199.083 42.0665 201.111 41.2804C203.138 40.4944 205.331 40.1013 207.689 40.1013C209.964 40.1013 212.054 40.4944 213.957 41.2804C215.86 42.0252 217.494 43.1216 218.86 44.5696C220.225 46.0177 221.28 47.776 222.025 49.8447C222.811 51.9133 223.204 54.2716 223.204 56.9195ZM263.462 31.2268C263.462 32.0129 263.297 32.7576 262.966 33.4609C262.676 34.1229 262.262 34.7021 261.724 35.1986C261.187 35.6951 260.566 36.0881 259.863 36.3777C259.159 36.6673 258.415 36.8121 257.628 36.8121C255.974 36.8121 254.588 36.2743 253.47 35.1986C252.353 34.0815 251.795 32.7576 251.795 31.2268C251.795 30.4821 251.94 29.7787 252.229 29.1167C252.519 28.4134 252.933 27.8135 253.47 27.317C254.008 26.8205 254.629 26.4275 255.332 26.1379C256.036 25.8069 256.801 25.6414 257.628 25.6414C258.415 25.6414 259.159 25.7862 259.863 26.0758C260.566 26.3654 261.187 26.7585 261.724 27.255C262.262 27.7514 262.676 28.3513 262.966 29.0547C263.297 29.7167 263.462 30.4407 263.462 31.2268ZM252.478 72V41.0943H262.717V72H252.478ZM248.692 32.5921C248.32 32.468 247.885 32.3645 247.389 32.2818C246.892 32.199 246.396 32.1577 245.899 32.1577C244.948 32.1577 244.182 32.3232 243.603 32.6541C243.024 32.9851 242.569 33.4402 242.238 34.0195C241.907 34.5573 241.679 35.1779 241.555 35.8813C241.431 36.5846 241.369 37.2879 241.369 37.9913V41.0943H248.257V48.7276H241.369V72H231.191V48.7276H225.544V41.0943H231.191V38.1154C231.191 36.2122 231.398 34.4125 231.812 32.7162C232.225 30.9785 232.929 29.4684 233.922 28.1858C234.956 26.8619 236.321 25.8276 238.018 25.0829C239.755 24.2968 241.907 23.9037 244.472 23.9037C245.341 23.9037 246.189 23.9658 247.016 24.0899C247.885 24.1727 248.671 24.3175 249.375 24.5243L248.692 32.5921ZM288.971 50.217C288.144 49.431 287.171 48.769 286.054 48.2311C284.937 47.6933 283.758 47.4244 282.517 47.4244C281.565 47.4244 280.676 47.6105 279.848 47.9829C279.062 48.3553 278.669 48.9965 278.669 49.9067C278.669 50.7756 279.104 51.3962 279.972 51.7685C280.883 52.1409 282.331 52.5546 284.317 53.0097C285.475 53.258 286.633 53.6096 287.792 54.0647C288.992 54.5198 290.067 55.1198 291.019 55.8645C291.971 56.6092 292.736 57.5194 293.315 58.5951C293.894 59.6708 294.184 60.9534 294.184 62.4428C294.184 64.3873 293.791 66.0423 293.005 67.4076C292.219 68.7315 291.185 69.8072 289.902 70.6347C288.661 71.4621 287.254 72.0621 285.682 72.4344C284.11 72.8068 282.538 72.993 280.965 72.993C278.442 72.993 275.959 72.5999 273.518 71.8138C271.119 70.9864 269.112 69.7865 267.498 68.2144L273.208 62.1946C274.118 63.1875 275.235 64.015 276.559 64.677C277.883 65.3389 279.29 65.6699 280.779 65.6699C281.607 65.6699 282.413 65.4837 283.199 65.1114C284.027 64.6976 284.441 63.9943 284.441 63.0013C284.441 62.0498 283.944 61.3464 282.951 60.8913C281.958 60.4362 280.407 59.9604 278.297 59.4639C277.221 59.2157 276.145 58.8847 275.07 58.471C273.994 58.0573 273.022 57.4987 272.153 56.7954C271.325 56.092 270.643 55.2232 270.105 54.1889C269.567 53.1545 269.298 51.9133 269.298 50.4653C269.298 48.6035 269.691 47.0313 270.477 45.7487C271.263 44.4248 272.277 43.3491 273.518 42.5216C274.759 41.6942 276.125 41.0943 277.614 40.7219C279.145 40.3082 280.655 40.1013 282.144 40.1013C284.461 40.1013 286.716 40.4737 288.909 41.2184C291.143 41.9217 293.026 42.9974 294.556 44.4455L288.971 50.217ZM320.415 72V55.2439C320.415 54.375 320.353 53.5476 320.229 52.7615C320.105 51.9754 319.857 51.2927 319.485 50.7135C319.154 50.0929 318.698 49.6171 318.119 49.2861C317.54 48.9138 316.795 48.7276 315.885 48.7276C314.106 48.7276 312.741 49.3689 311.789 50.6515C310.838 51.8927 310.362 53.4441 310.362 55.3059V72H300.184V25.0829H310.362V45.004H310.486C311.189 43.7628 312.306 42.6664 313.837 41.7149C315.368 40.7219 317.209 40.2254 319.36 40.2254C321.47 40.2254 323.229 40.5978 324.636 41.3425C326.084 42.0872 327.242 43.0595 328.111 44.2593C329.021 45.4178 329.662 46.7624 330.035 48.2932C330.448 49.824 330.655 51.3548 330.655 52.8856V72H320.415ZM355.801 76.6545C355.181 78.268 354.477 79.6954 353.691 80.9366C352.946 82.2192 352.036 83.2949 350.96 84.1637C349.926 85.0739 348.685 85.7566 347.237 86.2117C345.83 86.6668 344.155 86.8943 342.21 86.8943C341.258 86.8943 340.265 86.8323 339.231 86.7082C338.238 86.584 337.369 86.4185 336.625 86.2117L337.742 77.6474C338.238 77.8129 338.776 77.937 339.355 78.0198C339.976 78.1439 340.534 78.206 341.031 78.206C342.603 78.206 343.741 77.8336 344.444 77.0889C345.148 76.3856 345.747 75.3719 346.244 74.048L347.237 71.5035L334.328 41.0943H345.623L352.512 60.9534H352.698L358.842 41.0943H369.64L355.801 76.6545Z" fill="url(#paint6_linear_156_417)"/>
<defs>
<linearGradient id="paint0_linear_156_417" x1="46.2263" y1="30.3782" x2="46.2263" y2="100.901" gradientUnits="userSpaceOnUse">
<stop stop-color="#00B89C"/>
<stop offset="1" stop-color="#DB64BA"/>
</linearGradient>
<linearGradient id="paint1_linear_156_417" x1="46.2263" y1="6" x2="46.2263" y2="54.7562" gradientUnits="userSpaceOnUse">
<stop stop-color="#00B89C"/>
<stop offset="1" stop-color="#DB64BA"/>
</linearGradient>
<linearGradient id="paint2_linear_156_417" x1="106.301" y1="13.8359" x2="106.301" y2="33.8608" gradientUnits="userSpaceOnUse">
<stop stop-color="#00B89C"/>
<stop offset="1" stop-color="#DB64BA"/>
</linearGradient>
<linearGradient id="paint3_linear_156_417" x1="106.301" y1="24.2837" x2="106.301" y2="54.7563" gradientUnits="userSpaceOnUse">
<stop stop-color="#00B89C"/>
<stop offset="1" stop-color="#DB64BA"/>
</linearGradient>
<linearGradient id="paint4_linear_156_417" x1="106.301" y1="54.7563" x2="106.301" y2="75.6519" gradientUnits="userSpaceOnUse">
<stop stop-color="#00B89C"/>
<stop offset="1" stop-color="#DB64BA"/>
</linearGradient>
<linearGradient id="paint5_linear_156_417" x1="106.301" y1="65.2041" x2="106.301" y2="96.5474" gradientUnits="userSpaceOnUse">
<stop stop-color="#00B89C"/>
<stop offset="1" stop-color="#DB64BA"/>
</linearGradient>
<linearGradient id="paint6_linear_156_417" x1="258.727" y1="10" x2="258.727" y2="95" gradientUnits="userSpaceOnUse">
<stop stop-color="#00B89C"/>
<stop offset="1" stop-color="#DB64BA"/>
</linearGradient>
</defs>
</svg>
