<svg width="162" height="39" viewBox="0 0 162 39" fill="none" xmlns="http://www.w3.org/2000/svg">
<path d="M40.5254 36.9744V34.3859L44.781 33.369V8.22303L40.5278 7.20567V4.61719H65.0736V14.0935H62.3434L60.4941 8.1305H52.3125V18.9008L60.9105 18.1148V22.6912L52.3125 21.9977V33.4616H60.5867L63.7304 26.9901H66.4578L65.0703 36.9744H40.5254Z" fill="white"/>
<path d="M68.5352 16.3169V13.8672H79.5825V29.8149C79.5825 31.3861 79.7751 32.4719 80.1603 33.0724C80.5456 33.6729 81.3239 33.9733 82.4954 33.9736C83.3886 33.9736 84.313 33.7424 85.2685 33.2801C86.2241 32.8178 86.9952 32.2015 87.5819 31.4314V17.2417L84.5769 16.3169V13.8672H94.7466V33.5128H98.3525V35.5013C97.6746 35.9633 97.1276 36.2938 96.7115 36.4927C96.2954 36.6916 95.8332 36.8919 95.3249 37.0937C94.8174 37.2934 94.2908 37.4405 93.7533 37.5327C93.2572 37.6213 92.7545 37.6677 92.2505 37.6715C90.0316 37.6715 88.4754 36.67 87.5819 34.6671C85.3922 36.671 82.7107 37.6729 79.5372 37.6729C74.8217 37.6729 72.4642 35.2539 72.4645 30.4159V17.2417L68.5352 16.3169Z" fill="white"/>
<path d="M99.6465 36.9795V34.5298L103.575 33.6054V4.20634H99.6465V1.75666L107.043 0H110.694V33.6054L114.624 34.5298V36.9795H99.6465Z" fill="white"/>
<path d="M116.703 25.1501C116.703 21.5146 117.728 18.6103 119.777 16.4371C121.826 14.2639 124.608 13.1781 128.121 13.1797C131.696 13.1797 134.4 14.3971 136.234 16.8318C138.068 19.2665 138.985 22.2711 138.984 25.8455H123.822C124.037 28.1134 124.854 30.0671 126.272 31.7065C127.69 33.3459 129.508 34.1658 131.727 34.1661C133.391 34.1661 135.178 33.8271 137.089 33.1492L138.059 35.7835C135.194 37.0459 132.389 37.677 129.646 37.677C125.671 37.677 122.52 36.5136 120.193 34.1869C117.867 31.8601 116.703 28.8478 116.703 25.1501ZM123.822 22.9784L131.634 22.47C131.638 21.7819 131.592 21.0945 131.496 20.4131C131.401 19.7817 131.139 19.019 130.71 18.1249C129.939 16.831 129.03 16.1839 127.982 16.1836C126.75 16.1836 125.733 16.8153 124.931 18.0786C124.465 18.8601 124.152 19.7229 124.007 20.6213C123.852 21.545 123.79 22.3304 123.822 22.9775V22.9784Z" fill="white"/>
<path d="M141.666 36.9831V34.5334L145.595 33.609V18.0772H141.666V15.6298L149.063 13.8732H152.714V16.6467C155.025 14.3354 157.768 13.1797 160.943 13.1797C161.134 13.809 161.227 14.4638 161.22 15.1214C161.22 16.5377 161.066 17.8628 160.758 19.0969L154.933 18.1258C154.193 18.4654 153.454 18.9584 152.714 19.6049V33.609L157.567 34.5334V36.9831H141.666Z" fill="white"/>
<path d="M20.8547 4.89488L2.97936 12.8532C1.33391 13.5858 0.593893 15.5136 1.3265 17.159C2.0591 18.8044 3.9869 19.5443 5.63236 18.8118L23.5077 10.8534C25.1531 10.1208 25.8931 8.1931 25.1605 6.5477C24.4279 4.90229 22.5001 4.1623 20.8547 4.89488Z" fill="#37BEC1"/>
<path d="M15.9003 17.8132L3.98327 23.1189C2.33781 23.8514 1.5978 25.7792 2.3304 27.4246C3.06301 29.07 4.99081 29.81 6.63627 29.0774L18.5533 23.7718C20.1987 23.0392 20.9388 21.1114 20.2062 19.466C19.4735 17.8206 17.5458 17.0806 15.9003 17.8132Z" fill="#FBB144"/>
<path d="M28.8137 22.7777L10.9383 30.736C9.29289 31.4686 8.55288 33.3964 9.28548 35.0418C10.0181 36.6872 11.9459 37.4272 13.5913 36.6946L31.4667 28.7362C33.1121 28.0037 33.8521 26.0759 33.1195 24.4305C32.3869 22.7851 30.4591 22.0451 28.8137 22.7777Z" fill="#E4615E"/>
</svg>
