<svg width="155" height="37" viewBox="0 0 155 37" fill="none" xmlns="http://www.w3.org/2000/svg">
<path d="M38.9609 35.5525V33.0638L43.0524 32.0862V7.91011L38.9632 6.932V4.44336H62.5622V13.5541H59.9373L58.1594 7.82115H50.2934V18.176L58.5597 17.4203V21.8202L50.2934 21.1535V32.1751H58.2484L61.2709 25.9533H63.893L62.559 35.5525H38.9609Z" fill="black"/>
<path d="M65.8984 15.6892V13.334H76.5196V28.6666C76.5196 30.1771 76.7048 31.221 77.0752 31.7984C77.4456 32.3757 78.1939 32.6645 79.3202 32.6648C80.1789 32.6648 81.0677 32.4426 81.9864 31.9981C82.905 31.5536 83.6464 30.9611 84.2105 30.2207V16.5783L81.3214 15.6892V13.334H91.0988V32.2218H94.5657V34.1336C93.9139 34.5778 93.3879 34.8955 92.9879 35.0867C92.5879 35.278 92.1435 35.4706 91.6548 35.6645C91.1669 35.8566 90.6606 35.998 90.1438 36.0867C89.6668 36.1718 89.1835 36.2165 88.699 36.2201C86.5657 36.2201 85.0695 35.2573 84.2105 33.3316C82.1053 35.2582 79.5271 36.2215 76.4761 36.2215C71.9425 36.2215 69.6759 33.8958 69.6762 29.2444V16.5783L65.8984 15.6892Z" fill="black"/>
<path d="M95.8047 35.553V33.1979L99.582 32.3092V4.04409H95.8047V1.6889L102.915 0H106.426V32.3092L110.204 33.1979V35.553H95.8047Z" fill="black"/>
<path d="M112.203 24.1747C112.203 20.6795 113.188 17.8872 115.158 15.7978C117.129 13.7084 119.803 12.6645 123.181 12.666C126.617 12.666 129.217 13.8364 130.98 16.1773C132.744 18.5181 133.625 21.4067 133.625 24.8432H119.047C119.255 27.0237 120.04 28.902 121.403 30.4782C122.766 32.0544 124.514 32.8426 126.647 32.8429C128.247 32.8429 129.966 32.517 131.803 31.8652L132.736 34.3979C129.98 35.6116 127.284 36.2184 124.647 36.2184C120.825 36.2184 117.796 35.0999 115.559 32.8629C113.322 30.6258 112.203 27.7298 112.203 24.1747ZM119.047 22.0868L126.559 21.598C126.562 20.9364 126.517 20.2755 126.425 19.6204C126.334 19.0134 126.082 18.2801 125.669 17.4204C124.929 16.1765 124.055 15.5544 123.047 15.5541C121.862 15.5541 120.885 16.1614 120.114 17.376C119.666 18.1273 119.364 18.9568 119.225 19.8206C119.076 20.7087 119.017 21.4638 119.047 22.0859V22.0868Z" fill="black"/>
<path d="M136.203 35.5532V33.198L139.981 32.3093V17.3765H136.203V15.0236L143.314 13.3347H146.825V16.0013C149.047 13.7791 151.684 12.668 154.736 12.668C154.92 13.273 155.01 13.9026 155.003 14.5348C155.003 15.8964 154.855 17.1705 154.558 18.3569L148.958 17.4233C148.247 17.7498 147.536 18.2238 146.825 18.8453V32.3093L151.49 33.198V35.5532H136.203Z" fill="black"/>
<path d="M20.0503 4.71787L2.86444 12.3692C1.28245 13.0736 0.570985 14.9269 1.27533 16.5089C1.97968 18.0908 3.83311 18.8023 5.4151 18.0979L22.6009 10.4466C24.1829 9.74224 24.8944 7.88886 24.19 6.30693C23.4857 4.72499 21.6322 4.01355 20.0503 4.71787Z" fill="black"/>
<path d="M15.2827 17.1374L3.82538 22.2384C2.24339 22.9427 1.53192 24.7961 2.23627 26.378C2.94061 27.96 4.79405 28.6714 6.37604 27.9671L17.8334 22.8661C19.4154 22.1618 20.1268 20.3084 19.4225 18.7265C18.7181 17.1445 16.8647 16.4331 15.2827 17.1374Z" fill="black"/>
<path d="M27.6987 21.9015L10.5129 29.5528C8.93089 30.2572 8.21942 32.1105 8.92377 33.6925C9.62811 35.2744 11.4816 35.9859 13.0635 35.2815L30.2493 27.6302C31.8313 26.9258 32.5428 25.0725 31.8385 23.4905C31.1341 21.9086 29.2807 21.1971 27.6987 21.9015Z" fill="black"/>
</svg>
