<svg width="157" height="44" viewBox="0 0 157 44" fill="none" xmlns="http://www.w3.org/2000/svg">
<path d="M2.25781 10.9824H27.5575H2.25781Z" fill="black"/>
<path d="M2.25781 10.9824H27.5575" stroke="black" stroke-width="3.09791" stroke-linecap="square"/>
<path d="M6.64844 21.8242H23.2997H6.64844Z" fill="black"/>
<path d="M6.64844 21.8242H23.2997" stroke="black" stroke-width="3.09791" stroke-linecap="square"/>
<path d="M2.25781 32.668H27.5575H2.25781Z" fill="black"/>
<path d="M2.25781 32.668H27.5575" stroke="black" stroke-width="3.09791" stroke-linecap="square"/>
<path d="M33.4473 9.52975H37.2593L43.7941 18.6738L50.3286 9.52975H54.1406L45.6998 21.2603L55.207 34.2164H51.3496L43.7941 23.8471L36.3516 34.2164H32.5625L41.9108 21.2603L33.4473 9.52975ZM81.3248 9.52975V34.2164H78.1936V29.9731C76.8625 31.5918 75.3649 32.8096 73.701 33.6264C72.0522 34.4431 70.2445 34.8516 68.2781 34.8516C64.7837 34.8516 61.7964 33.5885 59.3157 31.0623C56.85 28.521 55.6172 25.4352 55.6172 21.8049C55.6172 18.2503 56.8652 15.2098 59.3612 12.6836C61.8569 10.1575 64.8593 8.89443 68.3688 8.89443C70.3959 8.89443 72.2262 9.32553 73.8599 10.1877C75.5085 11.05 76.9531 12.3433 78.1936 14.0677V9.52975H81.3248ZM68.6185 11.9576C66.8488 11.9576 65.2149 12.3962 63.7175 13.2736C62.22 14.1358 61.025 15.3535 60.1325 16.9266C59.2549 18.4998 58.8164 20.1637 58.8164 21.9183C58.8164 23.6581 59.2628 25.3219 60.1551 26.91C61.0476 28.4986 62.2426 29.7388 63.7402 30.6313C65.2528 31.5087 66.8712 31.9474 68.5958 31.9474C70.3352 31.9474 71.9842 31.5087 73.5421 30.6313C75.1001 29.754 76.2951 28.5665 77.1272 27.0689C77.9742 25.5715 78.3978 23.8847 78.3978 22.0091C78.3978 19.1503 77.4524 16.7602 75.5617 14.8392C73.6858 12.9181 71.3715 11.9576 68.6185 11.9576ZM110.596 14.6576L108.078 16.2232C105.9 13.3341 102.927 11.8895 99.1608 11.8895C96.1507 11.8895 93.6471 12.8576 91.6504 14.7938C89.6688 16.73 88.678 19.0822 88.678 21.8503C88.678 23.6502 89.1317 25.3447 90.0394 26.9328C90.9622 28.521 92.2176 29.754 93.806 30.6313C95.4095 31.5087 97.2019 31.9474 99.1836 31.9474C102.814 31.9474 105.779 30.5026 108.078 27.6137L110.596 29.27C109.416 31.0397 107.828 32.4162 105.832 33.3995C103.85 34.3675 101.588 34.8516 99.0472 34.8516C95.1447 34.8516 91.9075 33.6112 89.336 31.1305C86.7644 28.6498 85.4789 25.6319 85.4789 22.0772C85.4789 19.6872 86.0762 17.4712 87.2712 15.4291C88.4815 13.3719 90.138 11.7685 92.2403 10.6189C94.3431 9.46924 96.6951 8.89443 99.297 8.89443C100.931 8.89443 102.504 9.14403 104.016 9.6432C105.544 10.1423 106.837 10.7928 107.896 11.5945C108.955 12.3962 109.855 13.4173 110.596 14.6576ZM117.632 0.363051H120.831V9.52975H125.868V12.2525H120.831V34.2164H117.632V12.2525H113.298V9.52975H117.632V0.363051ZM128.276 0H131.452V34.2164H128.276V0ZM133.541 9.52975H136.899L145.385 28.5438L153.622 9.52975H157.003L142.277 43.2467H138.919L143.684 32.3556L133.541 9.52975Z" fill="black"/>
<path d="M2 10.4629V13.5608" stroke="black" stroke-width="2.58161"/>
<path d="M6.38281 19.6211V24.0099V19.6211Z" fill="black"/>
<path d="M6.38281 19.6211V24.0099" stroke="black" stroke-width="2.58161"/>
<path d="M23.6875 19.6211V24.0099V19.6211Z" fill="black"/>
<path d="M23.6875 19.6211V24.0099" stroke="black" stroke-width="2.58161"/>
<path d="M2 30.084V33.182" stroke="black" stroke-width="2.58161"/>
<path d="M27.8203 30.084V33.182" stroke="black" stroke-width="2.58161"/>
<path d="M27.8203 10.4629V13.5608" stroke="black" stroke-width="2.58161"/>
</svg>
