<svg width="128" height="30" viewBox="0 0 128 30" fill="#fff" xmlns="http://www.w3.org/2000/svg"><path d="M19.3344 16.7685L30.0669 15L19.3344 13.2315L25.6734 4.3935L16.8354 10.7325L15.0669 0L13.2999 10.7325L4.46039 4.3935L10.7994 13.2315L0.0668945 15L10.7994 16.7685L4.46039 25.6065L13.2999 19.2675L15.0669 30L16.8354 19.2675L25.6734 25.6065L19.3344 16.7685Z"></path><path d="M74.3094 9.77403C73.3179 9.27753 72.1824 9.03003 70.9059 9.03003H65.6739V14.337H67.8969V10.911H70.8039C71.6814 10.911 72.4539 11.079 73.1214 11.415C73.7889 11.751 74.3019 12.2295 74.6604 12.852C75.0189 13.473 75.1989 14.1945 75.1989 15.015C75.1989 15.8355 75.0189 16.557 74.6604 17.178C74.3019 17.799 73.7889 18.2775 73.1214 18.615C72.4539 18.951 71.6814 19.119 70.8039 19.119H67.8969V15.6825H65.6739V21H70.9059C72.1824 21 73.3164 20.7525 74.3094 20.256C75.3009 19.7595 76.0704 19.059 76.6179 18.153C77.1654 17.247 77.4384 16.2015 77.4384 15.015C77.4384 13.83 77.1654 12.783 76.6179 11.877C76.0704 10.971 75.3009 10.269 74.3094 9.77403ZM54.6729 9.03003L49.2864 21H51.5784L52.7589 18.2295H58.7439L59.9409 21H62.2659L56.8629 9.03003H54.6729ZM53.5104 16.485L55.7499 11.253L58.0074 16.485H53.5104ZM45.4299 15.6135C45.8679 14.964 46.0884 14.1885 46.0884 13.2885C46.0884 12.411 45.8829 11.6535 45.4734 11.0145C45.0624 10.3755 44.4729 9.88653 43.7034 9.54453C42.9339 9.20253 42.0309 9.03153 40.9929 9.03153H36.0684V14.3385H38.2914V10.9125H40.8909C41.8599 10.9125 42.5949 11.118 43.0974 11.5275C43.5984 11.9385 43.8504 12.525 43.8504 13.2885C43.8504 14.052 43.5999 14.643 43.0974 15.0585C42.5949 15.4755 41.8599 15.6825 40.8909 15.6825H36.0684V21H38.2914V17.511H40.9929C41.1984 17.511 41.3514 17.505 41.4549 17.4945L43.8999 21H46.2939L43.5414 17.067C44.3604 16.7475 44.9904 16.263 45.4299 15.6135ZM81.6384 21H83.8614V9.03003H81.6384V21ZM92.6619 9.03003L87.2754 21H89.5674L90.7479 18.2295H96.7328L97.9299 21H100.255L94.8519 9.03003H92.6619ZM91.4994 16.485L93.7389 11.253L95.9964 16.485H91.4994ZM117.775 9.03003V10.911H121.742V21H123.965V10.911H127.933V9.03003H117.775ZM112.093 17.136L105.493 9.03003H103.663V21H105.869V12.894L112.469 21H114.299V9.03003H112.093V17.136Z"></path></svg>