<svg width="226" height="76" viewBox="0 0 226 76" fill="none" xmlns="http://www.w3.org/2000/svg">
<path d="M81.6781 57.8847C79.5416 57.2415 77.8416 56.3685 76.5781 55.2888L78.4849 50.9928C79.7025 51.9577 81.1957 52.7388 82.9876 53.3591C84.7565 53.9793 86.5484 54.278 88.3403 54.278C90.5457 54.278 92.1998 53.9334 93.3025 53.2212C94.4052 52.5091 94.9336 51.5672 94.9336 50.4185C94.9336 49.5685 94.6349 48.8563 94.0147 48.305C93.3944 47.7536 92.6363 47.3172 91.6944 46.9955C90.7525 46.6739 89.489 46.3293 87.8579 45.9388C85.5836 45.4104 83.7457 44.859 82.3444 44.3307C80.943 43.8023 79.7254 42.9523 78.7146 41.8036C77.7038 40.655 77.1984 39.0928 77.1984 37.1401C77.1984 35.486 77.6349 33.9928 78.5308 32.6374C79.4268 31.282 80.7822 30.2252 82.5741 29.4212C84.389 28.6171 86.5944 28.2266 89.1903 28.2266C91.0052 28.2266 92.7971 28.4563 94.566 28.9158C96.3349 29.3752 97.8512 30.0185 99.1147 30.8685L97.3687 35.1644C96.0593 34.4063 94.7039 33.809 93.2795 33.4185C91.8552 33.0279 90.4768 32.8212 89.1444 32.8212C86.9619 32.8212 85.3309 33.1887 84.2741 33.9239C83.2173 34.659 82.666 35.6469 82.666 36.8644C82.666 37.7144 82.9646 38.4036 83.5849 38.955C84.2052 39.5063 84.9633 39.9198 85.9052 40.2415C86.8471 40.5631 88.1106 40.9077 89.7417 41.2982C91.9471 41.8036 93.7849 42.332 95.1863 42.9063C96.6106 43.4577 97.8282 44.3077 98.839 45.4334C99.8498 46.559 100.355 48.0982 100.355 50.028C100.355 51.682 99.9187 53.1753 99.0228 54.5077C98.1268 55.8401 96.7714 56.8969 94.9566 57.701C93.1417 58.505 90.9133 58.8956 88.3173 58.8956C86.043 58.8726 83.8376 58.528 81.6781 57.8847Z" fill="white"/>
<path d="M125.854 29.8768C127.76 30.7268 129.231 31.9444 130.265 33.5525C131.298 35.1376 131.804 37.0214 131.804 39.2268C131.804 41.3863 131.298 43.2701 130.265 44.8782C129.231 46.4863 127.783 47.7039 125.854 48.5539C123.947 49.4039 121.696 49.8404 119.1 49.8404H112.369V58.4552H106.832V28.6133H119.1C121.673 28.6133 123.924 29.0268 125.854 29.8768ZM124.337 43.6147C125.578 42.5809 126.221 41.1336 126.221 39.2268C126.221 37.3201 125.601 35.8498 124.337 34.839C123.097 33.8052 121.259 33.2998 118.847 33.2998H112.369V45.1309H118.847C121.259 45.1309 123.097 44.6255 124.337 43.6147Z" fill="white"/>
<path d="M154.273 51.5404H139.364L136.423 58.4323H130.703L144.119 28.6133H149.564L163.026 58.4323H157.237L154.273 51.5404ZM152.436 47.1755L146.807 34.1268L141.225 47.1755H152.436Z" fill="white"/>
<path d="M186.57 58.4323L180.483 49.7025C180.23 49.7255 179.839 49.7485 179.334 49.7485H172.603V58.4323H167.066V28.6133H179.334C181.907 28.6133 184.181 29.0498 186.088 29.8998C187.995 30.7498 189.465 31.9673 190.499 33.5755C191.533 35.1606 192.038 37.0444 192.038 39.2498C192.038 41.5012 191.487 43.4309 190.407 45.039C189.304 46.6471 187.742 47.8647 185.698 48.6687L192.566 58.4782H186.57V58.4323ZM184.572 34.839C183.331 33.8052 181.493 33.2998 179.081 33.2998H172.603V45.1768H179.081C181.493 45.1768 183.331 44.6485 184.572 43.6147C185.812 42.5809 186.456 41.1106 186.456 39.2038C186.456 37.3201 185.835 35.8498 184.572 34.839Z" fill="white"/>
<path d="M208.945 45.9579L204.212 50.8052V58.4323H198.676V28.6133H204.212V43.9133L218.961 28.6133H225.187L212.666 41.9376L225.968 58.4323H219.489L208.945 45.9579Z" fill="white"/>
<path d="M30.7265 72.1969L21.8359 44.7441L42.8563 4.26562L30.7265 72.1969Z" fill="url(#paint0_linear_2375_469)"/>
<path d="M24.8012 25.7519L20.1147 35.929L9.36328 8.84375L24.8012 25.7519Z" fill="url(#paint1_linear_2375_469)"/>
<path d="M52.5498 0L41.6836 42.3623L61.0728 14.45L52.5498 0Z" fill="url(#paint2_linear_2375_469)"/>
<path d="M48.5523 41.9258L36.2617 70.5042L60.4753 44.9123L48.5523 41.9258Z" fill="url(#paint3_linear_2375_469)"/>
<path d="M28.1977 75.9903L0.882812 51.5929L13.8166 47.6875L28.1977 75.9903Z" fill="url(#paint4_linear_2375_469)"/>
<defs>
<linearGradient id="paint0_linear_2375_469" x1="32.3461" y1="-2.10351" x2="32.3461" y2="69.6838" gradientUnits="userSpaceOnUse">
<stop stop-color="#F2B72D"/>
<stop offset="1" stop-color="#F2A52B"/>
</linearGradient>
<linearGradient id="paint1_linear_2375_469" x1="17.0822" y1="-2.09702" x2="17.0822" y2="69.6903" gradientUnits="userSpaceOnUse">
<stop stop-color="#F2B72D"/>
<stop offset="1" stop-color="#F2A52B"/>
</linearGradient>
<linearGradient id="paint2_linear_2375_469" x1="51.3782" y1="-2.09615" x2="51.3782" y2="69.6912" gradientUnits="userSpaceOnUse">
<stop stop-color="#F2B72D"/>
<stop offset="1" stop-color="#F2A52B"/>
</linearGradient>
<linearGradient id="paint3_linear_2375_469" x1="48.3685" y1="-2.09615" x2="48.3685" y2="69.6912" gradientUnits="userSpaceOnUse">
<stop stop-color="#F2B72D"/>
<stop offset="1" stop-color="#F2A52B"/>
</linearGradient>
<linearGradient id="paint4_linear_2375_469" x1="14.5403" y1="-2.10066" x2="14.5403" y2="69.6867" gradientUnits="userSpaceOnUse">
<stop stop-color="#F2B72D"/>
<stop offset="1" stop-color="#F2A52B"/>
</linearGradient>
</defs>
</svg>
