<svg width="155" height="34" viewBox="0 0 155 34" fill="none" xmlns="http://www.w3.org/2000/svg">
<path d="M50.9734 17.5699C50.9734 18.5974 50.7968 19.5366 50.4435 20.3876C50.1064 21.2224 49.6167 21.9449 48.9745 22.555C48.3323 23.1491 47.5536 23.6147 46.6385 23.9518C45.7394 24.289 44.7359 24.4576 43.6281 24.4576C42.5042 24.4576 41.4928 24.289 40.5937 23.9518C39.6946 23.6147 38.932 23.1491 38.3058 22.555C37.6796 21.9449 37.198 21.2224 36.8608 20.3876C36.5237 19.5366 36.3551 18.5974 36.3551 17.5699V6.94936H40.4492V17.2327C40.4492 17.6983 40.5054 18.1398 40.6178 18.5573C40.7462 18.9747 40.9308 19.352 41.1717 19.6892C41.4285 20.0103 41.7577 20.2672 42.1591 20.4598C42.5765 20.6525 43.0742 20.7488 43.6522 20.7488C44.2302 20.7488 44.7199 20.6525 45.1212 20.4598C45.5387 20.2672 45.8758 20.0103 46.1327 19.6892C46.3896 19.352 46.5742 18.9747 46.6866 18.5573C46.799 18.1398 46.8552 17.6983 46.8552 17.2327V6.94936H50.9734V17.5699ZM69.3553 24H65.3817L63.0216 16.5343H62.9734L60.6614 24H56.6878L52.5455 12.0068H56.8082L58.8793 19.5928H58.9516L61.0949 12.0068H65.0686L67.2842 19.5928H67.3324L69.4276 12.0068H73.5217L69.3553 24ZM89.7317 17.5699C89.7317 18.5974 89.5551 19.5366 89.2018 20.3876C88.8647 21.2224 88.375 21.9449 87.7328 22.555C87.0906 23.1491 86.3119 23.6147 85.3968 23.9518C84.4977 24.289 83.4942 24.4576 82.3864 24.4576C81.2625 24.4576 80.2511 24.289 79.352 23.9518C78.4529 23.6147 77.6903 23.1491 77.0641 22.555C76.4379 21.9449 75.9563 21.2224 75.6191 20.3876C75.282 19.5366 75.1134 18.5974 75.1134 17.5699V6.94936H79.2075V17.2327C79.2075 17.6983 79.2637 18.1398 79.3761 18.5573C79.5045 18.9747 79.6891 19.352 79.93 19.6892C80.1868 20.0103 80.516 20.2672 80.9174 20.4598C81.3348 20.6525 81.8325 20.7488 82.4105 20.7488C82.9885 20.7488 83.4782 20.6525 83.8795 20.4598C84.297 20.2672 84.6341 20.0103 84.891 19.6892C85.1479 19.352 85.3325 18.9747 85.4449 18.5573C85.5573 18.1398 85.6135 17.6983 85.6135 17.2327V6.94936H89.7317V17.5699ZM99.0826 24V6.94936H103.225V20.4117H109.824V24H99.0826ZM119.379 16.6307C119.379 16.0045 119.179 15.4667 118.777 15.0171C118.392 14.5676 117.806 14.3428 117.019 14.3428C116.634 14.3428 116.281 14.407 115.96 14.5354C115.638 14.6478 115.357 14.8084 115.117 15.0171C114.876 15.2258 114.683 15.4747 114.539 15.7637C114.394 16.0366 114.314 16.3256 114.298 16.6307H119.379ZM123.016 18.1479C123.016 18.3084 123.016 18.469 123.016 18.6295C123.016 18.7901 123.008 18.9426 122.992 19.0871H114.298C114.33 19.4243 114.426 19.7293 114.587 20.0023C114.763 20.2752 114.98 20.516 115.237 20.7247C115.51 20.9174 115.807 21.0699 116.128 21.1823C116.465 21.2947 116.81 21.3509 117.164 21.3509C117.79 21.3509 118.32 21.2385 118.753 21.0137C119.187 20.7729 119.54 20.4679 119.813 20.0986L122.558 21.8325C121.996 22.6514 121.25 23.2855 120.319 23.7351C119.403 24.1686 118.336 24.3853 117.116 24.3853C116.216 24.3853 115.366 24.2489 114.563 23.9759C113.76 23.6869 113.054 23.2775 112.443 22.7477C111.849 22.2018 111.376 21.5355 111.023 20.7488C110.685 19.9621 110.517 19.063 110.517 18.0515C110.517 17.0722 110.685 16.1891 111.023 15.4024C111.36 14.5997 111.817 13.9253 112.395 13.3795C112.973 12.8175 113.656 12.384 114.442 12.079C115.229 11.774 116.08 11.6214 116.995 11.6214C117.878 11.6214 118.689 11.774 119.427 12.079C120.166 12.368 120.8 12.7935 121.33 13.3554C121.86 13.9173 122.269 14.5997 122.558 15.4024C122.863 16.2052 123.016 17.1203 123.016 18.1479ZM133.34 24V17.4495C133.34 17.1123 133.308 16.7912 133.244 16.4862C133.196 16.1811 133.107 15.9162 132.979 15.6914C132.851 15.4506 132.666 15.266 132.425 15.1375C132.2 14.993 131.911 14.9208 131.558 14.9208C131.205 14.9208 130.892 14.993 130.619 15.1375C130.362 15.266 130.145 15.4506 129.969 15.6914C129.792 15.9323 129.656 16.2132 129.559 16.5343C129.479 16.8394 129.439 17.1605 129.439 17.4976V24H125.465V12.0068H129.294V13.6685H129.342C129.487 13.4116 129.672 13.1627 129.896 12.9219C130.137 12.665 130.41 12.4483 130.715 12.2717C131.036 12.0951 131.381 11.9506 131.751 11.8382C132.12 11.7258 132.513 11.6696 132.931 11.6696C133.734 11.6696 134.416 11.8141 134.978 12.1031C135.54 12.3921 135.989 12.7694 136.326 13.235C136.68 13.6845 136.929 14.2063 137.073 14.8004C137.234 15.3944 137.314 15.9884 137.314 16.5825V24H133.34ZM149.384 24V22.4346H149.336C148.951 23.0447 148.397 23.5183 147.675 23.8555C146.968 24.1766 146.214 24.3372 145.411 24.3372C144.512 24.3372 143.709 24.1606 143.003 23.8073C142.296 23.4541 141.694 22.9885 141.196 22.4105C140.715 21.8165 140.345 21.1341 140.088 20.3635C139.832 19.5928 139.703 18.7901 139.703 17.9552C139.703 17.1203 139.832 16.3256 140.088 15.571C140.361 14.8004 140.739 14.126 141.22 13.5481C141.718 12.9701 142.312 12.5125 143.003 12.1753C143.709 11.8382 144.496 11.6696 145.363 11.6696C146.246 11.6696 146.992 11.8382 147.602 12.1753C148.212 12.5125 148.686 12.8818 149.023 13.2831H149.071V5.79338H153.021V24H149.384ZM149.24 17.9793C149.24 17.594 149.168 17.2167 149.023 16.8474C148.895 16.4781 148.702 16.149 148.445 15.86C148.204 15.571 147.907 15.3382 147.554 15.1616C147.201 14.985 146.8 14.8967 146.35 14.8967C145.884 14.8967 145.475 14.985 145.122 15.1616C144.769 15.3382 144.472 15.571 144.231 15.86C143.99 16.1329 143.805 16.454 143.677 16.8233C143.564 17.1926 143.508 17.5699 143.508 17.9552C143.508 18.3405 143.564 18.7259 143.677 19.1112C143.805 19.4805 143.99 19.8096 144.231 20.0986C144.472 20.3876 144.769 20.6204 145.122 20.797C145.475 20.9736 145.884 21.0619 146.35 21.0619C146.8 21.0619 147.201 20.9736 147.554 20.797C147.907 20.6204 148.204 20.3876 148.445 20.0986C148.702 19.8096 148.895 19.4805 149.023 19.1112C149.168 18.7419 149.24 18.3646 149.24 17.9793Z" fill="black"/>
<mask id="mask0_2370_550" style="mask-type:luminance" maskUnits="userSpaceOnUse" x="0" y="1" width="26" height="30">
<path d="M25.2451 1.96484H0V30.4953H25.2451V1.96484Z" fill="white"/>
</mask>
<g mask="url(#mask0_2370_550)">
<path d="M2.45418 30.4935C2.29442 30.4936 2.13531 30.4733 1.98074 30.4329C1.83768 30.3965 1.7026 30.3339 1.58236 30.2484L1.56792 30.2368L1.5506 30.2253C1.41862 30.116 1.32133 29.9707 1.27058 29.8071C1.23323 29.7041 1.20992 29.5963 1.2013 29.4871V29.4697C1.19841 29.4063 1.19552 29.3169 1.19552 29.1957V24.3652C1.1941 24.2458 1.19988 24.1264 1.21284 24.0076V23.973C1.23608 23.8317 1.285 23.6959 1.35719 23.5721C1.4751 23.3643 1.66999 23.211 1.89991 23.1453C2.05868 23.0963 2.2521 23.0733 2.48593 23.0733C2.6593 23.0674 2.83254 23.0878 2.99978 23.1338C3.14159 23.1698 3.27562 23.2313 3.39527 23.3155L3.42703 23.3386C3.55983 23.4477 3.6581 23.5929 3.70994 23.7567C3.74503 23.8613 3.76733 23.9698 3.77633 24.0797V24.0941C3.78211 24.1604 3.78211 24.2499 3.78211 24.3681V28.1576H5.621C5.73003 28.1548 5.8391 28.1606 5.94722 28.1748L5.97897 28.1806C6.09448 28.2019 6.2063 28.2398 6.31096 28.2931C6.4092 28.3449 6.49592 28.4162 6.56588 28.5024C6.63583 28.5886 6.68758 28.6881 6.71799 28.7949L6.72377 28.8151C6.80456 29.1467 6.80456 29.4929 6.72377 29.8245C6.69515 29.9342 6.64425 30.037 6.57423 30.1262C6.50421 30.2155 6.41656 30.2895 6.31673 30.3436C6.20666 30.4062 6.0865 30.4491 5.96165 30.4704L5.93278 30.4762C5.82636 30.4877 5.71939 30.4935 5.61234 30.4935H2.45418ZM2.24921 29.4207C2.32301 29.4381 2.39857 29.4467 2.47439 29.4466H5.73648C5.74032 29.4122 5.74129 29.3775 5.73936 29.3428V29.3111C5.74133 29.2775 5.74036 29.2436 5.73648 29.2102H2.73708V24.3681C2.73708 24.2556 2.73708 24.1922 2.7342 24.1576C2.73437 24.1526 2.73339 24.1477 2.73131 24.1431C2.65761 24.1255 2.58189 24.1178 2.50614 24.1201H2.49459C2.4134 24.1184 2.33222 24.1242 2.2521 24.1374C2.24633 24.2066 2.24344 24.2816 2.24344 24.3537V29.1957C2.24344 29.3083 2.24633 29.3717 2.24633 29.4063C2.24633 29.4409 2.24921 29.4149 2.24921 29.4207Z" fill="black"/>
<path d="M7.56045 30.4956C7.40164 30.4958 7.24348 30.4754 7.0899 30.435C6.94683 30.3986 6.81176 30.3361 6.69152 30.2505L6.6742 30.2389L6.65977 30.2274C6.52689 30.1189 6.4294 29.9733 6.37974 29.8093C6.34265 29.7061 6.31936 29.5984 6.31046 29.4892V29.4719C6.30469 29.4083 6.30469 29.3161 6.30469 29.1979V24.3644C6.30469 23.9174 6.40861 23.5973 6.62512 23.3839C6.84163 23.1705 7.16784 23.0725 7.62107 23.0725H11.0448C11.1644 23.0711 11.2839 23.0768 11.4028 23.0898H11.4375C11.5785 23.1143 11.7143 23.163 11.8387 23.2339C12.0473 23.351 12.201 23.546 12.2659 23.7761C12.315 23.9376 12.3381 24.1279 12.3381 24.3616C12.3436 24.5336 12.3241 24.7055 12.2804 24.872C12.244 25.0149 12.1813 25.1498 12.0956 25.27L12.0841 25.2873L12.0697 25.3017C11.961 25.4336 11.8167 25.5317 11.654 25.5843C11.5502 25.6191 11.4426 25.6413 11.3335 25.6506H11.3191C11.2555 25.6564 11.1719 25.6564 11.042 25.6564H10.8919C11.096 25.7752 11.2461 25.9686 11.3104 26.1957C11.3595 26.3543 11.3826 26.5446 11.3826 26.7783C11.387 26.9514 11.3666 27.1242 11.322 27.2916C11.286 27.4342 11.2243 27.5691 11.1401 27.6896L11.1256 27.7068L11.1141 27.7213C11.0537 27.7933 10.9827 27.8555 10.9034 27.9059H11.0448C11.1643 27.9034 11.2839 27.9083 11.4028 27.9203L11.4375 27.926C11.5784 27.9496 11.7141 27.9973 11.8387 28.0673C12.0475 28.1856 12.2012 28.3815 12.2659 28.6124C12.315 28.771 12.3381 28.9613 12.3381 29.195C12.3436 29.368 12.3241 29.5408 12.2804 29.7083C12.244 29.8503 12.1813 29.9843 12.0956 30.1034L12.0841 30.1207L12.0725 30.1351C11.9633 30.2678 11.8179 30.366 11.654 30.4177C11.5502 30.4525 11.4426 30.4748 11.3335 30.4841H11.3191L11.042 30.4898H7.56045V30.4956ZM7.35837 29.4228C7.4312 29.4401 7.5058 29.4489 7.58065 29.4488H11.2671C11.2843 29.375 11.293 29.2995 11.2931 29.2238V29.2094C11.2962 29.1282 11.2904 29.047 11.2758 28.9671C11.2048 28.9609 11.1334 28.959 11.0621 28.9613H7.84624V27.032H10.2885L10.3116 27.0263C10.3294 26.9536 10.3372 26.8789 10.3347 26.8042V26.7927C10.3364 26.7115 10.3306 26.6305 10.3174 26.5504C10.2456 26.5418 10.1731 26.5389 10.1008 26.5418H7.84624V24.6125H11.2671C11.2845 24.5397 11.2931 24.4652 11.2931 24.3904V24.376C11.2964 24.2948 11.2905 24.2135 11.2758 24.1337C11.2065 24.1279 11.1314 24.1251 11.0621 24.1251H7.61241C7.53188 24.1223 7.45134 24.1301 7.3728 24.1482C7.35774 24.2212 7.35096 24.2957 7.3526 24.3702V29.1979C7.3526 29.3103 7.3526 29.3738 7.35548 29.4083C7.35531 29.4134 7.3563 29.4183 7.35837 29.4228Z" fill="black"/>
<path d="M17.1805 30.4921H17.1776C16.8716 30.4921 16.6667 30.4661 16.5136 30.4026C16.3382 30.3341 16.1853 30.2183 16.072 30.0681L14.438 27.8966V29.2001C14.4394 29.3214 14.4337 29.4427 14.4207 29.5634L14.4149 29.6009C14.3914 29.739 14.3434 29.8718 14.2735 29.9931C14.1548 30.2003 13.9602 30.3534 13.7307 30.4199C13.5691 30.469 13.3757 30.4921 13.1418 30.4921H13.139C12.9051 30.4921 12.7146 30.469 12.5558 30.4171C12.3279 30.3503 12.1352 30.1971 12.0189 29.9903C11.9476 29.8633 11.8996 29.7246 11.8774 29.5807V29.5548C11.863 29.4342 11.8572 29.3128 11.8601 29.1914V24.3493C11.8577 24.2239 11.8654 24.0986 11.8832 23.9744L11.889 23.9398C11.9156 23.8125 11.9613 23.69 12.0247 23.5765C12.1025 23.4351 12.2585 23.2505 12.5587 23.1582C12.7514 23.1047 12.9506 23.0785 13.1505 23.0804C13.3335 23.0781 13.5161 23.1004 13.6932 23.1467L13.7106 23.1525C13.8953 23.2102 14.0252 23.2823 14.1262 23.3774L14.1349 23.3861C14.2073 23.4555 14.2739 23.5308 14.334 23.611L14.3889 23.6774C14.9865 24.4906 15.4917 25.1712 15.8958 25.7163V24.3493C15.8935 24.2239 15.9012 24.0986 15.9189 23.9744L15.9247 23.9398C15.9513 23.8125 15.9971 23.69 16.0604 23.5765C16.1383 23.4351 16.2943 23.2505 16.5974 23.1582C16.7561 23.1092 16.9524 23.0833 17.1891 23.0804C17.3595 23.0774 17.5295 23.0977 17.6943 23.1409C17.8411 23.1759 17.9795 23.2395 18.1013 23.3284L18.1216 23.3457L18.1389 23.3601C18.2618 23.47 18.3534 23.6102 18.4045 23.7668C18.4396 23.8704 18.4619 23.9779 18.4709 24.0869V24.1042C18.4737 24.1705 18.4767 24.2628 18.4767 24.381V29.2001C18.4767 29.3211 18.4709 29.4423 18.4593 29.5634L18.4536 29.6009C18.43 29.739 18.3821 29.8718 18.3121 29.9931C18.1935 30.2003 17.9989 30.3534 17.7694 30.4199C17.6077 30.469 17.4143 30.4921 17.1805 30.4921ZM16.9034 29.4307C16.9943 29.4415 17.086 29.4463 17.1776 29.4452C17.2588 29.4469 17.34 29.4411 17.4201 29.4279C17.4258 29.3558 17.4288 29.2836 17.4288 29.2145V24.381C17.4288 24.2657 17.4258 24.2022 17.4258 24.1705C17.4236 24.165 17.4226 24.1591 17.423 24.1532C17.3511 24.1361 17.2775 24.1273 17.2035 24.1273H17.1978C17.1147 24.1276 17.0317 24.1344 16.9495 24.1474C16.9437 24.208 16.9409 24.2686 16.9409 24.332V28.8193L16.0027 27.6024C15.5898 27.0688 14.7642 25.9614 13.5489 24.3089L13.5056 24.2513L13.4306 24.1648L13.4016 24.1561C13.3262 24.1364 13.2486 24.1267 13.1707 24.1273H13.1592C13.0769 24.1277 12.995 24.1345 12.9137 24.1474C12.9065 24.2087 12.9036 24.2703 12.9051 24.332V29.2029C12.9051 29.2779 12.908 29.3529 12.9137 29.4279C12.9884 29.438 13.0636 29.4428 13.139 29.4423H13.1418C13.222 29.4441 13.3023 29.4383 13.3815 29.4249C13.3872 29.3529 13.3901 29.2808 13.3901 29.2116V24.8079L14.3283 26.0249C14.7383 26.5555 15.6042 27.7004 16.9034 29.4307Z" fill="black"/>
<path d="M19.3777 30.4813C19.2 30.4819 19.0231 30.4575 18.8522 30.4092H18.8349C18.5433 30.3169 18.3875 30.141 18.3095 30.0083C18.2294 29.88 18.1764 29.7368 18.1536 29.5873V29.57C18.1382 29.4418 18.1315 29.3127 18.1334 29.1836V24.3559C18.131 24.2346 18.1358 24.1133 18.1478 23.9925V23.9522C18.1729 23.815 18.2218 23.6832 18.2922 23.5628C18.3498 23.4593 18.4275 23.3683 18.5207 23.295C18.6138 23.2217 18.7206 23.1676 18.8349 23.136C19.0255 23.0821 19.2229 23.0568 19.421 23.061H19.4267L20.2292 23.0668H21.0347C22.0103 23.0668 22.8794 23.4215 23.6154 24.1194C24.3516 24.8173 24.7355 25.7055 24.7355 26.738C24.7355 27.7705 24.3689 28.6442 23.6501 29.3768C22.9313 30.1093 22.0393 30.4784 21.0087 30.4784H19.3777V30.4813ZM19.1871 29.4142C19.258 29.4309 19.3308 29.4377 19.4036 29.4345H21.0115C21.7592 29.4345 22.3799 29.1749 22.9053 28.6442C23.4307 28.1136 23.6905 27.4849 23.6905 26.7408C23.6905 25.9969 23.4307 25.3883 22.8966 24.8807C22.3626 24.3732 21.7448 24.1165 21.0375 24.1165H20.2234L19.4267 24.1107C19.3455 24.1092 19.2644 24.1149 19.1842 24.128C19.1779 24.1999 19.176 24.2722 19.1784 24.3444V29.1922C19.1769 29.2663 19.1798 29.3405 19.1871 29.4142ZM21.0375 28.9441H19.6692V24.6097H21.0289C21.6092 24.6097 22.1201 24.8173 22.5473 25.2297C22.9746 25.6421 23.1969 26.167 23.1969 26.7755C23.1969 27.384 22.9717 27.929 22.5242 28.3415C22.0768 28.7538 21.5889 28.9441 21.0375 28.9441ZM20.7171 27.8973H21.0375C21.3204 27.8973 21.5745 27.7906 21.8141 27.5714C22.0537 27.3522 22.149 27.1071 22.149 26.7755C22.149 26.4439 22.045 26.2016 21.8199 25.9824C21.5947 25.7633 21.3378 25.6565 21.0289 25.6565H20.7171V27.8973Z" fill="black"/>
<path d="M3.26857 28.6824H5.63575C5.72162 28.6815 5.80746 28.6864 5.89269 28.6968C5.95742 28.7089 6.01979 28.7314 6.07744 28.7632C6.14961 28.7977 6.19868 28.8612 6.22755 28.9535C6.25935 29.0758 6.27391 29.202 6.27086 29.3284C6.27375 29.4519 6.25918 29.5752 6.22755 29.6947C6.21654 29.7355 6.1973 29.7738 6.17099 29.807C6.14468 29.8403 6.11187 29.8678 6.07455 29.8878C6.01332 29.9221 5.94707 29.9464 5.87825 29.9599C5.79489 29.9696 5.71098 29.9734 5.62709 29.9715H2.49202C2.36554 29.9742 2.23927 29.9597 2.11674 29.9282C2.03584 29.908 1.95947 29.8728 1.89156 29.8244C1.83553 29.7776 1.7944 29.7155 1.7732 29.6456C1.75027 29.5814 1.73572 29.5145 1.7299 29.4466C1.72702 29.3918 1.72702 29.3082 1.72702 29.1986V24.3623C1.72516 24.2622 1.72901 24.162 1.73856 24.0623C1.75339 23.9814 1.78169 23.9033 1.82228 23.8317C1.84701 23.7872 1.88047 23.7483 1.92065 23.717C1.96083 23.6857 2.0069 23.663 2.05611 23.65C2.16581 23.6153 2.31593 23.598 2.50068 23.598C2.62718 23.595 2.75349 23.6095 2.87597 23.6413C2.95662 23.6622 3.03288 23.6974 3.10114 23.7451C3.15796 23.7912 3.19927 23.8536 3.2195 23.924C3.24213 23.9882 3.25668 24.055 3.2628 24.1229C3.26568 24.1807 3.26857 24.2614 3.26857 24.371V28.6824Z" fill="black"/>
<path d="M8.36968 28.4316H11.0516C11.1518 28.4307 11.252 28.4354 11.3518 28.4459C11.433 28.4585 11.5113 28.4859 11.5827 28.5267C11.6273 28.552 11.6664 28.586 11.6976 28.6266C11.7288 28.6672 11.7516 28.7136 11.7646 28.7632C11.7992 28.8728 11.8165 29.0199 11.8165 29.2044C11.8196 29.3308 11.805 29.457 11.7732 29.5794C11.7518 29.6607 11.7166 29.7377 11.6693 29.8072C11.6222 29.8622 11.56 29.9023 11.4903 29.9226C11.4261 29.9464 11.3593 29.9619 11.2911 29.9687H7.59601C7.46952 29.9716 7.34324 29.957 7.22073 29.9254C7.13962 29.9058 7.06313 29.8705 6.99556 29.8216C6.93873 29.7755 6.89742 29.7131 6.8772 29.6428C6.85426 29.5786 6.83971 29.5117 6.8339 29.4438C6.83101 29.389 6.82812 29.3054 6.82812 29.1958V24.3624C6.82812 24.0682 6.88586 23.8663 6.99556 23.7568C7.10526 23.6472 7.31311 23.5953 7.62199 23.5981H11.0516C11.1517 23.5963 11.252 23.6001 11.3518 23.6097C11.4329 23.6245 11.5109 23.6527 11.5827 23.6933C11.6272 23.718 11.6662 23.7514 11.6975 23.7915C11.7287 23.8317 11.7516 23.8777 11.7646 23.9269C11.7992 24.0394 11.8165 24.1864 11.8165 24.371C11.8196 24.4974 11.805 24.6236 11.7732 24.746C11.7536 24.8269 11.7182 24.9034 11.6693 24.9708C11.6232 25.0276 11.5607 25.0689 11.4903 25.0891C11.4261 25.112 11.3591 25.1266 11.2911 25.1324L11.0429 25.1382H8.36968V26.0148H10.0931C10.1934 26.0138 10.2936 26.0187 10.3933 26.0292C10.4749 26.0408 10.5534 26.0683 10.6243 26.11C10.6692 26.1353 10.7087 26.1692 10.7404 26.2097C10.7721 26.2503 10.7954 26.2968 10.809 26.3465C10.8437 26.4561 10.861 26.6031 10.861 26.7906C10.8638 26.917 10.8492 27.0431 10.8177 27.1655C10.7965 27.2465 10.7602 27.3228 10.7109 27.3905C10.6645 27.4464 10.602 27.4867 10.5319 27.5059C10.4658 27.5297 10.3969 27.5452 10.327 27.5519H8.36968V28.4316Z" fill="black"/>
<path d="M17.1982 23.6059C17.3227 23.6031 17.4471 23.6176 17.5676 23.6492C17.6488 23.6689 17.7252 23.7041 17.7928 23.753C17.8466 23.8007 17.8857 23.8628 17.9054 23.9318C17.9293 23.9959 17.9448 24.0628 17.9516 24.1308C17.9545 24.1885 17.9545 24.2693 17.9545 24.3788V29.2036C17.9565 29.3056 17.9526 29.4077 17.943 29.5093C17.928 29.5885 17.8997 29.6646 17.8592 29.7343C17.8345 29.779 17.8011 29.8184 17.761 29.8501C17.7208 29.8818 17.6747 29.9052 17.6254 29.9188C17.5128 29.9534 17.3656 29.9707 17.1808 29.9707C16.9961 29.9707 16.7969 29.9534 16.7103 29.9188C16.6239 29.8844 16.5488 29.8265 16.4938 29.7516C15.187 28.0135 14.3276 26.8782 13.9158 26.3457V29.2036C13.9178 29.3056 13.914 29.4077 13.9043 29.5093C13.8895 29.5885 13.8611 29.6646 13.8206 29.7343C13.7959 29.779 13.7625 29.8184 13.7223 29.8501C13.6822 29.8818 13.636 29.9052 13.5867 29.9188C13.4742 29.9534 13.3269 29.9707 13.1421 29.9707C12.9574 29.9707 12.8188 29.9534 12.7121 29.9188C12.6137 29.89 12.5308 29.8237 12.4811 29.7343C12.4388 29.6623 12.4104 29.5831 12.3974 29.5006C12.3867 29.3991 12.3819 29.2971 12.383 29.195V24.3442C12.3825 24.2458 12.3893 24.1475 12.4031 24.0501C12.4184 23.9732 12.4456 23.8993 12.484 23.8309C12.5273 23.7502 12.6052 23.6924 12.7149 23.6579C12.8246 23.6233 12.9747 23.6059 13.1595 23.6059C13.2928 23.6026 13.426 23.6181 13.555 23.6521C13.656 23.6838 13.7282 23.7184 13.7686 23.7588C13.8236 23.8147 13.8756 23.8734 13.9244 23.9347L13.9678 23.9866C15.1918 25.6497 16.0097 26.7485 16.4216 27.2829V24.3442C16.4187 24.2458 16.4245 24.1474 16.4389 24.0501C16.4541 23.9732 16.4814 23.8993 16.5197 23.8309C16.563 23.7502 16.641 23.6924 16.7506 23.6579C16.8604 23.6233 17.0105 23.6059 17.1982 23.6059Z" fill="black"/>
<path d="M24.2086 26.741C24.2086 27.6234 23.8967 28.38 23.2733 29.0106C22.6497 29.6412 21.8943 29.9575 21.0071 29.9594H19.4136C19.2703 29.9624 19.1274 29.9449 18.9892 29.9075C18.8766 29.8729 18.7987 29.8152 18.7524 29.7374C18.7092 29.6645 18.6798 29.5843 18.6658 29.5008C18.6543 29.3955 18.6485 29.2896 18.6485 29.1836V24.3502C18.6476 24.249 18.6524 24.148 18.663 24.0474C18.6763 23.9673 18.7037 23.8902 18.7438 23.8196C18.7691 23.775 18.8031 23.736 18.8437 23.7048C18.8844 23.6735 18.9309 23.6508 18.9805 23.6379C19.0903 23.6032 19.2375 23.5859 19.4251 23.5859H20.2248L21.033 23.5917C21.8731 23.5917 22.615 23.8946 23.253 24.5002C23.891 25.1058 24.2086 25.8556 24.2086 26.741ZM22.6698 26.7756C22.6698 26.3141 22.5053 25.9219 22.1791 25.6076C21.8529 25.2932 21.4661 25.1317 21.0244 25.1317H20.1901V28.4194H21.033C21.4517 28.4194 21.8269 28.2665 22.1647 27.955C22.5024 27.6436 22.6698 27.2514 22.6698 26.7756Z" fill="black"/>
<path d="M1.8991 23.7749L1.82404 23.674C1.24667 22.8982 0.865613 21.9753 0.692407 20.9343C0.498991 19.772 0.498991 18.558 0.692407 17.3236C0.874072 16.1655 1.20899 15.0367 1.68836 13.9667L1.64217 13.9033V13.8918C0.981086 12.7815 0.484557 11.0137 0.314235 9.16217C0.247838 8.46138 0.0977239 6.12542 0.891593 5.52268C1.14564 5.32946 1.53247 5.23429 2.06941 5.23429C4.06709 5.23429 7.74777 6.59838 8.68602 6.96175C9.35246 6.69659 10.0454 6.50323 10.753 6.38497C11.2682 6.29906 11.7895 6.2547 12.3118 6.25232C12.589 6.0216 13.6397 5.14489 14.8464 4.2826C16.7546 2.91275 18.1461 2.21484 18.9775 2.21484C19.1057 2.21524 19.2331 2.23467 19.3557 2.27252C20.2996 2.58975 20.9117 4.84785 21.0733 5.53133C21.4948 7.2761 21.6016 9.04682 21.3677 10.3042C23.2442 12.222 24.4912 14.5839 24.8839 16.9661C25.1206 18.3849 24.9243 19.6999 24.3036 20.8766C23.7378 21.9523 22.8169 22.9126 21.5669 23.7346L21.5034 23.7749H1.8991Z" fill="black"/>
<path d="M18.9793 2.46669C19.0812 2.46383 19.1827 2.47846 19.2796 2.50995C20.4343 2.8964 21.6641 7.71252 21.0983 10.3859C22.9169 12.2143 24.2276 14.533 24.6375 17.0073C25.1081 19.8509 23.757 21.9965 21.4274 23.525H2.02512C1.48817 22.8011 1.11288 21.9302 0.942562 20.8919C0.558617 18.5704 0.980088 16.122 1.98471 13.9187C1.93604 13.8725 1.89248 13.8213 1.85479 13.7659C0.457578 11.4126 0.0707462 6.45802 1.03783 5.72262C1.26011 5.55247 1.61808 5.48326 2.06553 5.48326C4.08342 5.48326 7.87668 6.91367 8.68208 7.22802C9.85133 6.7429 11.1054 6.49489 12.3714 6.4984H12.4003C12.4003 6.4984 17.1058 2.46381 18.9765 2.46381L18.9793 2.46669ZM18.9765 1.96489C18.0815 1.96489 16.6814 2.65415 14.6953 4.07592C13.5493 4.89494 12.5706 5.70244 12.2156 5.99947C11.0049 6.01477 9.80686 6.24827 8.67923 6.68873C8.15382 6.48686 7.12611 6.10906 5.97427 5.75723C4.28549 5.24389 2.97199 4.98146 2.06553 4.98146C1.47085 4.98146 1.03494 5.09393 0.734713 5.32176C0.385408 5.58996 0.166011 6.10041 0.0620858 6.89349C-0.0187449 7.53083 -0.0216317 8.32102 0.0591989 9.18331C0.232408 11.0521 0.734713 12.8458 1.40445 13.9907C0.947639 15.0439 0.625621 16.1505 0.446031 17.2842C0.249728 18.5445 0.249728 19.7875 0.446031 20.9756C0.625014 22.0542 1.02051 23.0145 1.62385 23.822L1.77397 24.0239H21.5804L21.7045 23.9402C22.9921 23.0982 23.9418 22.1032 24.5278 20.9929C25.1745 19.7672 25.3765 18.3974 25.134 16.9266C24.9262 15.6605 24.4874 14.4118 23.8407 13.2151C23.2445 12.1228 22.5037 11.1159 21.6381 10.2215C21.8488 8.94106 21.7334 7.19053 21.3206 5.47172C21.1184 4.6325 20.8616 3.88269 20.5786 3.30591C20.2264 2.58782 19.854 2.17253 19.4383 2.03411C19.29 1.98698 19.1351 1.96362 18.9793 1.96489H18.9765Z" fill="black"/>
<path d="M14.6759 21.3607C14.4229 21.3602 14.175 21.2893 13.96 21.156C13.7679 21.0381 13.6077 20.875 13.4935 20.6809C13.3792 20.4868 13.3144 20.2676 13.3047 20.0428C13.3081 19.9925 13.33 19.9453 13.3661 19.9101C13.4023 19.8749 13.4501 19.8543 13.5005 19.8521C13.5509 19.85 13.6002 19.8665 13.6392 19.8984C13.6782 19.9304 13.704 19.9756 13.7118 20.0254C13.7185 20.184 13.7642 20.3384 13.8448 20.4752C13.9253 20.6119 14.0383 20.7269 14.1736 20.8098C14.282 20.8769 14.4027 20.9215 14.5286 20.9413C14.6545 20.9611 14.7832 20.9557 14.9069 20.9252C15.0306 20.8964 15.1473 20.843 15.25 20.7682C15.3527 20.6933 15.4392 20.5987 15.5045 20.4898C15.5714 20.3818 15.6163 20.2616 15.6366 20.1362C15.6569 20.0107 15.6522 19.8826 15.6226 19.759C15.5931 19.6354 15.5394 19.5189 15.4646 19.4161C15.3898 19.3134 15.2954 19.2265 15.1869 19.1602C15.1638 19.1467 15.1436 19.1285 15.1275 19.107C15.1115 19.0855 15.0999 19.061 15.0935 19.0349C15.087 19.0089 15.0858 18.9818 15.09 18.9552C15.0941 18.9288 15.1035 18.9034 15.1176 18.8805C15.1318 18.8576 15.1504 18.8376 15.1723 18.8218C15.1942 18.806 15.219 18.7948 15.2453 18.7886C15.2715 18.7825 15.2988 18.7815 15.3255 18.7859C15.3521 18.7903 15.3776 18.7999 15.4005 18.8142C15.6323 18.9566 15.8165 19.1643 15.9302 19.4111C16.0439 19.6581 16.0818 19.9331 16.0392 20.2014C15.9965 20.4699 15.8753 20.7196 15.6908 20.9192C15.5062 21.1189 15.2666 21.2594 15.0022 21.3232C14.895 21.347 14.7857 21.3596 14.6759 21.3607Z" fill="black"/>
<path d="M12.3455 21.7012C12.0984 21.702 11.8559 21.6352 11.6441 21.508C11.4689 21.405 11.3189 21.2643 11.2049 21.0963C11.0909 20.9282 11.0157 20.7369 10.9848 20.5363C10.9538 20.3356 10.9679 20.1306 11.026 19.9361C11.0841 19.7415 11.1847 19.5623 11.3207 19.4114C11.3385 19.3915 11.3601 19.3753 11.3842 19.3638C11.4083 19.3523 11.4344 19.3456 11.461 19.344C11.4877 19.3426 11.5144 19.3464 11.5396 19.3552C11.5648 19.364 11.588 19.3778 11.6079 19.3956C11.6279 19.4134 11.6441 19.4349 11.6556 19.4589C11.6671 19.483 11.6738 19.5091 11.6754 19.5358C11.6769 19.5624 11.673 19.5891 11.6642 19.6142C11.6554 19.6394 11.6416 19.6627 11.6238 19.6825C11.5187 19.801 11.4441 19.9433 11.4063 20.097C11.3686 20.2507 11.3689 20.4114 11.4073 20.565C11.4547 20.7504 11.5561 20.9176 11.6986 21.0456C11.8411 21.1734 12.0183 21.2563 12.2079 21.2839C12.3974 21.3113 12.5909 21.282 12.7639 21.1998C12.9369 21.1175 13.0816 20.986 13.1798 20.8217C13.2455 20.7128 13.2886 20.5918 13.3065 20.466C13.3243 20.3401 13.3165 20.212 13.2837 20.0891C13.2713 20.0368 13.2798 19.9817 13.3072 19.9355C13.3347 19.8891 13.379 19.8553 13.431 19.8411C13.4569 19.8342 13.484 19.8326 13.5106 19.8362C13.5373 19.8399 13.5629 19.8489 13.586 19.8625C13.6091 19.8762 13.6293 19.8944 13.6453 19.916C13.6613 19.9376 13.6728 19.9621 13.6792 19.9882C13.7248 20.163 13.7349 20.3451 13.7092 20.5239C13.6833 20.7026 13.6221 20.8745 13.5291 21.0293C13.4086 21.2355 13.2356 21.4063 13.0278 21.5243C12.8199 21.6423 12.5846 21.7033 12.3455 21.7012Z" fill="black"/>
<path d="M16.14 17.2418C15.7201 17.2396 15.3148 17.0875 14.9972 16.8132C14.6796 16.5387 14.4706 16.1599 14.408 15.745L14.2376 14.6001C14.2324 14.5677 14.2335 14.5346 14.2411 14.5026C14.2486 14.4707 14.2625 14.4406 14.2819 14.414C14.3012 14.3874 14.3256 14.365 14.3537 14.348C14.3818 14.3308 14.413 14.3196 14.4455 14.3146C14.5114 14.3047 14.5784 14.3214 14.632 14.3608C14.6857 14.4003 14.7213 14.4594 14.7313 14.5252L14.9017 15.6729C14.9596 15.9941 15.1406 16.2801 15.4061 16.47C15.6716 16.6601 16.0007 16.7394 16.3237 16.691C16.6468 16.6426 16.9382 16.4703 17.1362 16.2108C17.3342 15.9513 17.4232 15.6249 17.3843 15.301L17.214 14.156C17.209 14.1237 17.2105 14.0906 17.2184 14.0588C17.2262 14.027 17.2403 13.9971 17.2597 13.9707C17.2792 13.9443 17.3036 13.922 17.3317 13.9051C17.3597 13.8881 17.3909 13.8769 17.4232 13.872C17.4557 13.867 17.4888 13.8686 17.5206 13.8764C17.5524 13.8842 17.5823 13.8983 17.6088 13.9176C17.6352 13.9371 17.6575 13.9615 17.6745 13.9896C17.6914 14.0176 17.7027 14.0486 17.7076 14.081L17.8808 15.2259C17.9495 15.6864 17.8324 16.1552 17.5552 16.5294C17.2781 16.9036 16.8635 17.1526 16.4028 17.2216C16.3158 17.2341 16.228 17.2408 16.14 17.2418Z" fill="black"/>
<path d="M9.08469 7.07227C9.08469 7.07227 9.97669 7.54523 9.9219 8.6613C9.86702 9.8264 9.09913 9.73987 9.24346 11.029C9.38779 12.3181 12.7885 14.7723 11.1314 18.5156C9.5004 22.207 2.13904 21.238 0.816882 19.7874C0.499333 15.8826 3.00508 12.0643 3.00508 12.0643C3.00508 12.0643 6.05933 7.78459 9.08469 7.07227Z" fill="black"/>
<path d="M9.44525 18.043C9.02913 18.0428 8.62668 17.8948 8.30983 17.6253C7.99301 17.3558 7.78251 16.9825 7.71602 16.5721L7.54281 15.4272C7.53705 15.3943 7.53794 15.3606 7.54541 15.328C7.5529 15.2954 7.56682 15.2646 7.58637 15.2375C7.60592 15.2104 7.63071 15.1874 7.65927 15.1699C7.68782 15.1525 7.71959 15.141 7.75268 15.136C7.78577 15.131 7.81953 15.1326 7.85197 15.1408C7.88441 15.1491 7.91488 15.1637 7.94159 15.1839C7.96829 15.204 7.99069 15.2293 8.00748 15.2582C8.02427 15.2871 8.03511 15.3191 8.03934 15.3523L8.20966 16.4972C8.26876 16.8169 8.44979 17.1013 8.7147 17.2903C8.97953 17.4792 9.30747 17.5581 9.62944 17.5103C9.95133 17.4624 10.2421 17.2915 10.4404 17.0337C10.6387 16.7758 10.729 16.4511 10.6923 16.1281L10.522 14.9832C10.5167 14.9509 10.5178 14.918 10.5255 14.8862C10.5331 14.8543 10.547 14.8245 10.5663 14.7981C10.5857 14.7718 10.6101 14.7495 10.6382 14.7328C10.6664 14.7161 10.6975 14.7051 10.7299 14.7005C10.7625 14.6952 10.7959 14.6964 10.8281 14.7042C10.8602 14.7119 10.8905 14.726 10.9171 14.7457C10.9437 14.7653 10.9662 14.79 10.983 14.8184C11 14.8468 11.0111 14.8783 11.0157 14.9111L11.1889 16.0588C11.2496 16.5114 11.1313 16.9697 10.8591 17.3365C10.5869 17.7033 10.1822 17.9495 9.73098 18.0227C9.63641 18.0367 9.54083 18.0434 9.44525 18.043Z" fill="black"/>
<path d="M6.0752 9.17561C6.0752 9.17561 4.97244 7.65002 3.80906 6.85118C2.64567 6.05233 1.75942 5.6659 1.27155 5.8995C0.656661 6.19942 0.62202 8.09703 0.977101 10.0437C1.33217 11.9903 1.88067 12.9045 2.12893 13.4092C2.3772 13.9139 6.0752 9.17561 6.0752 9.17561Z" fill="black"/>
<path opacity="0.2" d="M18.0891 7.80579C17.8662 8.55832 17.3582 9.19428 16.6732 9.57846C15.9882 9.96264 15.1802 10.0647 14.421 9.863C13.6618 9.66128 13.0113 9.17167 12.6079 8.49829C12.2045 7.82491 12.0799 7.02086 12.2606 6.25714C12.2606 6.25714 13.4587 5.13819 17.6561 2.71859C21.8304 0.420117 21.5042 10.087 21.5042 10.087L18.0891 7.80579Z" fill="black"/>
<path d="M15.8984 6.96479C15.8984 6.96479 16.2824 5.60359 17.1167 4.46445C17.951 3.3253 18.6525 2.66201 19.1923 2.72257C19.8707 2.80043 20.5346 4.57981 20.8465 6.53221C21.1582 8.48461 20.9503 9.53147 20.8811 10.0881C20.5144 9.48244 15.8984 6.96479 15.8984 6.96479Z" fill="black"/>
<path d="M21.691 24.0245H1.67667L1.59872 23.9207C1.00981 23.1247 0.620092 22.1845 0.443997 21.1233C0.0744849 18.8796 0.403581 16.4658 1.40241 14.1442C2.36084 11.915 3.90528 9.90776 5.75284 8.486C5.77938 8.46555 5.80969 8.45052 5.84203 8.44178C5.87439 8.43302 5.90815 8.43073 5.94139 8.43501C5.97463 8.43929 6.0067 8.45008 6.03576 8.46674C6.06483 8.48341 6.09033 8.50563 6.11081 8.53214C6.13127 8.55865 6.14632 8.58894 6.15508 8.62125C6.16383 8.65357 6.16614 8.6873 6.16184 8.7205C6.15756 8.75371 6.14677 8.78575 6.13008 8.81479C6.1134 8.84382 6.09116 8.8693 6.06461 8.88975C2.34352 11.7535 0.239033 16.7512 0.949191 21.0396C1.10508 21.974 1.43706 22.8046 1.93648 23.5111H21.5379C24.0177 21.8587 25.0628 19.7217 24.6383 17.1579C23.9051 12.7369 20.2244 8.63308 15.6834 7.1796C15.6238 7.15507 15.5755 7.10899 15.5483 7.05054C15.5211 6.99208 15.5168 6.92552 15.5364 6.8641C15.5561 6.80268 15.5982 6.75089 15.6543 6.71904C15.7104 6.68719 15.7765 6.67761 15.8393 6.69221C18.0881 7.41319 20.2446 8.82054 21.9161 10.6575C22.741 11.5605 23.4419 12.5692 24.0003 13.6569C24.5545 14.7307 24.9401 15.8833 25.1436 17.0743C25.3831 18.5191 25.1811 19.863 24.5489 21.0656C23.9715 22.1615 23.0304 23.142 21.7544 23.9812L21.691 24.0245Z" fill="black"/>
<path d="M2.1293 24.4934C2.01191 24.4937 1.89561 24.471 1.78705 24.4263C1.67849 24.3818 1.57981 24.3161 1.49668 24.2334C1.41354 24.1506 1.34757 24.0522 1.30256 23.9439C1.25756 23.8356 1.23439 23.7195 1.23439 23.6022C1.23389 23.5181 1.24655 23.4344 1.27192 23.3542C1.47111 22.6707 1.92433 22.1141 2.58253 21.7536C3.17721 21.422 3.94222 21.2461 4.78805 21.2461C5.63388 21.2461 6.39889 21.422 6.99646 21.7507C7.65465 22.117 8.10788 22.6707 8.30707 23.3542C8.37217 23.5817 8.3443 23.8258 8.22958 24.0328C8.11486 24.2399 7.92265 24.393 7.69507 24.4587C7.61433 24.4818 7.53077 24.4934 7.4468 24.4934H2.1293Z" fill="black"/>
<path d="M4.78762 21.4998C6.36094 21.4998 7.6831 22.117 8.06704 23.4263C8.11336 23.59 8.0929 23.7653 8.01012 23.9139C7.92734 24.0626 7.789 24.1724 7.62536 24.2194C7.56728 24.2367 7.50698 24.2454 7.44638 24.2453H2.12888C1.95814 24.2453 1.7944 24.1776 1.67366 24.0569C1.55294 23.9364 1.48511 23.7728 1.48511 23.6022C1.48527 23.5426 1.49402 23.4834 1.5111 23.4263C1.89216 22.117 3.21431 21.4998 4.78762 21.4998ZM4.78762 20.998C2.85346 20.998 1.44759 21.8517 1.029 23.285C0.94513 23.5764 0.980398 23.8891 1.12706 24.1546C1.27373 24.42 1.51981 24.6166 1.81132 24.701C1.91473 24.7297 2.02155 24.7443 2.12888 24.7443H7.44638C7.59674 24.7446 7.74571 24.7154 7.88474 24.6582C8.02377 24.6009 8.15013 24.5169 8.25659 24.4108C8.36305 24.3047 8.44756 24.1787 8.50512 24.0399C8.56277 23.9012 8.59247 23.7524 8.59247 23.6022C8.59289 23.4948 8.57737 23.3879 8.54624 23.285C8.13055 21.8517 6.72468 20.998 4.78762 20.998Z" fill="black"/>
<path d="M6.03125 23.3887C6.03125 23.3887 6.20734 23.7982 6.14671 24.1471L6.03125 23.3887Z" fill="black"/>
<path d="M6.15161 24.3943H6.1112C6.04584 24.383 5.9876 24.3464 5.9492 24.2923C5.9108 24.2383 5.89535 24.1713 5.90624 24.106C5.94376 23.881 5.84562 23.5811 5.8052 23.4858C5.78235 23.4252 5.78381 23.3582 5.80931 23.2987C5.83479 23.2392 5.88234 23.1918 5.94197 23.1665C6.00162 23.1411 6.06876 23.1399 6.12934 23.1629C6.18994 23.1858 6.23929 23.2313 6.26709 23.2897C6.28729 23.3388 6.46917 23.7772 6.39988 24.1867C6.38967 24.245 6.35914 24.2978 6.31371 24.3358C6.26828 24.3738 6.21087 24.3945 6.15161 24.3943Z" fill="black"/>
<path d="M3.87194 23.3887C3.87194 23.3887 3.60635 23.9106 3.68718 24.248L3.87194 23.3887Z" fill="black"/>
<path d="M3.69442 24.495C3.6383 24.4958 3.58362 24.4773 3.5395 24.4426C3.49537 24.408 3.46447 24.3593 3.45192 24.3047C3.35088 23.8923 3.62514 23.3357 3.65689 23.2751C3.68675 23.2162 3.73881 23.1716 3.80161 23.1511C3.86441 23.1305 3.9328 23.1357 3.99176 23.1655C4.05071 23.1954 4.09539 23.2473 4.11596 23.3101C4.13654 23.3728 4.13132 23.4411 4.10146 23.5C4.00908 23.6846 3.89649 24.0191 3.93691 24.1864C3.94506 24.2184 3.94673 24.2517 3.94182 24.2844C3.93691 24.3171 3.92551 24.3484 3.9083 24.3766C3.89109 24.4049 3.86841 24.4293 3.8416 24.4487C3.81478 24.468 3.78437 24.4818 3.75216 24.4892C3.7333 24.494 3.71384 24.4959 3.69442 24.495Z" fill="black"/>
<path d="M15.973 12.9932C16.6366 12.9317 17.1414 12.5257 17.1006 12.0864C17.0599 11.6472 16.4888 11.3409 15.8252 11.4024C15.1617 11.4638 14.6568 11.8698 14.6976 12.3092C14.7384 12.7484 15.3094 13.0547 15.973 12.9932Z" fill="black"/>
<path d="M8.76803 14.067C9.42784 13.9538 9.90186 13.508 9.82676 13.0712C9.75166 12.6345 9.15596 12.3722 8.49615 12.4853C7.83641 12.5985 7.36243 13.0443 7.43751 13.4811C7.51258 13.9178 8.10829 14.1802 8.76803 14.067Z" fill="black"/>
<path opacity="0.2" d="M22.4228 11.6094C22.4228 11.6094 21.7472 12.7745 21.1035 13.2446C20.4597 13.7146 19.2675 13.8213 19.2501 14.2828C19.2328 14.7442 21.3171 15.6007 23.6612 13.4637L22.4228 11.6094Z" fill="black"/>
<path opacity="0.2" d="M23.7764 13.6406C23.7764 13.6406 22.8989 14.6644 22.18 15.0077C21.4612 15.3509 20.269 15.2383 20.1679 15.6883C20.0669 16.1381 21.9577 17.3609 24.654 15.6911L23.7764 13.6406Z" fill="black"/>
<path d="M13.3727 18.1444C13.3656 18.1639 13.3534 18.1811 13.3374 18.1944C13.3214 18.2076 13.3023 18.2165 13.2818 18.22C13.2612 18.2235 13.2402 18.2216 13.2207 18.2143C13.2012 18.2072 13.184 18.195 13.1707 18.179C12.96 17.9396 12.5962 17.8502 12.3075 17.9771C11.9438 18.1357 11.7591 18.5827 11.8976 18.9807C12.0362 19.3787 13.1245 20.1574 13.5084 20.0363C13.9241 19.9785 14.7238 18.9231 14.7642 18.5193C14.8046 18.1156 14.5246 17.7205 14.1378 17.683C13.8317 17.6513 13.5142 17.8502 13.3727 18.1444Z" fill="black"/>
<path opacity="0.1" d="M21.225 10.4219C21.2365 10.4507 24.1666 16.8761 21.2134 20.8876C20.2925 22.1393 18.7972 22.9871 17.1719 23.5581H21.5541C23.8808 22.0297 25.2348 19.8869 24.7642 17.0434C24.3543 14.5689 23.0436 12.2474 21.225 10.4219Z" fill="black"/>
<path d="M18.3217 24.4934C18.2045 24.4937 18.0883 24.471 17.9799 24.4263C17.8715 24.3817 17.773 24.3161 17.6901 24.2332C17.6072 24.1503 17.5415 24.052 17.4968 23.9437C17.4521 23.8354 17.4293 23.7194 17.4297 23.6022C17.4296 23.5184 17.4413 23.4349 17.4643 23.3542C17.6635 22.6707 18.1168 22.1141 18.7749 21.7536C19.3696 21.422 20.1346 21.2461 20.9833 21.2461C21.832 21.2461 22.5942 21.422 23.1889 21.7507C23.847 22.117 24.3003 22.6707 24.4995 23.3542C24.5322 23.4667 24.5423 23.5845 24.5294 23.7009C24.5165 23.8173 24.4807 23.9301 24.4241 24.0326C24.3676 24.1352 24.2913 24.2256 24.1997 24.2988C24.1081 24.3719 24.003 24.4262 23.8903 24.4587C23.8096 24.4818 23.726 24.4934 23.6421 24.4934H18.3217Z" fill="black"/>
<path d="M20.9851 21.4998C22.5585 21.4998 23.8806 22.117 24.2617 23.4263C24.285 23.5074 24.292 23.5922 24.2825 23.676C24.2729 23.7598 24.2468 23.8409 24.2058 23.9145C24.1648 23.9882 24.1095 24.0531 24.0433 24.1054C23.9771 24.1577 23.9012 24.1965 23.82 24.2194C23.7629 24.2367 23.7036 24.2454 23.6439 24.2453H18.3235C18.153 24.2446 17.9897 24.1766 17.8692 24.0561C17.7486 23.9357 17.6805 23.7726 17.6798 23.6022C17.6799 23.5426 17.6887 23.4834 17.7057 23.4263C18.0868 22.117 19.409 21.4998 20.9823 21.4998H20.9851ZM20.9823 20.998C19.0481 20.998 17.6422 21.8517 17.2236 23.285C17.1405 23.5764 17.1762 23.8888 17.3227 24.154C17.4692 24.4193 17.7149 24.6159 18.0059 24.701C18.1093 24.7297 18.2161 24.7443 18.3235 24.7443H23.6439C23.9471 24.7443 24.2378 24.6239 24.4522 24.4098C24.6666 24.1956 24.7871 23.9051 24.7871 23.6022C24.7871 23.495 24.7725 23.3883 24.7438 23.285C24.3252 21.8517 22.9193 20.998 20.9851 20.998H20.9823Z" fill="black"/>
<path d="M22.2188 23.3887C22.2188 23.3887 22.3949 23.7982 22.3342 24.1471L22.2188 23.3887Z" fill="black"/>
<path d="M22.3391 24.3943H22.2958C22.2304 24.383 22.1722 24.3464 22.1338 24.2923C22.0954 24.2383 22.08 24.1713 22.0909 24.106C22.1312 23.881 22.0331 23.5811 21.9927 23.4858C21.9699 23.4252 21.9713 23.3582 21.9968 23.2987C22.0223 23.2392 22.0698 23.1918 22.1295 23.1665C22.1891 23.1411 22.2563 23.1399 22.3168 23.1629C22.3774 23.1858 22.4268 23.2313 22.4545 23.2897C22.4748 23.3388 22.6567 23.7772 22.5874 24.1895C22.5761 24.2471 22.5451 24.2989 22.4999 24.3362C22.4546 24.3736 22.3978 24.3941 22.3391 24.3943Z" fill="black"/>
<path d="M20.0673 23.3887C20.0673 23.3887 19.8017 23.9106 19.8825 24.248L20.0673 23.3887Z" fill="black"/>
<path d="M19.8741 24.4954C19.818 24.4961 19.7634 24.4776 19.7192 24.443C19.6751 24.4083 19.6442 24.3596 19.6316 24.305C19.5306 23.8926 19.8048 23.336 19.8366 23.2754C19.8513 23.2462 19.8716 23.2201 19.8964 23.1988C19.9213 23.1774 19.9501 23.1612 19.9812 23.151C20.0123 23.1408 20.0451 23.1369 20.0778 23.1394C20.1105 23.142 20.1423 23.151 20.1714 23.1658C20.201 23.1803 20.2273 23.2004 20.249 23.2251C20.2707 23.2498 20.2872 23.2785 20.2977 23.3096C20.3082 23.3407 20.3124 23.3736 20.31 23.4063C20.3077 23.4391 20.2989 23.471 20.284 23.5004C20.1888 23.6849 20.0791 24.0195 20.1195 24.1867C20.1352 24.2513 20.1245 24.3196 20.0899 24.3764C20.0552 24.4331 19.9994 24.4739 19.9347 24.4896C19.9149 24.4944 19.8945 24.4963 19.8741 24.4954Z" fill="black"/>
</g>
</svg>
