<svg width="154" height="32" viewBox="0 0 154 32" fill="none" xmlns="http://www.w3.org/2000/svg">
<path d="M35.4403 6.81184L22.2473 29.6631C21.8484 30.3523 21.2753 30.9244 20.5855 31.3222C19.8956 31.7199 19.1133 31.9293 18.3171 31.9293C17.5208 31.9293 16.7385 31.7199 16.0487 31.3222C15.3588 30.9244 14.7857 30.3523 14.3868 29.6631L12.074 25.6603C12.0666 25.6503 12.0634 25.6379 12.0652 25.6256C12.0669 25.6133 12.0735 25.6022 12.0834 25.5947C12.0933 25.5873 12.1058 25.5841 12.1181 25.5858C12.1304 25.5876 12.1415 25.5942 12.149 25.6041C12.5615 26.0114 13.0618 26.3189 13.6114 26.5031C14.1611 26.6874 14.7456 26.7435 15.3203 26.6671C15.895 26.5908 16.4446 26.384 16.9271 26.0626C17.4095 25.7412 17.8121 25.3138 18.104 24.8129L29.1481 5.66483C29.4393 5.15929 29.6102 4.59352 29.6476 4.01133C29.685 3.42914 29.5879 2.84615 29.3639 2.3075C29.1398 1.76885 28.7948 1.28899 28.3555 0.905089C27.9162 0.521186 27.3945 0.243535 26.8307 0.0936363C26.8183 0.0936363 26.8064 0.0887038 26.7976 0.079924C26.7888 0.0711441 26.7839 0.0592361 26.7839 0.0468195C26.7839 0.034403 26.7888 0.0224949 26.7976 0.0137151C26.8064 0.00493525 26.8183 2.78366e-06 26.8307 2.78366e-06H31.5124C32.3091 0.000860564 33.0916 0.211318 33.7813 0.610244C34.4709 1.00917 35.0435 1.58252 35.4415 2.27273C35.8395 2.96294 36.0489 3.74571 36.0487 4.54245C36.0485 5.33919 35.8387 6.12185 35.4403 6.81184ZM19.8222 2.78366e-06H15.2482C15.2389 0.00308142 15.2307 0.00903859 15.2249 0.017025C15.2191 0.0250113 15.216 0.0346192 15.216 0.0444787C15.216 0.0543382 15.2191 0.0639461 15.2249 0.0719325C15.2307 0.0799188 15.2389 0.085876 15.2482 0.0889546C15.5563 0.207948 15.835 0.392055 16.0654 0.628692C16.2958 0.865329 16.4723 1.14892 16.583 1.46007C16.6937 1.77122 16.7359 2.10261 16.7067 2.43157C16.6775 2.76053 16.5777 3.07931 16.414 3.36613L9.74725 14.8971C9.57501 15.1895 9.34016 15.4401 9.05957 15.631C8.77898 15.8219 8.4596 15.9483 8.12437 16.0011C7.78915 16.0539 7.44639 16.0318 7.1207 15.9365C6.79501 15.8411 6.49448 15.6748 6.24068 15.4495C6.23323 15.4396 6.22214 15.433 6.20984 15.4313C6.19755 15.4295 6.18507 15.4327 6.17513 15.4402C6.1652 15.4476 6.15863 15.4587 6.15688 15.471C6.15512 15.4833 6.15832 15.4958 6.16577 15.5057L8.50661 19.5694C8.76943 20.0254 9.14775 20.4042 9.60347 20.6675C10.0592 20.9309 10.5763 21.0695 11.1026 21.0695C11.6289 21.0695 12.146 20.9309 12.6017 20.6675C13.0574 20.4042 13.4358 20.0254 13.6986 19.5694L22.4206 4.49441C22.6837 4.03867 22.8221 3.52166 22.822 2.9954C22.8218 2.46915 22.6831 1.95222 22.4197 1.49663C22.1563 1.04104 21.7776 0.662849 21.3216 0.40012C20.8656 0.137392 20.3485 -0.000608976 19.8222 2.78366e-06ZM3.94666 2.78366e-06C3.16608 2.78366e-06 2.40304 0.23147 1.75401 0.665134C1.10499 1.0988 0.599136 1.71518 0.300423 2.43634C0.00171003 3.15749 -0.0764469 3.95103 0.0758356 4.71661C0.228118 5.48219 0.604 6.18541 1.15595 6.73736C1.7079 7.28931 2.41113 7.66519 3.1767 7.81747C3.94228 7.96976 4.73582 7.8916 5.45697 7.59289C6.17813 7.29417 6.79451 6.78832 7.22818 6.1393C7.66184 5.49027 7.89331 4.72723 7.89331 3.94666C7.89392 3.4282 7.79226 2.91472 7.59414 2.43561C7.39602 1.9565 7.10534 1.52118 6.73873 1.15458C6.37213 0.787973 5.93681 0.497289 5.4577 0.299169C4.97859 0.101049 4.46511 -0.000613325 3.94666 2.78366e-06Z" fill="url(#paint0_linear_2377_452)"/>
<path d="M67.117 7.16016H63.175L57.7876 19.9849L52.4265 7.16016H48.4844L56.0794 24.7679H59.5221L67.117 7.16016Z" fill="black"/>
<path d="M86.525 21.5354H76.7225V17.5408H85.7103V14.3609H76.7225V10.3927H86.4724V7.16016H73.1484V24.7679H86.525V21.5354Z" fill="black"/>
<path d="M110.07 7.16016H106.496V18.776L96.7459 7.16016H93.75V24.7679H97.3241V13.4674L107.074 24.7679H110.07V7.16016Z" fill="black"/>
<path d="M132.844 7.16016H129.27V16.8838C129.27 18.3555 128.902 19.5381 128.166 20.4317C127.43 21.3252 126.458 21.7457 125.276 21.7457C124.014 21.7457 122.989 21.3252 122.227 20.4317C121.465 19.5381 121.097 18.3555 121.097 16.8838V7.16016H117.523V16.8838C117.523 19.3542 118.232 21.3515 119.652 22.8757C121.071 24.3999 122.937 25.1621 125.276 25.1621C127.536 25.1621 129.375 24.3999 130.768 22.8757C132.135 21.3515 132.844 19.3542 132.844 16.8838V7.16016Z" fill="black"/>
<path d="M146.77 6.76562C144.72 6.76562 143.091 7.26495 141.882 8.2636C140.673 9.26224 140.069 10.5499 140.069 12.1267C140.069 14.8599 141.593 16.5418 144.694 17.1725L148.426 17.8821C149.161 18.0398 149.687 18.2763 150.002 18.5654C150.318 18.8807 150.475 19.2749 150.475 19.8005C150.475 20.4575 150.186 20.9831 149.661 21.4036C149.109 21.8241 148.347 22.0343 147.348 22.0343C145.167 22.0343 143.853 21.0883 143.406 19.1698L139.648 19.9319C139.858 21.6139 140.647 22.9279 142.013 23.8214C143.38 24.7149 145.062 25.1617 147.007 25.1617C149.109 25.1617 150.791 24.6623 152.079 23.6637C153.34 22.6651 153.997 21.3248 153.997 19.6166C153.997 18.2763 153.577 17.1725 152.762 16.3316C151.947 15.4906 150.817 14.8862 149.372 14.5708L145.587 13.8087C144.405 13.5984 143.827 12.994 143.827 12.0216C143.827 11.4172 144.089 10.8916 144.615 10.4711C145.141 10.0506 145.824 9.84039 146.691 9.84039C147.585 9.84039 148.347 10.1032 149.004 10.6025C149.635 11.1018 150.029 11.7588 150.16 12.5735L153.734 11.8377C153.393 10.2871 152.604 9.05199 151.343 8.13219C150.081 7.23866 148.557 6.76562 146.77 6.76562Z" fill="black"/>
<defs>
<linearGradient id="paint0_linear_2377_452" x1="35.5875" y1="25.2671" x2="-5.63168" y2="-2.72439" gradientUnits="userSpaceOnUse">
<stop/>
</linearGradient>
</defs>
</svg>
